<svg width="503" height="365" viewBox="0 0 503 365" fill="none" xmlns="http://www.w3.org/2000/svg">
<path d="M279.048 178.261C279.048 170.968 284.856 168.072 291.071 168.072H293.132V202.277H279.048V178.261ZM297.157 168.072H331.361V202.277H297.157V168.072ZM343.435 168.072H373.616V202.277H343.435V168.072ZM377.639 168.072H415.869V202.277H377.639V168.072ZM419.893 168.072H460.133V202.277H419.893V168.072ZM463.3 167.289L478.545 168.072H477.42C482.36 168.072 490.315 170.941 490.315 179.647V216.904L478.241 209.143V199.751L463.584 199.483L463.3 167.289ZM271 173.557V246.543H287.74C288.056 236.483 294.405 232.633 302.215 232.633C310.023 232.633 316.373 236.483 316.685 246.543H435.293C435.607 236.483 441.956 232.633 449.768 232.633C457.573 232.633 463.929 236.483 464.24 246.543H486.985H492.311H494.441L494.103 244.376C495.612 243.299 496.351 239.693 496.351 237.159V235.56C496.351 232.724 495.352 231.133 493.549 230.24L491.697 175.216C491.697 165.857 481.835 162.036 472.477 162.036H448.063V156H393.736V162.036H363.556V156H315.265V162.036H288.916C279.561 162.036 271 164.197 271 173.557ZM295.973 245.449C295.973 242.005 298.764 239.209 302.215 239.209C305.661 239.209 308.459 242.005 308.459 245.449C308.459 248.896 305.661 251.692 302.215 251.692C298.764 251.692 295.973 248.896 295.973 245.449ZM288.82 245.449C288.82 252.848 294.816 258.847 302.215 258.847C309.608 258.847 315.609 252.848 315.609 245.449C315.609 238.056 309.608 232.055 302.215 232.055C294.816 232.055 288.82 238.056 288.82 245.449ZM443.527 245.449C443.527 242.005 446.317 239.209 449.768 239.209C453.215 239.209 456.009 242.005 456.009 245.449C456.009 248.896 453.215 251.692 449.768 251.692C446.317 251.692 443.527 248.896 443.527 245.449ZM436.375 245.449C436.375 252.848 442.369 258.847 449.768 258.847C457.164 258.847 463.16 252.848 463.16 245.449C463.16 238.056 457.164 232.055 449.768 232.055C442.369 232.055 436.375 238.056 436.375 245.449Z" fill="#EAEAEA"/>
<path d="M230.767 322.324C230.976 322.275 232.033 322.044 232.304 321.984L234.345 328.432L235.095 323.633L234.327 323.276L234.008 322.748L234.912 321.931L233.798 321.063C233.968 320.808 234.095 320.549 234.171 320.339C234.001 320.211 233.816 320.06 233.601 319.889C232.84 319.276 232.991 318.821 232.791 318.209C232.528 318.732 231.813 317.233 231.813 316.577C231.813 315.924 232.204 316.327 232.204 316.327C232.204 316.327 232.227 315.804 232.253 315.128C232.376 312.251 234.755 312 235.439 312C235.448 312 235.456 312 235.468 312.004C235.473 312 235.477 312 235.485 312C235.485 312 235.485 312 235.488 312C235.492 312 235.492 312 235.492 312C235.499 312 235.503 312 235.511 312.004C235.519 312 235.527 312 235.537 312C236.224 312 238.6 312.251 238.723 315.128C238.747 315.804 238.771 316.327 238.771 316.327C238.771 316.327 239.163 315.924 239.163 316.577C239.163 317.233 238.451 318.732 238.185 318.209C237.985 318.821 238.135 319.276 237.375 319.889C237.159 320.06 236.975 320.211 236.804 320.339C236.885 320.549 237.004 320.808 237.177 321.063L236.062 321.931L236.965 322.748L236.649 323.276L235.879 323.633L236.627 328.432L238.675 321.984C238.943 322.044 239.996 322.275 240.204 322.324C242.355 322.9 242.227 323.673 242.227 324.749C242.227 324.764 242.227 324.811 242.227 324.827C242.216 326.308 242.045 328.487 241.827 332.545V332.505C241.827 332.505 241.827 332.527 241.827 332.555C241.811 332.844 241.795 334.511 241.783 334.804C241.672 335.76 241.317 337.125 240.16 337.125C240.16 340.352 239.847 349.527 239.737 352.407H235.677L235.527 338.165H235.336L235.211 352.407H231.216C231.111 349.527 230.795 340.352 230.795 337.125C229.726 337.125 229.343 335.955 229.208 335.021C228.964 330.52 228.761 326.444 228.749 324.827C228.745 324.811 228.749 324.764 228.749 324.749C228.749 323.673 228.622 322.9 230.767 322.324Z" fill="url(#paint0_linear_50_136)"/>
<path d="M210.024 322.324C210.228 322.275 211.287 322.044 211.556 321.984L213.599 328.432L214.348 323.633L213.58 323.276L213.265 322.748L214.168 321.931L213.053 321.063C213.221 320.808 213.347 320.549 213.425 320.339C213.255 320.211 213.069 320.06 212.853 319.889C212.096 319.276 212.24 318.821 212.051 318.209C211.78 318.732 211.063 317.233 211.063 316.577C211.063 315.924 211.456 316.327 211.456 316.327C211.456 316.327 211.48 315.804 211.507 315.128C211.629 312.251 214.008 312 214.693 312C214.701 312 214.711 312 214.719 312.004C214.728 312 214.729 312 214.737 312H214.744C214.744 312 214.744 312 214.745 312C214.752 312 214.757 312 214.764 312.004C214.772 312 214.783 312 214.789 312C215.479 312 217.852 312.251 217.98 315.128C218.001 315.804 218.025 316.327 218.025 316.327C218.025 316.327 218.416 315.924 218.416 316.577C218.416 317.233 217.705 318.732 217.439 318.209C217.237 318.821 217.388 319.276 216.629 319.889C216.413 320.06 216.227 320.211 216.06 320.339C216.135 320.549 216.259 320.808 216.432 321.063L215.313 321.931L216.22 322.748L215.905 323.276L215.137 323.633L215.884 328.432L217.927 321.984C218.196 322.044 219.253 322.275 219.457 322.324C221.611 322.9 221.485 323.673 221.485 324.749C221.485 324.764 221.485 324.811 221.485 324.827C221.468 326.308 221.299 328.487 221.079 332.545V332.505C221.079 332.505 221.079 332.527 221.079 332.555C221.064 332.844 221.048 334.511 221.033 334.804C220.925 335.76 220.569 337.125 219.412 337.125C219.412 340.352 219.104 349.527 218.996 352.407H214.933L214.783 338.165H214.589L214.465 352.407H210.476C210.367 349.527 210.051 340.352 210.051 337.125C208.981 337.125 208.6 335.955 208.46 335.021C208.219 330.52 208.017 326.444 208.001 324.827C208.001 324.811 208.001 324.764 208.001 324.749C208.001 323.673 207.875 322.9 210.024 322.324Z" fill="url(#paint1_linear_50_136)"/>
<path d="M230.752 166.317C230.961 166.267 232.019 166.035 232.289 165.98L234.331 172.428L235.08 167.627L234.312 167.273L233.993 166.743L234.897 165.927L233.783 165.06C233.953 164.803 234.08 164.541 234.156 164.329C233.987 164.201 233.801 164.055 233.587 163.881C232.825 163.268 232.976 162.815 232.776 162.201C232.513 162.723 231.799 161.229 231.799 160.568C231.799 159.916 232.189 160.321 232.189 160.321C232.189 160.321 232.212 159.803 232.239 159.127C232.361 156.245 234.74 156 235.424 156C235.433 156 235.441 156 235.453 156C235.459 156 235.463 156 235.471 156C235.471 156 235.471 156 235.473 156C235.477 156 235.477 156 235.477 156C235.484 156 235.488 156 235.496 156C235.504 156 235.512 156 235.523 156C236.209 156 238.585 156.245 238.708 159.127C238.732 159.803 238.756 160.321 238.756 160.321C238.756 160.321 239.148 159.916 239.148 160.568C239.148 161.229 238.436 162.723 238.171 162.201C237.971 162.815 238.12 163.268 237.36 163.881C237.144 164.055 236.96 164.201 236.789 164.329C236.871 164.541 236.989 164.803 237.163 165.06L236.047 165.927L236.951 166.743L236.635 167.273L235.864 167.627L236.612 172.428L238.66 165.98C238.928 166.035 239.981 166.267 240.189 166.317C242.34 166.889 242.212 167.669 242.212 168.747C242.212 168.763 242.212 168.805 242.212 168.819C242.201 170.303 242.031 172.481 241.812 176.541V176.499C241.812 176.499 241.812 176.521 241.812 176.555C241.796 176.839 241.78 178.504 241.768 178.797C241.657 179.76 241.303 181.12 240.145 181.12C240.145 184.345 239.832 193.521 239.723 196.397H235.663L235.512 182.157H235.321L235.196 196.397H231.201C231.096 193.521 230.78 184.345 230.78 181.12C229.711 181.12 229.328 179.947 229.193 179.015C228.949 174.511 228.747 170.436 228.735 168.819C228.731 168.805 228.735 168.763 228.735 168.747C228.735 167.669 228.607 166.889 230.752 166.317Z" fill="url(#paint2_linear_50_136)"/>
<path d="M210.009 166.317C210.213 166.267 211.272 166.035 211.541 165.98L213.584 172.428L214.333 167.627L213.565 167.273L213.251 166.743L214.153 165.927L213.039 165.06C213.207 164.803 213.332 164.541 213.411 164.329C213.24 164.201 213.055 164.055 212.839 163.881C212.081 163.268 212.225 162.815 212.036 162.201C211.765 162.723 211.048 161.229 211.048 160.568C211.048 159.916 211.441 160.321 211.441 160.321C211.441 160.321 211.465 159.803 211.492 159.127C211.615 156.245 213.993 156 214.679 156C214.687 156 214.696 156 214.704 156C214.713 156 214.715 156 214.723 156H214.729C214.729 156 214.729 156 214.731 156C214.737 156 214.743 156 214.749 156C214.757 156 214.768 156 214.775 156C215.464 156 217.837 156.245 217.965 159.127C217.987 159.803 218.011 160.321 218.011 160.321C218.011 160.321 218.401 159.916 218.401 160.568C218.401 161.229 217.691 162.723 217.424 162.201C217.223 162.815 217.373 163.268 216.615 163.881C216.399 164.055 216.212 164.201 216.045 164.329C216.12 164.541 216.244 164.803 216.417 165.06L215.299 165.927L216.205 166.743L215.891 167.273L215.123 167.627L215.869 172.428L217.912 165.98C218.181 166.035 219.239 166.267 219.443 166.317C221.596 166.889 221.471 167.669 221.471 168.747C221.471 168.763 221.471 168.805 221.471 168.819C221.453 170.303 221.284 172.481 221.064 176.541V176.499C221.064 176.499 221.064 176.521 221.064 176.555C221.049 176.839 221.033 178.504 221.019 178.797C220.911 179.76 220.555 181.12 219.397 181.12C219.397 184.345 219.089 193.521 218.981 196.397H214.919L214.768 182.157H214.575L214.451 196.397H210.461C210.352 193.521 210.036 184.345 210.036 181.12C208.967 181.12 208.585 179.947 208.445 179.015C208.204 174.511 208.003 170.436 207.987 168.819C207.987 168.805 207.987 168.763 207.987 168.747C207.987 167.669 207.86 166.889 210.009 166.317Z" fill="url(#paint3_linear_50_136)"/>
<path d="M189.264 166.317C189.471 166.267 190.528 166.035 190.795 165.98L192.839 172.428L193.589 167.627L192.817 167.273L192.5 166.743L193.408 165.927L192.289 165.06C192.463 164.803 192.587 164.541 192.663 164.329C192.495 164.201 192.312 164.055 192.097 163.881C191.331 163.268 191.483 162.815 191.288 162.201C191.019 162.723 190.305 161.229 190.305 160.568C190.305 159.916 190.696 160.321 190.696 160.321C190.696 160.321 190.72 159.803 190.745 159.127C190.868 156.245 193.245 156 193.931 156C193.943 156 193.951 156 193.96 156C193.965 156 193.968 156 193.977 156H193.98C193.984 156 193.984 156 193.988 156C193.989 156 193.996 156 194.004 156C194.012 156 194.023 156 194.029 156C194.716 156 197.093 156.245 197.216 159.127C197.24 159.803 197.263 160.321 197.263 160.321C197.263 160.321 197.656 159.916 197.656 160.568C197.656 161.229 196.943 162.723 196.676 162.201C196.48 162.815 196.628 163.268 195.868 163.881C195.651 164.055 195.465 164.201 195.299 164.329C195.376 164.541 195.499 164.803 195.669 165.06L194.556 165.927L195.461 166.743L195.143 167.273L194.375 167.627L195.123 172.428L197.164 165.98C197.436 166.035 198.491 166.267 198.7 166.317C200.847 166.889 200.723 167.669 200.723 168.747C200.723 168.763 200.723 168.805 200.723 168.819C200.709 170.303 200.539 172.481 200.317 176.541V176.499C200.317 176.499 200.317 176.521 200.317 176.555C200.303 176.839 200.287 178.504 200.273 178.797C200.161 179.76 199.812 181.12 198.653 181.12C198.653 184.345 198.341 193.521 198.232 196.397H194.171L194.023 182.157H193.831L193.707 196.397H189.713C189.604 193.521 189.293 184.345 189.293 181.12C188.219 181.12 187.837 179.947 187.7 179.015C187.457 174.511 187.259 170.436 187.241 168.819C187.241 168.805 187.241 168.763 187.241 168.747C187.241 167.669 187.115 166.889 189.264 166.317Z" fill="url(#paint4_linear_50_136)"/>
<path d="M168.519 166.317C168.723 166.267 169.781 166.035 170.049 165.98L172.093 172.428L172.84 167.627L172.073 167.273L171.755 166.743L172.656 165.927L171.544 165.06C171.717 164.803 171.839 164.541 171.917 164.329C171.749 164.201 171.564 164.055 171.349 163.881C170.585 163.268 170.735 162.815 170.54 162.201C170.271 162.723 169.557 161.229 169.557 160.568C169.557 159.916 169.947 160.321 169.947 160.321C169.947 160.321 169.975 159.803 170 159.127C170.12 156.245 172.501 156 173.183 156C173.197 156 173.203 156 173.211 156C173.219 156 173.224 156 173.231 156H173.232C173.232 156 173.232 156 173.237 156C173.245 156 173.251 156 173.256 156C173.268 156 173.276 156 173.285 156C173.971 156 176.345 156.245 176.468 159.127C176.493 159.803 176.517 160.321 176.517 160.321C176.517 160.321 176.908 159.916 176.908 160.568C176.908 161.229 176.201 162.723 175.929 162.201C175.735 162.815 175.881 163.268 175.121 163.881C174.903 164.055 174.72 164.201 174.548 164.329C174.629 164.541 174.749 164.803 174.923 165.06L173.812 165.927L174.712 166.743L174.397 167.273L173.627 167.627L174.372 172.428L176.42 165.98C176.687 166.035 177.744 166.267 177.951 166.317C180.1 166.889 179.976 167.669 179.976 168.747C179.976 168.763 179.976 168.805 179.976 168.819C179.96 170.303 179.793 172.481 179.571 176.541V176.499C179.571 176.499 179.571 176.521 179.571 176.555C179.56 176.839 179.547 178.504 179.528 178.797C179.42 179.76 179.064 181.12 177.908 181.12C177.908 184.345 177.593 193.521 177.485 196.397H173.425L173.276 182.157H173.083L172.959 196.397H168.968C168.856 193.521 168.545 184.345 168.545 181.12C167.473 181.12 167.095 179.947 166.955 179.015C166.708 174.511 166.508 170.436 166.495 168.819C166.495 168.805 166.495 168.763 166.495 168.747C166.495 167.669 166.369 166.889 168.519 166.317Z" fill="url(#paint5_linear_50_136)"/>
<path d="M147.771 166.317C147.977 166.267 149.035 166.035 149.305 165.98L151.349 172.428L152.092 167.627L151.325 167.273L151.008 166.743L151.911 165.927L150.799 165.06C150.972 164.803 151.092 164.541 151.172 164.329C151.001 164.201 150.819 164.055 150.604 163.881C149.84 163.268 149.987 162.815 149.792 162.201C149.525 162.723 148.812 161.229 148.812 160.568C148.812 159.916 149.204 160.321 149.204 160.321C149.204 160.321 149.227 159.803 149.255 159.127C149.376 156.245 151.753 156 152.437 156C152.449 156 152.457 156 152.469 156C152.475 156 152.479 156 152.484 156H152.487C152.487 156 152.488 156 152.491 156C152.5 156 152.507 156 152.511 156C152.517 156 152.528 156 152.539 156C153.224 156 155.601 156.245 155.723 159.127C155.747 159.803 155.772 160.321 155.772 160.321C155.772 160.321 156.167 159.916 156.167 160.568C156.167 161.229 155.452 162.723 155.18 162.201C154.988 162.815 155.137 163.268 154.373 163.881C154.157 164.055 153.972 164.201 153.805 164.329C153.884 164.541 154.005 164.803 154.179 165.06L153.063 165.927L153.968 166.743L153.651 167.273L152.881 167.627L153.631 172.428L155.675 165.98C155.943 166.035 157 166.267 157.208 166.317C159.353 166.889 159.227 167.669 159.227 168.747C159.227 168.763 159.227 168.805 159.227 168.819C159.215 170.303 159.048 172.481 158.825 176.541V176.499C158.825 176.499 158.825 176.521 158.825 176.555C158.809 176.839 158.8 178.504 158.783 178.797C158.675 179.76 158.317 181.12 157.161 181.12C157.161 184.345 156.848 193.521 156.74 196.397H152.681L152.528 182.157H152.336L152.213 196.397H148.223C148.111 193.521 147.799 184.345 147.799 181.12C146.728 181.12 146.347 179.947 146.207 179.015C145.963 174.511 145.763 170.436 145.749 168.819C145.749 168.805 145.749 168.763 145.749 168.747C145.749 167.669 145.621 166.889 147.771 166.317Z" fill="url(#paint6_linear_50_136)"/>
<path d="M127.027 166.317C127.231 166.267 128.289 166.035 128.559 165.98L130.599 172.428L131.348 167.627L130.581 167.273L130.265 166.743L131.168 165.927L130.056 165.06C130.228 164.803 130.349 164.541 130.425 164.329C130.26 164.201 130.072 164.055 129.857 163.881C129.097 163.268 129.245 162.815 129.049 162.201C128.781 162.723 128.068 161.229 128.068 160.568C128.068 159.916 128.46 160.321 128.46 160.321C128.46 160.321 128.481 159.803 128.507 159.127C128.632 156.245 131.008 156 131.695 156C131.701 156 131.711 156 131.72 156C131.729 156 131.735 156 131.74 156C131.743 156 131.744 156 131.744 156C131.744 156 131.744 156 131.748 156C131.752 156 131.761 156 131.765 156C131.772 156 131.784 156 131.795 156C132.479 156 134.853 156.245 134.977 159.127C135.007 159.803 135.028 160.321 135.028 160.321C135.028 160.321 135.424 159.916 135.424 160.568C135.424 161.229 134.708 162.723 134.435 162.201C134.24 162.815 134.392 163.268 133.627 163.881C133.411 164.055 133.228 164.201 133.061 164.329C133.137 164.541 133.261 164.803 133.432 165.06L132.317 165.927L133.221 166.743L132.907 167.273L132.136 167.627L132.883 172.428L134.932 165.98C135.2 166.035 136.253 166.267 136.461 166.317C138.611 166.889 138.484 167.669 138.484 168.747C138.484 168.763 138.484 168.805 138.484 168.819C138.467 170.303 138.3 172.481 138.084 176.541V176.499C138.084 176.499 138.084 176.521 138.084 176.555C138.068 176.839 138.051 178.504 138.035 178.797C137.927 179.76 137.573 181.12 136.417 181.12C136.417 184.345 136.105 193.521 135.997 196.397H131.933L131.784 182.157H131.592L131.469 196.397H127.475C127.364 193.521 127.052 184.345 127.052 181.12C125.981 181.12 125.6 179.947 125.463 179.015C125.22 174.511 125.019 170.436 125.001 168.819C125.001 168.805 125.001 168.763 125.001 168.747C125.001 167.669 124.873 166.889 127.027 166.317Z" fill="url(#paint7_linear_50_136)"/>
<path d="M230.752 216.919C230.961 216.869 232.019 216.639 232.289 216.579L234.331 223.027L235.08 218.228L234.312 217.871L233.993 217.343L234.897 216.525L233.783 215.657C233.953 215.403 234.08 215.144 234.156 214.933C233.987 214.805 233.801 214.655 233.587 214.484C232.825 213.871 232.976 213.416 232.776 212.804C232.513 213.327 231.799 211.828 231.799 211.172C231.799 210.519 232.189 210.921 232.189 210.921C232.189 210.921 232.212 210.399 232.239 209.723C232.361 206.845 234.74 206.595 235.424 206.595C235.433 206.595 235.441 206.595 235.453 206.599C235.459 206.595 235.463 206.595 235.471 206.595C235.471 206.595 235.471 206.595 235.473 206.595C235.477 206.595 235.477 206.595 235.477 206.595C235.484 206.595 235.488 206.595 235.496 206.599C235.504 206.595 235.512 206.595 235.523 206.595C236.209 206.595 238.585 206.845 238.708 209.723C238.732 210.399 238.756 210.921 238.756 210.921C238.756 210.921 239.148 210.519 239.148 211.172C239.148 211.828 238.436 213.327 238.171 212.804C237.971 213.416 238.12 213.871 237.36 214.484C237.144 214.655 236.96 214.805 236.789 214.933C236.871 215.144 236.989 215.403 237.163 215.657L236.047 216.525L236.951 217.343L236.635 217.871L235.864 218.228L236.612 223.027L238.66 216.579C238.928 216.639 239.981 216.869 240.189 216.919C242.34 217.495 242.212 218.268 242.212 219.344C242.212 219.359 242.212 219.405 242.212 219.421C242.201 220.903 242.031 223.081 241.812 227.14V227.1C241.812 227.1 241.812 227.121 241.812 227.149C241.796 227.439 241.78 229.105 241.768 229.399C241.657 230.355 241.303 231.72 240.145 231.72C240.145 234.947 239.832 244.121 239.723 247.001H235.663L235.512 232.76H235.321L235.196 247.001H231.201C231.096 244.121 230.78 234.947 230.78 231.72C229.711 231.72 229.328 230.549 229.193 229.616C228.949 225.115 228.747 221.039 228.735 219.421C228.731 219.405 228.735 219.359 228.735 219.344C228.735 218.268 228.607 217.495 230.752 216.919Z" fill="url(#paint8_linear_50_136)"/>
<path d="M210.009 216.919C210.213 216.869 211.272 216.639 211.541 216.579L213.584 223.027L214.333 218.228L213.565 217.871L213.251 217.343L214.153 216.525L213.039 215.657C213.207 215.403 213.332 215.144 213.411 214.933C213.24 214.805 213.055 214.655 212.839 214.484C212.081 213.871 212.225 213.416 212.036 212.804C211.765 213.327 211.048 211.828 211.048 211.172C211.048 210.519 211.441 210.921 211.441 210.921C211.441 210.921 211.465 210.399 211.492 209.723C211.615 206.845 213.993 206.595 214.679 206.595C214.687 206.595 214.696 206.595 214.704 206.599C214.713 206.595 214.715 206.595 214.723 206.595H214.729C214.729 206.595 214.729 206.595 214.731 206.595C214.737 206.595 214.743 206.595 214.749 206.599C214.757 206.595 214.768 206.595 214.775 206.595C215.464 206.595 217.837 206.845 217.965 209.723C217.987 210.399 218.011 210.921 218.011 210.921C218.011 210.921 218.401 210.519 218.401 211.172C218.401 211.828 217.691 213.327 217.424 212.804C217.223 213.416 217.373 213.871 216.615 214.484C216.399 214.655 216.212 214.805 216.045 214.933C216.12 215.144 216.244 215.403 216.417 215.657L215.299 216.525L216.205 217.343L215.891 217.871L215.123 218.228L215.869 223.027L217.912 216.579C218.181 216.639 219.239 216.869 219.443 216.919C221.596 217.495 221.471 218.268 221.471 219.344C221.471 219.359 221.471 219.405 221.471 219.421C221.453 220.903 221.284 223.081 221.064 227.14V227.1C221.064 227.1 221.064 227.121 221.064 227.149C221.049 227.439 221.033 229.105 221.019 229.399C220.911 230.355 220.555 231.72 219.397 231.72C219.397 234.947 219.089 244.121 218.981 247.001H214.919L214.768 232.76H214.575L214.451 247.001H210.461C210.352 244.121 210.036 234.947 210.036 231.72C208.967 231.72 208.585 230.549 208.445 229.616C208.204 225.115 208.003 221.039 207.987 219.421C207.987 219.405 207.987 219.359 207.987 219.344C207.987 218.268 207.86 217.495 210.009 216.919Z" fill="url(#paint9_linear_50_136)"/>
<path d="M189.264 216.919C189.471 216.869 190.528 216.639 190.795 216.579L192.839 223.027L193.589 218.228L192.817 217.871L192.5 217.343L193.408 216.525L192.289 215.657C192.463 215.403 192.587 215.144 192.663 214.933C192.495 214.805 192.312 214.655 192.097 214.484C191.331 213.871 191.483 213.416 191.288 212.804C191.019 213.327 190.305 211.828 190.305 211.172C190.305 210.519 190.696 210.921 190.696 210.921C190.696 210.921 190.72 210.399 190.745 209.723C190.868 206.845 193.245 206.595 193.931 206.595C193.943 206.595 193.951 206.595 193.96 206.599C193.965 206.595 193.968 206.595 193.977 206.595H193.98C193.984 206.595 193.984 206.595 193.988 206.595C193.989 206.595 193.996 206.595 194.004 206.599C194.012 206.595 194.023 206.595 194.029 206.595C194.716 206.595 197.093 206.845 197.216 209.723C197.24 210.399 197.263 210.921 197.263 210.921C197.263 210.921 197.656 210.519 197.656 211.172C197.656 211.828 196.943 213.327 196.676 212.804C196.48 213.416 196.628 213.871 195.868 214.484C195.651 214.655 195.465 214.805 195.299 214.933C195.376 215.144 195.499 215.403 195.669 215.657L194.556 216.525L195.461 217.343L195.143 217.871L194.375 218.228L195.123 223.027L197.164 216.579C197.436 216.639 198.491 216.869 198.7 216.919C200.847 217.495 200.723 218.268 200.723 219.344C200.723 219.359 200.723 219.405 200.723 219.421C200.709 220.903 200.539 223.081 200.317 227.14V227.1C200.317 227.1 200.317 227.121 200.317 227.149C200.303 227.439 200.287 229.105 200.273 229.399C200.161 230.355 199.812 231.72 198.653 231.72C198.653 234.947 198.341 244.121 198.232 247.001H194.171L194.023 232.76H193.831L193.707 247.001H189.713C189.604 244.121 189.293 234.947 189.293 231.72C188.219 231.72 187.837 230.549 187.7 229.616C187.457 225.115 187.259 221.039 187.241 219.421C187.241 219.405 187.241 219.359 187.241 219.344C187.241 218.268 187.115 217.495 189.264 216.919Z" fill="url(#paint10_linear_50_136)"/>
<path d="M168.519 216.919C168.723 216.869 169.781 216.639 170.049 216.579L172.093 223.027L172.84 218.228L172.073 217.871L171.755 217.343L172.656 216.525L171.544 215.657C171.717 215.403 171.839 215.144 171.917 214.933C171.749 214.805 171.564 214.655 171.349 214.484C170.585 213.871 170.735 213.416 170.54 212.804C170.271 213.327 169.557 211.828 169.557 211.172C169.557 210.519 169.947 210.921 169.947 210.921C169.947 210.921 169.975 210.399 170 209.723C170.12 206.845 172.501 206.595 173.183 206.595C173.197 206.595 173.203 206.595 173.211 206.599C173.219 206.595 173.224 206.595 173.231 206.595H173.232C173.232 206.595 173.232 206.595 173.237 206.595C173.245 206.595 173.251 206.595 173.256 206.599C173.268 206.595 173.276 206.595 173.285 206.595C173.971 206.595 176.345 206.845 176.468 209.723C176.493 210.399 176.517 210.921 176.517 210.921C176.517 210.921 176.908 210.519 176.908 211.172C176.908 211.828 176.201 213.327 175.929 212.804C175.735 213.416 175.881 213.871 175.121 214.484C174.903 214.655 174.72 214.805 174.548 214.933C174.629 215.144 174.749 215.403 174.923 215.657L173.812 216.525L174.712 217.343L174.397 217.871L173.627 218.228L174.372 223.027L176.42 216.579C176.687 216.639 177.744 216.869 177.951 216.919C180.1 217.495 179.976 218.268 179.976 219.344C179.976 219.359 179.976 219.405 179.976 219.421C179.96 220.903 179.793 223.081 179.571 227.14V227.1C179.571 227.1 179.571 227.121 179.571 227.149C179.56 227.439 179.547 229.105 179.528 229.399C179.42 230.355 179.064 231.72 177.908 231.72C177.908 234.947 177.593 244.121 177.485 247.001H173.425L173.276 232.76H173.083L172.959 247.001H168.968C168.856 244.121 168.545 234.947 168.545 231.72C167.473 231.72 167.095 230.549 166.955 229.616C166.708 225.115 166.508 221.039 166.495 219.421C166.495 219.405 166.495 219.359 166.495 219.344C166.495 218.268 166.369 217.495 168.519 216.919Z" fill="url(#paint11_linear_50_136)"/>
<path d="M147.771 216.919C147.977 216.869 149.035 216.639 149.305 216.579L151.349 223.027L152.092 218.228L151.325 217.871L151.008 217.343L151.911 216.525L150.799 215.657C150.972 215.403 151.092 215.144 151.172 214.933C151.001 214.805 150.819 214.655 150.604 214.484C149.84 213.871 149.987 213.416 149.792 212.804C149.525 213.327 148.812 211.828 148.812 211.172C148.812 210.519 149.204 210.921 149.204 210.921C149.204 210.921 149.227 210.399 149.255 209.723C149.376 206.845 151.753 206.595 152.437 206.595C152.449 206.595 152.457 206.595 152.469 206.599C152.475 206.595 152.479 206.595 152.484 206.595H152.487C152.487 206.595 152.488 206.595 152.491 206.595C152.5 206.595 152.507 206.595 152.511 206.599C152.517 206.595 152.528 206.595 152.539 206.595C153.224 206.595 155.601 206.845 155.723 209.723C155.747 210.399 155.772 210.921 155.772 210.921C155.772 210.921 156.167 210.519 156.167 211.172C156.167 211.828 155.452 213.327 155.18 212.804C154.988 213.416 155.137 213.871 154.373 214.484C154.157 214.655 153.972 214.805 153.805 214.933C153.884 215.144 154.005 215.403 154.179 215.657L153.063 216.525L153.968 217.343L153.651 217.871L152.881 218.228L153.631 223.027L155.675 216.579C155.943 216.639 157 216.869 157.208 216.919C159.353 217.495 159.227 218.268 159.227 219.344C159.227 219.359 159.227 219.405 159.227 219.421C159.215 220.903 159.048 223.081 158.825 227.14V227.1C158.825 227.1 158.825 227.121 158.825 227.149C158.809 227.439 158.8 229.105 158.783 229.399C158.675 230.355 158.317 231.72 157.161 231.72C157.161 234.947 156.848 244.121 156.74 247.001H152.681L152.528 232.76H152.336L152.213 247.001H148.223C148.111 244.121 147.799 234.947 147.799 231.72C146.728 231.72 146.347 230.549 146.207 229.616C145.963 225.115 145.763 221.039 145.749 219.421C145.749 219.405 145.749 219.359 145.749 219.344C145.749 218.268 145.621 217.495 147.771 216.919Z" fill="url(#paint12_linear_50_136)"/>
<path d="M127.027 216.919C127.231 216.869 128.289 216.639 128.559 216.579L130.599 223.027L131.348 218.228L130.581 217.871L130.265 217.343L131.168 216.525L130.056 215.657C130.228 215.403 130.349 215.144 130.425 214.933C130.26 214.805 130.072 214.655 129.857 214.484C129.097 213.871 129.245 213.416 129.049 212.804C128.781 213.327 128.068 211.828 128.068 211.172C128.068 210.519 128.46 210.921 128.46 210.921C128.46 210.921 128.481 210.399 128.507 209.723C128.632 206.845 131.008 206.595 131.695 206.595C131.701 206.595 131.711 206.595 131.72 206.599C131.729 206.595 131.735 206.595 131.74 206.595C131.743 206.595 131.744 206.595 131.744 206.595C131.744 206.595 131.744 206.595 131.748 206.595C131.752 206.595 131.761 206.595 131.765 206.599C131.772 206.595 131.784 206.595 131.795 206.595C132.479 206.595 134.853 206.845 134.977 209.723C135.007 210.399 135.028 210.921 135.028 210.921C135.028 210.921 135.424 210.519 135.424 211.172C135.424 211.828 134.708 213.327 134.435 212.804C134.24 213.416 134.392 213.871 133.627 214.484C133.411 214.655 133.228 214.805 133.061 214.933C133.137 215.144 133.261 215.403 133.432 215.657L132.317 216.525L133.221 217.343L132.907 217.871L132.136 218.228L132.883 223.027L134.932 216.579C135.2 216.639 136.253 216.869 136.461 216.919C138.611 217.495 138.484 218.268 138.484 219.344C138.484 219.359 138.484 219.405 138.484 219.421C138.467 220.903 138.3 223.081 138.084 227.14V227.1C138.084 227.1 138.084 227.121 138.084 227.149C138.068 227.439 138.051 229.105 138.035 229.399C137.927 230.355 137.573 231.72 136.417 231.72C136.417 234.947 136.105 244.121 135.997 247.001H131.933L131.784 232.76H131.592L131.469 247.001H127.475C127.364 244.121 127.052 234.947 127.052 231.72C125.981 231.72 125.6 230.549 125.463 229.616C125.22 225.115 125.019 221.039 125.001 219.421C125.001 219.405 125.001 219.359 125.001 219.344C125.001 218.268 124.873 217.495 127.027 216.919Z" fill="url(#paint13_linear_50_136)"/>
<path d="M230.226 10.3173C230.435 10.2666 231.492 10.0346 231.763 9.9799L233.804 16.4279L234.554 11.6266L233.786 11.2733L233.467 10.7426L234.371 9.92658L233.256 9.05991C233.427 8.80258 233.554 8.54125 233.63 8.32925C233.46 8.20125 233.275 8.0546 233.06 7.88126C232.299 7.26793 232.45 6.81458 232.25 6.20125C231.987 6.72258 231.272 5.22925 231.272 4.56792C231.272 3.91592 231.663 4.32124 231.663 4.32124C231.663 4.32124 231.686 3.80258 231.712 3.12658C231.835 0.245243 234.214 -0.000116039 234.898 -0.000116039C234.907 -0.000116039 234.915 -0.000116039 234.927 -0.000116039C234.932 -0.000116039 234.936 -0.000116039 234.944 -0.000116039C234.944 -0.000116039 234.944 -0.000116039 234.947 -0.000116039C234.951 -0.000116039 234.951 -0.000116039 234.951 -0.000116039C234.958 -0.000116039 234.962 -0.000116039 234.97 -0.000116039C234.978 -0.000116039 234.986 -0.000116039 234.996 -0.000116039C235.683 -0.000116039 238.059 0.245243 238.182 3.12658C238.206 3.80258 238.23 4.32124 238.23 4.32124C238.23 4.32124 238.622 3.91592 238.622 4.56792C238.622 5.22925 237.91 6.72258 237.644 6.20125C237.444 6.81458 237.594 7.26793 236.834 7.88126C236.618 8.0546 236.434 8.20125 236.263 8.32925C236.344 8.54125 236.463 8.80258 236.636 9.05991L235.52 9.92658L236.424 10.7426L236.108 11.2733L235.338 11.6266L236.086 16.4279L238.134 9.9799C238.402 10.0346 239.455 10.2666 239.663 10.3173C241.814 10.8893 241.686 11.6692 241.686 12.7466C241.686 12.7626 241.686 12.8052 241.686 12.8186C241.675 14.3026 241.504 16.4812 241.286 20.5412V20.4986C241.286 20.4986 241.286 20.5212 241.286 20.5546C241.27 20.8386 241.254 22.5039 241.242 22.7972C241.131 23.7599 240.776 25.1199 239.619 25.1199C239.619 28.3453 239.306 37.5212 239.196 40.3972H235.136L234.986 26.1572H234.795L234.67 40.3972H230.675C230.57 37.5212 230.254 28.3453 230.254 25.1199C229.184 25.1199 228.802 23.9466 228.667 23.0146C228.423 18.5106 228.22 14.4359 228.208 12.8186C228.204 12.8052 228.208 12.7626 228.208 12.7466C228.208 11.6692 228.08 10.8893 230.226 10.3173Z" fill="url(#paint14_linear_50_136)"/>
<path d="M209.483 10.3173C209.687 10.2666 210.746 10.0346 211.015 9.9799L213.058 16.4279L213.807 11.6266L213.039 11.2733L212.724 10.7426L213.627 9.92658L212.512 9.05991C212.68 8.80258 212.806 8.54125 212.884 8.32925C212.714 8.20125 212.528 8.0546 212.312 7.88126C211.555 7.26793 211.699 6.81458 211.51 6.20125C211.239 6.72258 210.522 5.22925 210.522 4.56792C210.522 3.91592 210.915 4.32124 210.915 4.32124C210.915 4.32124 210.939 3.80258 210.966 3.12658C211.088 0.245243 213.467 -0.000116039 214.152 -0.000116039C214.16 -0.000116039 214.17 -0.000116039 214.178 -0.000116039C214.187 -0.000116039 214.188 -0.000116039 214.196 -0.000116039H214.203C214.203 -0.000116039 214.203 -0.000116039 214.204 -0.000116039C214.211 -0.000116039 214.216 -0.000116039 214.223 -0.000116039C214.231 -0.000116039 214.242 -0.000116039 214.248 -0.000116039C214.938 -0.000116039 217.311 0.245243 217.439 3.12658C217.46 3.80258 217.484 4.32124 217.484 4.32124C217.484 4.32124 217.875 3.91592 217.875 4.56792C217.875 5.22925 217.164 6.72258 216.898 6.20125C216.696 6.81458 216.847 7.26793 216.088 7.88126C215.872 8.0546 215.686 8.20125 215.519 8.32925C215.594 8.54125 215.718 8.80258 215.891 9.05991L214.772 9.92658L215.679 10.7426L215.364 11.2733L214.596 11.6266L215.343 16.4279L217.386 9.9799C217.655 10.0346 218.712 10.2666 218.916 10.3173C221.07 10.8893 220.944 11.6692 220.944 12.7466C220.944 12.7626 220.944 12.8052 220.944 12.8186C220.927 14.3026 220.758 16.4812 220.538 20.5412V20.4986C220.538 20.4986 220.538 20.5212 220.538 20.5546C220.523 20.8386 220.507 22.5039 220.492 22.7972C220.384 23.7599 220.028 25.1199 218.871 25.1199C218.871 28.3453 218.563 37.5212 218.455 40.3972H214.392L214.242 26.1572H214.048L213.924 40.3972H209.935C209.826 37.5212 209.51 28.3453 209.51 25.1199C208.44 25.1199 208.059 23.9466 207.919 23.0146C207.678 18.5106 207.476 14.4359 207.46 12.8186C207.46 12.8052 207.46 12.7626 207.46 12.7466C207.46 11.6692 207.334 10.8893 209.483 10.3173Z" fill="url(#paint15_linear_50_136)"/>
<path d="M188.738 10.3173C188.945 10.2666 190.002 10.0346 190.269 9.9799L192.313 16.4279L193.063 11.6266L192.291 11.2733L191.974 10.7426L192.882 9.92658L191.763 9.05991C191.937 8.80258 192.061 8.54125 192.137 8.32925C191.969 8.20125 191.786 8.0546 191.571 7.88126C190.805 7.26793 190.956 6.81458 190.762 6.20125C190.492 6.72258 189.779 5.22925 189.779 4.56792C189.779 3.91592 190.17 4.32124 190.17 4.32124C190.17 4.32124 190.194 3.80258 190.219 3.12658C190.342 0.245243 192.719 -0.000116039 193.405 -0.000116039C193.417 -0.000116039 193.425 -0.000116039 193.434 -0.000116039C193.439 -0.000116039 193.442 -0.000116039 193.451 -0.000116039H193.454C193.458 -0.000116039 193.458 -0.000116039 193.462 -0.000116039C193.463 -0.000116039 193.47 -0.000116039 193.478 -0.000116039C193.486 -0.000116039 193.497 -0.000116039 193.503 -0.000116039C194.19 -0.000116039 196.567 0.245243 196.69 3.12658C196.714 3.80258 196.737 4.32124 196.737 4.32124C196.737 4.32124 197.13 3.91592 197.13 4.56792C197.13 5.22925 196.416 6.72258 196.15 6.20125C195.954 6.81458 196.102 7.26793 195.342 7.88126C195.125 8.0546 194.939 8.20125 194.773 8.32925C194.85 8.54125 194.973 8.80258 195.143 9.05991L194.03 9.92658L194.935 10.7426L194.616 11.2733L193.848 11.6266L194.597 16.4279L196.638 9.9799C196.91 10.0346 197.965 10.2666 198.174 10.3173C200.321 10.8893 200.197 11.6692 200.197 12.7466C200.197 12.7626 200.197 12.8052 200.197 12.8186C200.183 14.3026 200.012 16.4812 199.791 20.5412V20.4986C199.791 20.4986 199.791 20.5212 199.791 20.5546C199.776 20.8386 199.76 22.5039 199.747 22.7972C199.635 23.7599 199.286 25.1199 198.127 25.1199C198.127 28.3453 197.815 37.5212 197.706 40.3972H193.645L193.497 26.1572H193.305L193.18 40.3972H189.187C189.078 37.5212 188.767 28.3453 188.767 25.1199C187.693 25.1199 187.311 23.9466 187.174 23.0146C186.931 18.5106 186.732 14.4359 186.715 12.8186C186.715 12.8052 186.715 12.7626 186.715 12.7466C186.715 11.6692 186.589 10.8893 188.738 10.3173Z" fill="url(#paint16_linear_50_136)"/>
<path d="M167.993 10.3173C168.197 10.2666 169.255 10.0346 169.523 9.9799L171.567 16.4279L172.314 11.6266L171.547 11.2733L171.229 10.7426L172.13 9.92658L171.018 9.05991C171.191 8.80258 171.313 8.54125 171.391 8.32925C171.223 8.20125 171.038 8.0546 170.823 7.88126C170.059 7.26793 170.209 6.81458 170.014 6.20125C169.745 6.72258 169.031 5.22925 169.031 4.56792C169.031 3.91592 169.421 4.32124 169.421 4.32124C169.421 4.32124 169.449 3.80258 169.474 3.12658C169.594 0.245243 171.975 -0.000116039 172.657 -0.000116039C172.671 -0.000116039 172.677 -0.000116039 172.685 -0.000116039C172.693 -0.000116039 172.698 -0.000116039 172.705 -0.000116039H172.706C172.706 -0.000116039 172.706 -0.000116039 172.711 -0.000116039C172.719 -0.000116039 172.725 -0.000116039 172.73 -0.000116039C172.742 -0.000116039 172.75 -0.000116039 172.759 -0.000116039C173.445 -0.000116039 175.819 0.245243 175.942 3.12658C175.967 3.80258 175.991 4.32124 175.991 4.32124C175.991 4.32124 176.382 3.91592 176.382 4.56792C176.382 5.22925 175.675 6.72258 175.403 6.20125C175.209 6.81458 175.355 7.26793 174.595 7.88126C174.377 8.0546 174.194 8.20125 174.022 8.32925C174.103 8.54125 174.223 8.80258 174.397 9.05991L173.286 9.92658L174.186 10.7426L173.871 11.2733L173.101 11.6266L173.846 16.4279L175.894 9.9799C176.161 10.0346 177.218 10.2666 177.425 10.3173C179.574 10.8893 179.45 11.6692 179.45 12.7466C179.45 12.7626 179.45 12.8052 179.45 12.8186C179.434 14.3026 179.267 16.4812 179.045 20.5412V20.4986C179.045 20.4986 179.045 20.5212 179.045 20.5546C179.034 20.8386 179.021 22.5039 179.002 22.7972C178.894 23.7599 178.538 25.1199 177.382 25.1199C177.382 28.3453 177.067 37.5212 176.959 40.3972H172.899L172.75 26.1572H172.557L172.433 40.3972H168.442C168.33 37.5212 168.019 28.3453 168.019 25.1199C166.947 25.1199 166.569 23.9466 166.429 23.0146C166.182 18.5106 165.982 14.4359 165.969 12.8186C165.969 12.8052 165.969 12.7626 165.969 12.7466C165.969 11.6692 165.843 10.8893 167.993 10.3173Z" fill="url(#paint17_linear_50_136)"/>
<path d="M147.244 10.3173C147.451 10.2666 148.508 10.0346 148.779 9.9799L150.823 16.4279L151.566 11.6266L150.799 11.2733L150.482 10.7426L151.384 9.92658L150.272 9.05991C150.446 8.80258 150.566 8.54125 150.646 8.32925C150.475 8.20125 150.292 8.0546 150.078 7.88126C149.314 7.26793 149.46 6.81458 149.266 6.20125C148.999 6.72258 148.286 5.22925 148.286 4.56792C148.286 3.91592 148.678 4.32124 148.678 4.32124C148.678 4.32124 148.7 3.80258 148.728 3.12658C148.85 0.245243 151.227 -0.000116039 151.911 -0.000116039C151.923 -0.000116039 151.931 -0.000116039 151.943 -0.000116039C151.948 -0.000116039 151.952 -0.000116039 151.958 -0.000116039H151.96C151.96 -0.000116039 151.962 -0.000116039 151.964 -0.000116039C151.974 -0.000116039 151.98 -0.000116039 151.984 -0.000116039C151.991 -0.000116039 152.002 -0.000116039 152.012 -0.000116039C152.698 -0.000116039 155.075 0.245243 155.196 3.12658C155.22 3.80258 155.246 4.32124 155.246 4.32124C155.246 4.32124 155.64 3.91592 155.64 4.56792C155.64 5.22925 154.926 6.72258 154.654 6.20125C154.462 6.81458 154.611 7.26793 153.847 7.88126C153.631 8.0546 153.446 8.20125 153.279 8.32925C153.358 8.54125 153.479 8.80258 153.652 9.05991L152.536 9.92658L153.442 10.7426L153.124 11.2733L152.355 11.6266L153.104 16.4279L155.148 9.9799C155.416 10.0346 156.474 10.2666 156.682 10.3173C158.827 10.8893 158.7 11.6692 158.7 12.7466C158.7 12.7626 158.7 12.8052 158.7 12.8186C158.688 14.3026 158.522 16.4812 158.299 20.5412V20.4986C158.299 20.4986 158.299 20.5212 158.299 20.5546C158.283 20.8386 158.274 22.5039 158.256 22.7972C158.148 23.7599 157.791 25.1199 156.635 25.1199C156.635 28.3453 156.322 37.5212 156.214 40.3972H152.155L152.002 26.1572H151.81L151.687 40.3972H147.696C147.584 37.5212 147.272 28.3453 147.272 25.1199C146.202 25.1199 145.82 23.9466 145.68 23.0146C145.436 18.5106 145.236 14.4359 145.223 12.8186C145.223 12.8052 145.223 12.7626 145.223 12.7466C145.223 11.6692 145.095 10.8893 147.244 10.3173Z" fill="url(#paint18_linear_50_136)"/>
<path d="M126.501 10.3173C126.705 10.2666 127.763 10.0346 128.033 9.9799L130.073 16.4279L130.822 11.6266L130.055 11.2733L129.739 10.7426L130.642 9.92658L129.53 9.05991C129.702 8.80258 129.823 8.54125 129.899 8.32925C129.734 8.20125 129.546 8.0546 129.331 7.88126C128.571 7.26793 128.719 6.81458 128.523 6.20125C128.255 6.72258 127.542 5.22925 127.542 4.56792C127.542 3.91592 127.934 4.32124 127.934 4.32124C127.934 4.32124 127.955 3.80258 127.981 3.12658C128.106 0.245243 130.482 -0.000116039 131.169 -0.000116039C131.175 -0.000116039 131.185 -0.000116039 131.194 -0.000116039C131.203 -0.000116039 131.209 -0.000116039 131.214 -0.000116039C131.217 -0.000116039 131.218 -0.000116039 131.218 -0.000116039C131.218 -0.000116039 131.218 -0.000116039 131.222 -0.000116039C131.226 -0.000116039 131.235 -0.000116039 131.239 -0.000116039C131.246 -0.000116039 131.258 -0.000116039 131.269 -0.000116039C131.953 -0.000116039 134.327 0.245243 134.451 3.12658C134.481 3.80258 134.502 4.32124 134.502 4.32124C134.502 4.32124 134.898 3.91592 134.898 4.56792C134.898 5.22925 134.182 6.72258 133.909 6.20125C133.714 6.81458 133.866 7.26793 133.101 7.88126C132.885 8.0546 132.702 8.20125 132.535 8.32925C132.611 8.54125 132.735 8.80258 132.906 9.05991L131.791 9.92658L132.695 10.7426L132.381 11.2733L131.61 11.6266L132.357 16.4279L134.406 9.9799C134.674 10.0346 135.727 10.2666 135.935 10.3173C138.085 10.8893 137.958 11.6692 137.958 12.7466C137.958 12.7626 137.958 12.8052 137.958 12.8186C137.941 14.3026 137.774 16.4812 137.558 20.5412V20.4986C137.558 20.4986 137.558 20.5212 137.558 20.5546C137.542 20.8386 137.525 22.5039 137.509 22.7972C137.401 23.7599 137.047 25.1199 135.891 25.1199C135.891 28.3453 135.579 37.5212 135.471 40.3972H131.407L131.258 26.1572H131.066L130.943 40.3972H126.949C126.838 37.5212 126.526 28.3453 126.526 25.1199C125.455 25.1199 125.074 23.9466 124.937 23.0146C124.694 18.5106 124.493 14.4359 124.475 12.8186C124.475 12.8052 124.475 12.7626 124.475 12.7466C124.475 11.6692 124.347 10.8893 126.501 10.3173Z" fill="url(#paint19_linear_50_136)"/>
<path d="M105.758 10.3173C105.959 10.2666 107.016 10.0346 107.286 9.9799L109.331 16.4279L110.078 11.6266L109.308 11.2733L108.995 10.7426L109.896 9.92658L108.782 9.05991C108.955 8.80258 109.075 8.54125 109.155 8.32925C108.984 8.20125 108.802 8.0546 108.58 7.88126C107.824 7.26793 107.972 6.81458 107.778 6.20125C107.508 6.72258 106.796 5.22925 106.796 4.56792C106.796 3.91592 107.186 4.32124 107.186 4.32124C107.186 4.32124 107.21 3.80258 107.235 3.12658C107.36 0.245243 109.735 -0.000116039 110.424 -0.000116039C110.432 -0.000116039 110.44 -0.000116039 110.45 -0.000116039C110.456 -0.000116039 110.462 -0.000116039 110.467 -0.000116039H110.47C110.472 -0.000116039 110.472 -0.000116039 110.476 -0.000116039C110.478 -0.000116039 110.487 -0.000116039 110.494 -0.000116039C110.502 -0.000116039 110.512 -0.000116039 110.52 -0.000116039C111.207 -0.000116039 113.584 0.245243 113.707 3.12658C113.73 3.80258 113.755 4.32124 113.755 4.32124C113.755 4.32124 114.146 3.91592 114.146 4.56792C114.146 5.22925 113.434 6.72258 113.166 6.20125C112.966 6.81458 113.122 7.26793 112.359 7.88126C112.139 8.0546 111.958 8.20125 111.788 8.32925C111.867 8.54125 111.988 8.80258 112.159 9.05991L111.044 9.92658L111.952 10.7426L111.635 11.2733L110.863 11.6266L111.612 16.4279L113.658 9.9799C113.924 10.0346 114.983 10.2666 115.187 10.3173C117.336 10.8893 117.212 11.6692 117.212 12.7466C117.212 12.7626 117.212 12.8052 117.212 12.8186C117.195 14.3026 117.027 16.4812 116.806 20.5412V20.4986C116.806 20.4986 116.806 20.5212 116.806 20.5546C116.794 20.8386 116.78 22.5039 116.763 22.7972C116.655 23.7599 116.302 25.1199 115.144 25.1199C115.144 28.3453 114.832 37.5212 114.723 40.3972H110.66L110.512 26.1572H110.32L110.194 40.3972H106.2C106.094 37.5212 105.782 28.3453 105.782 25.1199C104.708 25.1199 104.327 23.9466 104.191 23.0146C103.95 18.5106 103.746 14.4359 103.732 12.8186C103.731 12.8052 103.732 12.7626 103.732 12.7466C103.732 11.6692 103.6 10.8893 105.758 10.3173Z" fill="url(#paint20_linear_50_136)"/>
<path d="M85.0058 10.3173C85.2111 10.2666 86.2725 10.0346 86.5378 9.9799L88.5845 16.4279L89.3338 11.6266L88.5645 11.2733L88.2471 10.7426L89.1511 9.92658L88.0365 9.05991C88.2058 8.80258 88.3311 8.54125 88.4098 8.32925C88.2378 8.20125 88.0525 8.0546 87.8391 7.88126C87.0751 7.26793 87.2271 6.81458 87.0285 6.20125C86.7605 6.72258 86.0484 5.22925 86.0484 4.56792C86.0484 3.91592 86.4405 4.32124 86.4405 4.32124C86.4405 4.32124 86.4645 3.80258 86.4898 3.12658C86.6111 0.245243 88.9885 -0.000116039 89.6725 -0.000116039C89.6845 -0.000116039 89.6898 -0.000116039 89.7031 -0.000116039C89.7125 -0.000116039 89.7165 -0.000116039 89.7218 -0.000116039H89.7245C89.7271 -0.000116039 89.7271 -0.000116039 89.7271 -0.000116039C89.7338 -0.000116039 89.7418 -0.000116039 89.7458 -0.000116039C89.7578 -0.000116039 89.7645 -0.000116039 89.7738 -0.000116039C90.4591 -0.000116039 92.8351 0.245243 92.9591 3.12658C92.9845 3.80258 93.0071 4.32124 93.0071 4.32124C93.0071 4.32124 93.3991 3.91592 93.3991 4.56792C93.3991 5.22925 92.6871 6.72258 92.4205 6.20125C92.2231 6.81458 92.3725 7.26793 91.6098 7.88126C91.3938 8.0546 91.2098 8.20125 91.0405 8.32925C91.1178 8.54125 91.2418 8.80258 91.4098 9.05991L90.2978 9.92658L91.2045 10.7426L90.8845 11.2733L90.1164 11.6266L90.8671 16.4279L92.9098 9.9799C93.1791 10.0346 94.2325 10.2666 94.4405 10.3173C96.5898 10.8893 96.4658 11.6692 96.4658 12.7466C96.4658 12.7626 96.4658 12.8052 96.4658 12.8186C96.4511 14.3026 96.2818 16.4812 96.0591 20.5412V20.4986C96.0591 20.4986 96.0591 20.5212 96.0591 20.5546C96.0485 20.8386 96.0311 22.5039 96.0178 22.7972C95.9085 23.7599 95.5551 25.1199 94.3978 25.1199C94.3978 28.3453 94.0858 37.5212 93.9751 40.3972H89.9138L89.7645 26.1572H89.5738L89.4498 40.3972H85.4578C85.3471 37.5212 85.0338 28.3453 85.0338 25.1199C83.9631 25.1199 83.5831 23.9466 83.4445 23.0146C83.1991 18.5106 83.0005 14.4359 82.9858 12.8186C82.9831 12.8052 82.9858 12.7626 82.9858 12.7466C82.9858 11.6692 82.8591 10.8893 85.0058 10.3173Z" fill="url(#paint21_linear_50_136)"/>
<path d="M64.2631 10.3173C64.4685 10.2666 65.5271 10.0346 65.7925 9.9799L67.8405 16.4279L68.5871 11.6266L67.8151 11.2733L67.4991 10.7426L68.4045 9.92658L67.2911 9.05991C67.4591 8.80258 67.5845 8.54125 67.6645 8.32925C67.4951 8.20125 67.3098 8.0546 67.0951 7.88126C66.3311 7.26793 66.4818 6.81458 66.2818 6.20125C66.0165 6.72258 65.3005 5.22925 65.3005 4.56792C65.3005 3.91592 65.6938 4.32124 65.6938 4.32124C65.6938 4.32124 65.7178 3.80258 65.7445 3.12658C65.8658 0.245243 68.2458 -0.000116039 68.9298 -0.000116039C68.9418 -0.000116039 68.9485 -0.000116039 68.9551 -0.000116039C68.9631 -0.000116039 68.9712 -0.000116039 68.9752 -0.000116039H68.9792C68.9792 -0.000116039 68.9791 -0.000116039 68.9831 -0.000116039C68.9885 -0.000116039 68.9938 -0.000116039 69.0005 -0.000116039C69.0111 -0.000116039 69.0178 -0.000116039 69.0298 -0.000116039C69.7138 -0.000116039 72.0911 0.245243 72.2138 3.12658C72.2378 3.80258 72.2605 4.32124 72.2605 4.32124C72.2605 4.32124 72.6551 3.91592 72.6551 4.56792C72.6551 5.22925 71.9418 6.72258 71.6738 6.20125C71.4778 6.81458 71.6258 7.26793 70.8685 7.88126C70.6511 8.0546 70.4658 8.20125 70.2951 8.32925C70.3751 8.54125 70.4938 8.80258 70.6698 9.05991L69.5551 9.92658L70.4578 10.7426L70.1405 11.2733L69.3725 11.6266L70.1218 16.4279L72.1658 9.9799C72.4351 10.0346 73.4898 10.2666 73.6938 10.3173C75.8471 10.8893 75.7178 11.6692 75.7178 12.7466C75.7178 12.7626 75.7178 12.8052 75.7178 12.8186C75.7058 14.3026 75.5378 16.4812 75.3191 20.5412V20.4986C75.3191 20.4986 75.3191 20.5212 75.3191 20.5546C75.3018 20.8386 75.2858 22.5039 75.2725 22.7972C75.1618 23.7599 74.8071 25.1199 73.6498 25.1199C73.6498 28.3453 73.3378 37.5212 73.2311 40.3972H69.1711L69.0178 26.1572H68.8258L68.7031 40.3972H64.7138C64.6018 37.5212 64.2911 28.3453 64.2911 25.1199C63.2178 25.1199 62.8378 23.9466 62.6991 23.0146C62.4551 18.5106 62.2525 14.4359 62.2365 12.8186C62.2351 12.8052 62.2365 12.7626 62.2365 12.7466C62.2365 11.6692 62.1151 10.8893 64.2631 10.3173Z" fill="url(#paint22_linear_50_136)"/>
<path d="M43.515 10.3173C43.7204 10.2666 44.7804 10.0346 45.0457 9.9799L47.0897 16.4279L47.8377 11.6266L47.071 11.2733L46.7537 10.7426L47.659 9.92658L46.5417 9.05991C46.715 8.80258 46.8364 8.54125 46.9164 8.32925C46.7457 8.20125 46.563 8.0546 46.3457 7.88126C45.5857 7.26793 45.735 6.81458 45.5377 6.20125C45.2697 6.72258 44.555 5.22925 44.555 4.56792C44.555 3.91592 44.9484 4.32124 44.9484 4.32124C44.9484 4.32124 44.9724 3.80258 44.9977 3.12658C45.1177 0.245243 47.4977 -0.000116039 48.183 -0.000116039C48.191 -0.000116039 48.2017 -0.000116039 48.2097 -0.000116039C48.2164 -0.000116039 48.223 -0.000116039 48.2297 -0.000116039C48.2297 -0.000116039 48.2324 -0.000116039 48.2337 -0.000116039C48.2337 -0.000116039 48.2337 -0.000116039 48.235 -0.000116039C48.243 -0.000116039 48.2497 -0.000116039 48.2537 -0.000116039C48.2644 -0.000116039 48.2724 -0.000116039 48.2817 -0.000116039C48.967 -0.000116039 51.3444 0.245243 51.467 3.12658C51.4937 3.80258 51.519 4.32124 51.519 4.32124C51.519 4.32124 51.9097 3.91592 51.9097 4.56792C51.9097 5.22925 51.1937 6.72258 50.927 6.20125C50.731 6.81458 50.879 7.26793 50.1177 7.88126C49.9017 8.0546 49.715 8.20125 49.5497 8.32925C49.6284 8.54125 49.7497 8.80258 49.9177 9.05991L48.807 9.92658L49.7084 10.7426L49.3977 11.2733L48.627 11.6266L49.3724 16.4279L51.4177 9.9799C51.6884 10.0346 52.7417 10.2666 52.9484 10.3173C55.1004 10.8893 54.9737 11.6692 54.9737 12.7466C54.9737 12.7626 54.9737 12.8052 54.9737 12.8186C54.9577 14.3026 54.7897 16.4812 54.5697 20.5412V20.4986C54.5697 20.4986 54.5697 20.5212 54.5697 20.5546C54.5564 20.8386 54.5404 22.5039 54.5257 22.7972C54.415 23.7599 54.0604 25.1199 52.9057 25.1199C52.9057 28.3453 52.595 37.5212 52.4857 40.3972H48.4257L48.2724 26.1572H48.079L47.9564 40.3972H43.9644C43.855 37.5212 43.5417 28.3453 43.5417 25.1199C42.471 25.1199 42.091 23.9466 41.951 23.0146C41.707 18.5106 41.5084 14.4359 41.4897 12.8186C41.4897 12.8052 41.4897 12.7626 41.4897 12.7466C41.4897 11.6692 41.367 10.8893 43.515 10.3173Z" fill="url(#paint23_linear_50_136)"/>
<path d="M22.7699 10.3173C22.9765 10.2666 24.0339 10.0346 24.3019 9.9799L26.3419 16.4279L27.0952 11.6266L26.3259 11.2733L26.0085 10.7426L26.9112 9.92658L25.7979 9.05991C25.9725 8.80258 26.0912 8.54125 26.1699 8.32925C26.0005 8.20125 25.8179 8.0546 25.6005 7.88126C24.8379 7.26793 24.9872 6.81458 24.7912 6.20125C24.5219 6.72258 23.8112 5.22925 23.8112 4.56792C23.8112 3.91592 24.2032 4.32124 24.2032 4.32124C24.2032 4.32124 24.2298 3.80258 24.2525 3.12658C24.3738 0.245243 26.7499 -0.000116039 27.4352 -0.000116039C27.4485 -0.000116039 27.4552 -0.000116039 27.4645 -0.000116039C27.4712 -0.000116039 27.4765 -0.000116039 27.4832 -0.000116039C27.4832 -0.000116039 27.4858 -0.000116039 27.4885 -0.000116039C27.4885 -0.000116039 27.4885 -0.000116039 27.4925 -0.000116039C27.4965 -0.000116039 27.5059 -0.000116039 27.5099 -0.000116039C27.5152 -0.000116039 27.5285 -0.000116039 27.5379 -0.000116039C28.2205 -0.000116039 30.6005 0.245243 30.7218 3.12658C30.7472 3.80258 30.7712 4.32124 30.7712 4.32124C30.7712 4.32124 31.1632 3.91592 31.1632 4.56792C31.1632 5.22925 30.4472 6.72258 30.1805 6.20125C29.9832 6.81458 30.1352 7.26793 29.3725 7.88126C29.1539 8.0546 28.9699 8.20125 28.8032 8.32925C28.8819 8.54125 29.0045 8.80258 29.1779 9.05991L28.0619 9.92658L28.9672 10.7426L28.6485 11.2733L27.8779 11.6266L28.6259 16.4279L30.6725 9.9799C30.9432 10.0346 31.9952 10.2666 32.2045 10.3173C34.3539 10.8893 34.2285 11.6692 34.2285 12.7466C34.2285 12.7626 34.2285 12.8052 34.2285 12.8186C34.2125 14.3026 34.0432 16.4812 33.8245 20.5412V20.4986C33.8245 20.4986 33.8245 20.5212 33.8245 20.5546C33.8085 20.8386 33.7952 22.5039 33.7752 22.7972C33.6699 23.7599 33.3112 25.1199 32.1619 25.1199C32.1619 28.3453 31.8472 37.5212 31.7405 40.3972H27.6779L27.5285 26.1572H27.3352L27.2112 40.3972H23.2165C23.1085 37.5212 22.7965 28.3453 22.7965 25.1199C21.7259 25.1199 21.3432 23.9466 21.2085 23.0146C20.9632 18.5106 20.7618 14.4359 20.7472 12.8186C20.7472 12.8052 20.7472 12.7626 20.7472 12.7466C20.7472 11.6692 20.6192 10.8893 22.7699 10.3173Z" fill="url(#paint24_linear_50_136)"/>
<path d="M2.02176 10.3173C2.2311 10.2666 3.28576 10.0346 3.5551 9.9799L5.59644 16.4279L6.34579 11.6266L5.58042 11.2733L5.26044 10.7426L6.16177 9.92658L5.04976 9.05991C5.22043 8.80258 5.3471 8.54125 5.4231 8.32925C5.25377 8.20125 5.06976 8.0546 4.85376 7.88126C4.09376 7.26793 4.24179 6.81458 4.04579 6.20125C3.77645 6.72258 3.06311 5.22925 3.06311 4.56792C3.06311 3.91592 3.45643 4.32124 3.45643 4.32124C3.45643 4.32124 3.48045 3.80258 3.50712 3.12658C3.62712 0.245243 6.00443 -0.000116039 6.6911 -0.000116039C6.70043 -0.000116039 6.70843 -0.000116039 6.71643 -0.000116039C6.72576 -0.000116039 6.73378 -0.000116039 6.73511 -0.000116039C6.73778 -0.000116039 6.73778 -0.000116039 6.74178 -0.000116039C6.74178 -0.000116039 6.74179 -0.000116039 6.74312 -0.000116039C6.74979 -0.000116039 6.7551 -0.000116039 6.76177 -0.000116039C6.76977 -0.000116039 6.78177 -0.000116039 6.78977 -0.000116039C7.47643 -0.000116039 9.84978 0.245243 9.97378 3.12658C10.0018 3.80258 10.0204 4.32124 10.0204 4.32124C10.0204 4.32124 10.4138 3.91592 10.4138 4.56792C10.4138 5.22925 9.70444 6.72258 9.43511 6.20125C9.23911 6.81458 9.3871 7.26793 8.62577 7.88126C8.40844 8.0546 8.22576 8.20125 8.05376 8.32925C8.1351 8.54125 8.25644 8.80258 8.42844 9.05991L7.31376 9.92658L8.21909 10.7426L7.90311 11.2733L7.12844 11.6266L7.87779 16.4279L9.92577 9.9799C10.1898 10.0346 11.2498 10.2666 11.4578 10.3173C13.6071 10.8893 13.4791 11.6692 13.4791 12.7466C13.4791 12.7626 13.4791 12.8052 13.4791 12.8186C13.4658 14.3026 13.2991 16.4812 13.0765 20.5412V20.4986C13.0765 20.4986 13.0765 20.5212 13.0765 20.5546C13.0631 20.8386 13.0471 22.5039 13.0311 22.7972C12.9218 23.7599 12.5698 25.1199 11.4138 25.1199C11.4138 28.3453 11.0991 37.5212 10.9911 40.3972H6.92977L6.78176 26.1572H6.5871L6.46444 40.3972H2.47245C2.36178 37.5212 2.04709 28.3453 2.04709 25.1199C0.976424 25.1199 0.599101 23.9466 0.457767 23.0146C0.216434 18.5106 0.0137778 14.4359 0.00177778 12.8186C-0.00222222 12.8052 0.00177778 12.7626 0.00177778 12.7466C0.00177778 11.6692 -0.127569 10.8893 2.02176 10.3173Z" fill="url(#paint25_linear_50_136)"/>
<path d="M230.226 60.9187C230.435 60.8693 231.492 60.6387 231.763 60.5787L233.804 67.0267L234.554 62.228L233.786 61.8707L233.467 61.3427L234.371 60.5254L233.256 59.6573C233.427 59.4027 233.554 59.144 233.63 58.9333C233.46 58.8053 233.275 58.6547 233.06 58.484C232.299 57.8707 232.45 57.416 232.25 56.804C231.987 57.3267 231.272 55.828 231.272 55.172C231.272 54.5186 231.663 54.9213 231.663 54.9213C231.663 54.9213 231.686 54.3987 231.712 53.7227C231.835 50.8454 234.214 50.5947 234.898 50.5947C234.907 50.5947 234.915 50.5947 234.927 50.5987C234.932 50.5947 234.936 50.5947 234.944 50.5947C234.944 50.5947 234.944 50.5947 234.947 50.5947C234.951 50.5947 234.951 50.5947 234.951 50.5947C234.958 50.5947 234.962 50.5947 234.97 50.5987C234.978 50.5947 234.986 50.5947 234.996 50.5947C235.683 50.5947 238.059 50.8454 238.182 53.7227C238.206 54.3987 238.23 54.9213 238.23 54.9213C238.23 54.9213 238.622 54.5186 238.622 55.172C238.622 55.828 237.91 57.3267 237.644 56.804C237.444 57.416 237.594 57.8707 236.834 58.484C236.618 58.6547 236.434 58.8053 236.263 58.9333C236.344 59.144 236.463 59.4027 236.636 59.6573L235.52 60.5254L236.424 61.3427L236.108 61.8707L235.338 62.228L236.086 67.0267L238.134 60.5787C238.402 60.6387 239.455 60.8693 239.663 60.9187C241.814 61.4947 241.686 62.268 241.686 63.344C241.686 63.3587 241.686 63.4053 241.686 63.4213C241.675 64.9027 241.504 67.0813 241.286 71.14V71.1C241.286 71.1 241.286 71.1213 241.286 71.1493C241.27 71.4387 241.254 73.1053 241.242 73.3987C241.131 74.3547 240.776 75.72 239.619 75.72C239.619 78.9467 239.306 88.1213 239.196 91.0013H235.136L234.986 76.76H234.795L234.67 91.0013H230.675C230.57 88.1213 230.254 78.9467 230.254 75.72C229.184 75.72 228.802 74.5493 228.667 73.616C228.423 69.1147 228.22 65.0387 228.208 63.4213C228.204 63.4053 228.208 63.3587 228.208 63.344C228.208 62.268 228.08 61.4947 230.226 60.9187Z" fill="url(#paint26_linear_50_136)"/>
<path d="M209.483 60.9187C209.687 60.8693 210.746 60.6387 211.015 60.5787L213.058 67.0267L213.807 62.228L213.039 61.8707L212.724 61.3427L213.627 60.5254L212.512 59.6573C212.68 59.4027 212.806 59.144 212.884 58.9333C212.714 58.8053 212.528 58.6547 212.312 58.484C211.555 57.8707 211.699 57.416 211.51 56.804C211.239 57.3267 210.522 55.828 210.522 55.172C210.522 54.5186 210.915 54.9213 210.915 54.9213C210.915 54.9213 210.939 54.3987 210.966 53.7227C211.088 50.8454 213.467 50.5947 214.152 50.5947C214.16 50.5947 214.17 50.5947 214.178 50.5987C214.187 50.5947 214.188 50.5947 214.196 50.5947H214.203C214.203 50.5947 214.203 50.5947 214.204 50.5947C214.211 50.5947 214.216 50.5947 214.223 50.5987C214.231 50.5947 214.242 50.5947 214.248 50.5947C214.938 50.5947 217.311 50.8454 217.439 53.7227C217.46 54.3987 217.484 54.9213 217.484 54.9213C217.484 54.9213 217.875 54.5186 217.875 55.172C217.875 55.828 217.164 57.3267 216.898 56.804C216.696 57.416 216.847 57.8707 216.088 58.484C215.872 58.6547 215.686 58.8053 215.519 58.9333C215.594 59.144 215.718 59.4027 215.891 59.6573L214.772 60.5254L215.679 61.3427L215.364 61.8707L214.596 62.228L215.343 67.0267L217.386 60.5787C217.655 60.6387 218.712 60.8693 218.916 60.9187C221.07 61.4947 220.944 62.268 220.944 63.344C220.944 63.3587 220.944 63.4053 220.944 63.4213C220.927 64.9027 220.758 67.0813 220.538 71.14V71.1C220.538 71.1 220.538 71.1213 220.538 71.1493C220.523 71.4387 220.507 73.1053 220.492 73.3987C220.384 74.3547 220.028 75.72 218.871 75.72C218.871 78.9467 218.563 88.1213 218.455 91.0013H214.392L214.242 76.76H214.048L213.924 91.0013H209.935C209.826 88.1213 209.51 78.9467 209.51 75.72C208.44 75.72 208.059 74.5493 207.919 73.616C207.678 69.1147 207.476 65.0387 207.46 63.4213C207.46 63.4053 207.46 63.3587 207.46 63.344C207.46 62.268 207.334 61.4947 209.483 60.9187Z" fill="url(#paint27_linear_50_136)"/>
<path d="M188.738 60.9187C188.945 60.8693 190.002 60.6387 190.269 60.5787L192.313 67.0267L193.063 62.228L192.291 61.8707L191.974 61.3427L192.882 60.5254L191.763 59.6573C191.937 59.4027 192.061 59.144 192.137 58.9333C191.969 58.8053 191.786 58.6547 191.571 58.484C190.805 57.8707 190.956 57.416 190.762 56.804C190.492 57.3267 189.779 55.828 189.779 55.172C189.779 54.5186 190.17 54.9213 190.17 54.9213C190.17 54.9213 190.194 54.3987 190.219 53.7227C190.342 50.8454 192.719 50.5947 193.405 50.5947C193.417 50.5947 193.425 50.5947 193.434 50.5987C193.439 50.5947 193.442 50.5947 193.451 50.5947H193.454C193.458 50.5947 193.458 50.5947 193.462 50.5947C193.463 50.5947 193.47 50.5947 193.478 50.5987C193.486 50.5947 193.497 50.5947 193.503 50.5947C194.19 50.5947 196.567 50.8454 196.69 53.7227C196.714 54.3987 196.737 54.9213 196.737 54.9213C196.737 54.9213 197.13 54.5186 197.13 55.172C197.13 55.828 196.416 57.3267 196.15 56.804C195.954 57.416 196.102 57.8707 195.342 58.484C195.125 58.6547 194.939 58.8053 194.773 58.9333C194.85 59.144 194.973 59.4027 195.143 59.6573L194.03 60.5254L194.935 61.3427L194.616 61.8707L193.848 62.228L194.597 67.0267L196.638 60.5787C196.91 60.6387 197.965 60.8693 198.174 60.9187C200.321 61.4947 200.197 62.268 200.197 63.344C200.197 63.3587 200.197 63.4053 200.197 63.4213C200.183 64.9027 200.012 67.0813 199.791 71.14V71.1C199.791 71.1 199.791 71.1213 199.791 71.1493C199.776 71.4387 199.76 73.1053 199.747 73.3987C199.635 74.3547 199.286 75.72 198.127 75.72C198.127 78.9467 197.815 88.1213 197.706 91.0013H193.645L193.497 76.76H193.305L193.18 91.0013H189.187C189.078 88.1213 188.767 78.9467 188.767 75.72C187.693 75.72 187.311 74.5493 187.174 73.616C186.931 69.1147 186.732 65.0387 186.715 63.4213C186.715 63.4053 186.715 63.3587 186.715 63.344C186.715 62.268 186.589 61.4947 188.738 60.9187Z" fill="url(#paint28_linear_50_136)"/>
<path d="M167.993 60.9187C168.197 60.8693 169.255 60.6387 169.523 60.5787L171.567 67.0267L172.314 62.228L171.547 61.8707L171.229 61.3427L172.13 60.5254L171.018 59.6573C171.191 59.4027 171.313 59.144 171.391 58.9333C171.223 58.8053 171.038 58.6547 170.823 58.484C170.059 57.8707 170.209 57.416 170.014 56.804C169.745 57.3267 169.031 55.828 169.031 55.172C169.031 54.5186 169.421 54.9213 169.421 54.9213C169.421 54.9213 169.449 54.3987 169.474 53.7227C169.594 50.8454 171.975 50.5947 172.657 50.5947C172.671 50.5947 172.677 50.5947 172.685 50.5987C172.693 50.5947 172.698 50.5947 172.705 50.5947H172.706C172.706 50.5947 172.706 50.5947 172.711 50.5947C172.719 50.5947 172.725 50.5947 172.73 50.5987C172.742 50.5947 172.75 50.5947 172.759 50.5947C173.445 50.5947 175.819 50.8454 175.942 53.7227C175.967 54.3987 175.991 54.9213 175.991 54.9213C175.991 54.9213 176.382 54.5186 176.382 55.172C176.382 55.828 175.675 57.3267 175.403 56.804C175.209 57.416 175.355 57.8707 174.595 58.484C174.377 58.6547 174.194 58.8053 174.022 58.9333C174.103 59.144 174.223 59.4027 174.397 59.6573L173.286 60.5254L174.186 61.3427L173.871 61.8707L173.101 62.228L173.846 67.0267L175.894 60.5787C176.161 60.6387 177.218 60.8693 177.425 60.9187C179.574 61.4947 179.45 62.268 179.45 63.344C179.45 63.3587 179.45 63.4053 179.45 63.4213C179.434 64.9027 179.267 67.0813 179.045 71.14V71.1C179.045 71.1 179.045 71.1213 179.045 71.1493C179.034 71.4387 179.021 73.1053 179.002 73.3987C178.894 74.3547 178.538 75.72 177.382 75.72C177.382 78.9467 177.067 88.1213 176.959 91.0013H172.899L172.75 76.76H172.557L172.433 91.0013H168.442C168.33 88.1213 168.019 78.9467 168.019 75.72C166.947 75.72 166.569 74.5493 166.429 73.616C166.182 69.1147 165.982 65.0387 165.969 63.4213C165.969 63.4053 165.969 63.3587 165.969 63.344C165.969 62.268 165.843 61.4947 167.993 60.9187Z" fill="url(#paint29_linear_50_136)"/>
<path d="M147.244 60.9187C147.451 60.8693 148.508 60.6387 148.779 60.5787L150.823 67.0267L151.566 62.228L150.799 61.8707L150.482 61.3427L151.384 60.5254L150.272 59.6573C150.446 59.4027 150.566 59.144 150.646 58.9333C150.475 58.8053 150.292 58.6547 150.078 58.484C149.314 57.8707 149.46 57.416 149.266 56.804C148.999 57.3267 148.286 55.828 148.286 55.172C148.286 54.5186 148.678 54.9213 148.678 54.9213C148.678 54.9213 148.7 54.3987 148.728 53.7227C148.85 50.8454 151.227 50.5947 151.911 50.5947C151.923 50.5947 151.931 50.5947 151.943 50.5987C151.948 50.5947 151.952 50.5947 151.958 50.5947H151.96C151.96 50.5947 151.962 50.5947 151.964 50.5947C151.974 50.5947 151.98 50.5947 151.984 50.5987C151.991 50.5947 152.002 50.5947 152.012 50.5947C152.698 50.5947 155.075 50.8454 155.196 53.7227C155.22 54.3987 155.246 54.9213 155.246 54.9213C155.246 54.9213 155.64 54.5186 155.64 55.172C155.64 55.828 154.926 57.3267 154.654 56.804C154.462 57.416 154.611 57.8707 153.847 58.484C153.631 58.6547 153.446 58.8053 153.279 58.9333C153.358 59.144 153.479 59.4027 153.652 59.6573L152.536 60.5254L153.442 61.3427L153.124 61.8707L152.355 62.228L153.104 67.0267L155.148 60.5787C155.416 60.6387 156.474 60.8693 156.682 60.9187C158.827 61.4947 158.7 62.268 158.7 63.344C158.7 63.3587 158.7 63.4053 158.7 63.4213C158.688 64.9027 158.522 67.0813 158.299 71.14V71.1C158.299 71.1 158.299 71.1213 158.299 71.1493C158.283 71.4387 158.274 73.1053 158.256 73.3987C158.148 74.3547 157.791 75.72 156.635 75.72C156.635 78.9467 156.322 88.1213 156.214 91.0013H152.155L152.002 76.76H151.81L151.687 91.0013H147.696C147.584 88.1213 147.272 78.9467 147.272 75.72C146.202 75.72 145.82 74.5493 145.68 73.616C145.436 69.1147 145.236 65.0387 145.223 63.4213C145.223 63.4053 145.223 63.3587 145.223 63.344C145.223 62.268 145.095 61.4947 147.244 60.9187Z" fill="url(#paint30_linear_50_136)"/>
<path d="M126.501 60.9187C126.705 60.8693 127.763 60.6387 128.033 60.5787L130.073 67.0267L130.822 62.228L130.055 61.8707L129.739 61.3427L130.642 60.5254L129.53 59.6573C129.702 59.4027 129.823 59.144 129.899 58.9333C129.734 58.8053 129.546 58.6547 129.331 58.484C128.571 57.8707 128.719 57.416 128.523 56.804C128.255 57.3267 127.542 55.828 127.542 55.172C127.542 54.5186 127.934 54.9213 127.934 54.9213C127.934 54.9213 127.955 54.3987 127.981 53.7227C128.106 50.8454 130.482 50.5947 131.169 50.5947C131.175 50.5947 131.185 50.5947 131.194 50.5987C131.203 50.5947 131.209 50.5947 131.214 50.5947C131.217 50.5947 131.218 50.5947 131.218 50.5947C131.218 50.5947 131.218 50.5947 131.222 50.5947C131.226 50.5947 131.235 50.5947 131.239 50.5987C131.246 50.5947 131.258 50.5947 131.269 50.5947C131.953 50.5947 134.327 50.8454 134.451 53.7227C134.481 54.3987 134.502 54.9213 134.502 54.9213C134.502 54.9213 134.898 54.5186 134.898 55.172C134.898 55.828 134.182 57.3267 133.909 56.804C133.714 57.416 133.866 57.8707 133.101 58.484C132.885 58.6547 132.702 58.8053 132.535 58.9333C132.611 59.144 132.735 59.4027 132.906 59.6573L131.791 60.5254L132.695 61.3427L132.381 61.8707L131.61 62.228L132.357 67.0267L134.406 60.5787C134.674 60.6387 135.727 60.8693 135.935 60.9187C138.085 61.4947 137.958 62.268 137.958 63.344C137.958 63.3587 137.958 63.4053 137.958 63.4213C137.941 64.9027 137.774 67.0813 137.558 71.14V71.1C137.558 71.1 137.558 71.1213 137.558 71.1493C137.542 71.4387 137.525 73.1053 137.509 73.3987C137.401 74.3547 137.047 75.72 135.891 75.72C135.891 78.9467 135.579 88.1213 135.471 91.0013H131.407L131.258 76.76H131.066L130.943 91.0013H126.949C126.838 88.1213 126.526 78.9467 126.526 75.72C125.455 75.72 125.074 74.5493 124.937 73.616C124.694 69.1147 124.493 65.0387 124.475 63.4213C124.475 63.4053 124.475 63.3587 124.475 63.344C124.475 62.268 124.347 61.4947 126.501 60.9187Z" fill="url(#paint31_linear_50_136)"/>
<path d="M105.758 60.9187C105.959 60.8693 107.016 60.6387 107.286 60.5787L109.331 67.0267L110.078 62.228L109.308 61.8707L108.995 61.3427L109.896 60.5254L108.782 59.6573C108.955 59.4027 109.075 59.144 109.155 58.9333C108.984 58.8053 108.802 58.6547 108.58 58.484C107.824 57.8707 107.972 57.416 107.778 56.804C107.508 57.3267 106.796 55.828 106.796 55.172C106.796 54.5186 107.186 54.9213 107.186 54.9213C107.186 54.9213 107.21 54.3987 107.235 53.7227C107.36 50.8454 109.735 50.5947 110.424 50.5947C110.432 50.5947 110.44 50.5947 110.45 50.5987C110.456 50.5947 110.462 50.5947 110.467 50.5947H110.47C110.472 50.5947 110.472 50.5947 110.476 50.5947C110.478 50.5947 110.487 50.5947 110.494 50.5987C110.502 50.5947 110.512 50.5947 110.52 50.5947C111.207 50.5947 113.584 50.8454 113.707 53.7227C113.73 54.3987 113.755 54.9213 113.755 54.9213C113.755 54.9213 114.146 54.5186 114.146 55.172C114.146 55.828 113.434 57.3267 113.166 56.804C112.966 57.416 113.122 57.8707 112.359 58.484C112.139 58.6547 111.958 58.8053 111.788 58.9333C111.867 59.144 111.988 59.4027 112.159 59.6573L111.044 60.5254L111.952 61.3427L111.635 61.8707L110.863 62.228L111.612 67.0267L113.658 60.5787C113.924 60.6387 114.983 60.8693 115.187 60.9187C117.336 61.4947 117.212 62.268 117.212 63.344C117.212 63.3587 117.212 63.4053 117.212 63.4213C117.195 64.9027 117.027 67.0813 116.806 71.14V71.1C116.806 71.1 116.806 71.1213 116.806 71.1493C116.794 71.4387 116.78 73.1053 116.763 73.3987C116.655 74.3547 116.302 75.72 115.144 75.72C115.144 78.9467 114.832 88.1213 114.723 91.0013H110.66L110.512 76.76H110.32L110.194 91.0013H106.2C106.094 88.1213 105.782 78.9467 105.782 75.72C104.708 75.72 104.327 74.5493 104.191 73.616C103.95 69.1147 103.746 65.0387 103.732 63.4213C103.731 63.4053 103.732 63.3587 103.732 63.344C103.732 62.268 103.6 61.4947 105.758 60.9187Z" fill="url(#paint32_linear_50_136)"/>
<path d="M85.0058 60.9187C85.2111 60.8693 86.2725 60.6387 86.5378 60.5787L88.5845 67.0267L89.3338 62.228L88.5645 61.8707L88.2471 61.3427L89.1511 60.5254L88.0365 59.6573C88.2058 59.4027 88.3311 59.144 88.4098 58.9333C88.2378 58.8053 88.0525 58.6547 87.8391 58.484C87.0751 57.8707 87.2271 57.416 87.0285 56.804C86.7605 57.3267 86.0484 55.828 86.0484 55.172C86.0484 54.5186 86.4405 54.9213 86.4405 54.9213C86.4405 54.9213 86.4645 54.3987 86.4898 53.7227C86.6111 50.8454 88.9885 50.5947 89.6725 50.5947C89.6845 50.5947 89.6898 50.5947 89.7031 50.5987C89.7125 50.5947 89.7165 50.5947 89.7218 50.5947H89.7245C89.7271 50.5947 89.7271 50.5947 89.7271 50.5947C89.7338 50.5947 89.7418 50.5947 89.7458 50.5987C89.7578 50.5947 89.7645 50.5947 89.7738 50.5947C90.4591 50.5947 92.8351 50.8454 92.9591 53.7227C92.9845 54.3987 93.0071 54.9213 93.0071 54.9213C93.0071 54.9213 93.3991 54.5186 93.3991 55.172C93.3991 55.828 92.6871 57.3267 92.4205 56.804C92.2231 57.416 92.3725 57.8707 91.6098 58.484C91.3938 58.6547 91.2098 58.8053 91.0405 58.9333C91.1178 59.144 91.2418 59.4027 91.4098 59.6573L90.2978 60.5254L91.2045 61.3427L90.8845 61.8707L90.1164 62.228L90.8671 67.0267L92.9098 60.5787C93.1791 60.6387 94.2325 60.8693 94.4405 60.9187C96.5898 61.4947 96.4658 62.268 96.4658 63.344C96.4658 63.3587 96.4658 63.4053 96.4658 63.4213C96.4511 64.9027 96.2818 67.0813 96.0591 71.14V71.1C96.0591 71.1 96.0591 71.1213 96.0591 71.1493C96.0485 71.4387 96.0311 73.1053 96.0178 73.3987C95.9085 74.3547 95.5551 75.72 94.3978 75.72C94.3978 78.9467 94.0858 88.1213 93.9751 91.0013H89.9138L89.7645 76.76H89.5738L89.4498 91.0013H85.4578C85.3471 88.1213 85.0338 78.9467 85.0338 75.72C83.9631 75.72 83.5831 74.5493 83.4445 73.616C83.1991 69.1147 83.0005 65.0387 82.9858 63.4213C82.9831 63.4053 82.9858 63.3587 82.9858 63.344C82.9858 62.268 82.8591 61.4947 85.0058 60.9187Z" fill="url(#paint33_linear_50_136)"/>
<path d="M64.2631 60.9187C64.4685 60.8693 65.5271 60.6387 65.7925 60.5787L67.8405 67.0267L68.5871 62.228L67.8151 61.8707L67.4991 61.3427L68.4045 60.5254L67.2911 59.6573C67.4591 59.4027 67.5845 59.144 67.6645 58.9333C67.4951 58.8053 67.3098 58.6547 67.0951 58.484C66.3311 57.8707 66.4818 57.416 66.2818 56.804C66.0165 57.3267 65.3005 55.828 65.3005 55.172C65.3005 54.5186 65.6938 54.9213 65.6938 54.9213C65.6938 54.9213 65.7178 54.3987 65.7445 53.7227C65.8658 50.8454 68.2458 50.5947 68.9298 50.5947C68.9418 50.5947 68.9485 50.5947 68.9551 50.5987C68.9631 50.5947 68.9712 50.5947 68.9752 50.5947H68.9792C68.9792 50.5947 68.9791 50.5947 68.9831 50.5947C68.9885 50.5947 68.9938 50.5947 69.0005 50.5987C69.0111 50.5947 69.0178 50.5947 69.0298 50.5947C69.7138 50.5947 72.0911 50.8454 72.2138 53.7227C72.2378 54.3987 72.2605 54.9213 72.2605 54.9213C72.2605 54.9213 72.6551 54.5186 72.6551 55.172C72.6551 55.828 71.9418 57.3267 71.6738 56.804C71.4778 57.416 71.6258 57.8707 70.8685 58.484C70.6511 58.6547 70.4658 58.8053 70.2951 58.9333C70.3751 59.144 70.4938 59.4027 70.6698 59.6573L69.5551 60.5254L70.4578 61.3427L70.1405 61.8707L69.3725 62.228L70.1218 67.0267L72.1658 60.5787C72.4351 60.6387 73.4898 60.8693 73.6938 60.9187C75.8471 61.4947 75.7178 62.268 75.7178 63.344C75.7178 63.3587 75.7178 63.4053 75.7178 63.4213C75.7058 64.9027 75.5378 67.0813 75.3191 71.14V71.1C75.3191 71.1 75.3191 71.1213 75.3191 71.1493C75.3018 71.4387 75.2858 73.1053 75.2725 73.3987C75.1618 74.3547 74.8071 75.72 73.6498 75.72C73.6498 78.9467 73.3378 88.1213 73.2311 91.0013H69.1711L69.0178 76.76H68.8258L68.7031 91.0013H64.7138C64.6018 88.1213 64.2911 78.9467 64.2911 75.72C63.2178 75.72 62.8378 74.5493 62.6991 73.616C62.4551 69.1147 62.2525 65.0387 62.2365 63.4213C62.2351 63.4053 62.2365 63.3587 62.2365 63.344C62.2365 62.268 62.1151 61.4947 64.2631 60.9187Z" fill="url(#paint34_linear_50_136)"/>
<path d="M43.515 60.9187C43.7204 60.8693 44.7804 60.6387 45.0457 60.5787L47.0897 67.0267L47.8377 62.228L47.071 61.8707L46.7537 61.3427L47.659 60.5254L46.5417 59.6573C46.715 59.4027 46.8364 59.144 46.9164 58.9333C46.7457 58.8053 46.563 58.6547 46.3457 58.484C45.5857 57.8707 45.735 57.416 45.5377 56.804C45.2697 57.3267 44.555 55.828 44.555 55.172C44.555 54.5186 44.9484 54.9213 44.9484 54.9213C44.9484 54.9213 44.9724 54.3987 44.9977 53.7227C45.1177 50.8454 47.4977 50.5947 48.183 50.5947C48.191 50.5947 48.2017 50.5947 48.2097 50.5987C48.2164 50.5947 48.223 50.5947 48.2297 50.5947C48.2297 50.5947 48.2324 50.5947 48.2337 50.5947C48.2337 50.5947 48.2337 50.5947 48.235 50.5947C48.243 50.5947 48.2497 50.5947 48.2537 50.5987C48.2644 50.5947 48.2724 50.5947 48.2817 50.5947C48.967 50.5947 51.3444 50.8454 51.467 53.7227C51.4937 54.3987 51.519 54.9213 51.519 54.9213C51.519 54.9213 51.9097 54.5186 51.9097 55.172C51.9097 55.828 51.1937 57.3267 50.927 56.804C50.731 57.416 50.879 57.8707 50.1177 58.484C49.9017 58.6547 49.715 58.8053 49.5497 58.9333C49.6284 59.144 49.7497 59.4027 49.9177 59.6573L48.807 60.5254L49.7084 61.3427L49.3977 61.8707L48.627 62.228L49.3724 67.0267L51.4177 60.5787C51.6884 60.6387 52.7417 60.8693 52.9484 60.9187C55.1004 61.4947 54.9737 62.268 54.9737 63.344C54.9737 63.3587 54.9737 63.4053 54.9737 63.4213C54.9577 64.9027 54.7897 67.0813 54.5697 71.14V71.1C54.5697 71.1 54.5697 71.1213 54.5697 71.1493C54.5564 71.4387 54.5404 73.1053 54.5257 73.3987C54.415 74.3547 54.0604 75.72 52.9057 75.72C52.9057 78.9467 52.595 88.1213 52.4857 91.0013H48.4257L48.2724 76.76H48.079L47.9564 91.0013H43.9644C43.855 88.1213 43.5417 78.9467 43.5417 75.72C42.471 75.72 42.091 74.5493 41.951 73.616C41.707 69.1147 41.5084 65.0387 41.4897 63.4213C41.4897 63.4053 41.4897 63.3587 41.4897 63.344C41.4897 62.268 41.367 61.4947 43.515 60.9187Z" fill="url(#paint35_linear_50_136)"/>
<path d="M22.7699 60.9187C22.9765 60.8693 24.0339 60.6387 24.3019 60.5787L26.3419 67.0267L27.0952 62.228L26.3259 61.8707L26.0085 61.3427L26.9112 60.5254L25.7979 59.6573C25.9725 59.4027 26.0912 59.144 26.1699 58.9333C26.0005 58.8053 25.8179 58.6547 25.6005 58.484C24.8379 57.8707 24.9872 57.416 24.7912 56.804C24.5219 57.3267 23.8112 55.828 23.8112 55.172C23.8112 54.5186 24.2032 54.9213 24.2032 54.9213C24.2032 54.9213 24.2298 54.3987 24.2525 53.7227C24.3738 50.8454 26.7499 50.5947 27.4352 50.5947C27.4485 50.5947 27.4552 50.5947 27.4645 50.5987C27.4712 50.5947 27.4765 50.5947 27.4832 50.5947C27.4832 50.5947 27.4858 50.5947 27.4885 50.5947C27.4885 50.5947 27.4885 50.5947 27.4925 50.5947C27.4965 50.5947 27.5059 50.5947 27.5099 50.5987C27.5152 50.5947 27.5285 50.5947 27.5379 50.5947C28.2205 50.5947 30.6005 50.8454 30.7218 53.7227C30.7472 54.3987 30.7712 54.9213 30.7712 54.9213C30.7712 54.9213 31.1632 54.5186 31.1632 55.172C31.1632 55.828 30.4472 57.3267 30.1805 56.804C29.9832 57.416 30.1352 57.8707 29.3725 58.484C29.1539 58.6547 28.9699 58.8053 28.8032 58.9333C28.8819 59.144 29.0045 59.4027 29.1779 59.6573L28.0619 60.5254L28.9672 61.3427L28.6485 61.8707L27.8779 62.228L28.6259 67.0267L30.6725 60.5787C30.9432 60.6387 31.9952 60.8693 32.2045 60.9187C34.3539 61.4947 34.2285 62.268 34.2285 63.344C34.2285 63.3587 34.2285 63.4053 34.2285 63.4213C34.2125 64.9027 34.0432 67.0813 33.8245 71.14V71.1C33.8245 71.1 33.8245 71.1213 33.8245 71.1493C33.8085 71.4387 33.7952 73.1053 33.7752 73.3987C33.6699 74.3547 33.3112 75.72 32.1619 75.72C32.1619 78.9467 31.8472 88.1213 31.7405 91.0013H27.6779L27.5285 76.76H27.3352L27.2112 91.0013H23.2165C23.1085 88.1213 22.7965 78.9467 22.7965 75.72C21.7259 75.72 21.3432 74.5493 21.2085 73.616C20.9632 69.1147 20.7618 65.0387 20.7472 63.4213C20.7472 63.4053 20.7472 63.3587 20.7472 63.344C20.7472 62.268 20.6192 61.4947 22.7699 60.9187Z" fill="url(#paint36_linear_50_136)"/>
<path d="M2.02176 60.9187C2.2311 60.8693 3.28576 60.6387 3.5551 60.5787L5.59644 67.0267L6.34579 62.228L5.58042 61.8707L5.26044 61.3427L6.16177 60.5254L5.04976 59.6573C5.22043 59.4027 5.3471 59.144 5.4231 58.9333C5.25377 58.8053 5.06976 58.6547 4.85376 58.484C4.09376 57.8707 4.24179 57.416 4.04579 56.804C3.77645 57.3267 3.06311 55.828 3.06311 55.172C3.06311 54.5186 3.45643 54.9213 3.45643 54.9213C3.45643 54.9213 3.48045 54.3987 3.50712 53.7227C3.62712 50.8454 6.00443 50.5947 6.6911 50.5947C6.70043 50.5947 6.70843 50.5947 6.71643 50.5987C6.72576 50.5947 6.73378 50.5947 6.73511 50.5947C6.73778 50.5947 6.73778 50.5947 6.74178 50.5947C6.74178 50.5947 6.74179 50.5947 6.74312 50.5947C6.74979 50.5947 6.7551 50.5947 6.76177 50.5987C6.76977 50.5947 6.78177 50.5947 6.78977 50.5947C7.47643 50.5947 9.84978 50.8454 9.97378 53.7227C10.0018 54.3987 10.0204 54.9213 10.0204 54.9213C10.0204 54.9213 10.4138 54.5186 10.4138 55.172C10.4138 55.828 9.70444 57.3267 9.43511 56.804C9.23911 57.416 9.3871 57.8707 8.62577 58.484C8.40844 58.6547 8.22576 58.8053 8.05376 58.9333C8.1351 59.144 8.25644 59.4027 8.42844 59.6573L7.31376 60.5254L8.21909 61.3427L7.90311 61.8707L7.12844 62.228L7.87779 67.0267L9.92577 60.5787C10.1898 60.6387 11.2498 60.8693 11.4578 60.9187C13.6071 61.4947 13.4791 62.268 13.4791 63.344C13.4791 63.3587 13.4791 63.4053 13.4791 63.4213C13.4658 64.9027 13.2991 67.0813 13.0765 71.14V71.1C13.0765 71.1 13.0765 71.1213 13.0765 71.1493C13.0631 71.4387 13.0471 73.1053 13.0311 73.3987C12.9218 74.3547 12.5698 75.72 11.4138 75.72C11.4138 78.9467 11.0991 88.1213 10.9911 91.0013H6.92977L6.78176 76.76H6.5871L6.46444 91.0013H2.47245C2.36178 88.1213 2.04709 78.9467 2.04709 75.72C0.976424 75.72 0.599101 74.5493 0.457767 73.616C0.216434 69.1147 0.0137778 65.0387 0.00177778 63.4213C-0.00222222 63.4053 0.00177778 63.3587 0.00177778 63.344C0.00177778 62.268 -0.127569 61.4947 2.02176 60.9187Z" fill="url(#paint37_linear_50_136)"/>
<path d="M281.626 91.218H271V93H281.626V91.218ZM292.251 91.218H285.167V93H292.251V91.218ZM302.878 91.218H295.794V93H302.878V91.218ZM317.046 91.218H304.649V93H317.046V91.218ZM331.213 91.218H318.817V93H331.213V91.218ZM343.611 91.218H331.213V93H343.611V91.218ZM354.238 91.218H345.382V93H354.238V91.218ZM368.405 91.218H356.007V93H368.405V91.218ZM379.031 91.218H371.946V93H379.031V91.218ZM391.427 91.218H382.573V93H391.427V91.218ZM402.054 91.218H391.427V93H402.054V91.218ZM414.451 91.218H405.596V93H414.451V91.218ZM428.618 91.218H416.222V93H428.618V91.218ZM439.245 91.218H428.618V93H439.245V91.218ZM453.413 91.218H441.016V93H453.413V91.218ZM465.81 91.218H456.954V93H465.81V91.218ZM479.977 91.218H469.351V93H479.977V91.218ZM488.831 91.218H481.748V93H488.831V91.218ZM499.458 91.218H492.374V93H499.458V91.218ZM271 85.8706V89.4347H503V85.8706H271ZM298.186 75.1784H298.18C298.18 78.7425 301.741 83.0104 306.139 83.0104C310.532 83.0104 314.099 78.7425 314.099 75.1784H314.087H298.186ZM367.849 75.1784H367.838C367.838 78.7425 371.404 83.0104 375.798 83.0104C380.194 83.0104 383.756 78.7425 383.756 75.1784H383.749H367.849ZM425.215 75.1784H425.208C425.208 78.7425 428.768 83.0104 433.167 83.0104C437.565 83.0104 441.123 78.7425 441.123 75.1784H441.116H425.215ZM317.582 76.9605H343.611V64.4862H274.542V76.9605H294.068L296.905 71.6143H314.748L317.582 76.9605ZM366.566 71.6143H384.407L387.239 76.9605H421.093L423.931 71.6143H441.771L444.61 76.9605H466.803C466.803 76.9605 487.148 75.1784 497.334 64.4862H347.153V76.9605H363.725L366.566 71.6143ZM324.129 15.0993C324.129 12.8484 322.318 11.0238 320.086 11.0238H287.441C285.207 11.0238 283.397 12.8484 283.397 15.0993V30.1149C283.397 32.3646 285.207 34.1903 287.441 34.1903H320.086C322.318 34.1903 324.129 32.3646 324.129 30.1149V15.0993ZM274.542 1.39917C274.542 1.39917 301.107 1.25392 343.611 1.13701V60.9209H274.542V1.39917ZM402.054 15.0993C402.054 12.8484 400.243 11.0238 398.008 11.0238H365.366C363.132 11.0238 361.321 12.8484 361.321 15.0993V30.1149C361.321 32.3646 363.132 34.1903 365.366 34.1903H398.008C400.243 34.1903 402.054 32.3646 402.054 30.1149V15.0993ZM428.618 60.9209V16.8766C428.618 14.2702 426.06 11.0238 423.825 11.0238H412.797C410.561 11.0238 409.138 14.2702 409.138 16.8766V60.9209H347.153V1.11928C371.946 1.05433 396.419 1 419.088 1C424.883 1 428.618 1.37435 435.703 2.05457V25.2235C435.703 35.8342 442.599 48.4467 453.143 48.4467H501.295C502.478 48.4467 503.025 51.3459 502.997 52.2788C502.872 56.1322 501.602 59.1401 499.62 60.9209H428.618ZM441.016 25.2235V2.92494C472.893 8.81075 490.026 25.2801 498.074 39.5365H453.143C445.613 39.5365 441.016 32.8016 441.016 25.2235Z" fill="#EAEAEA"/>
<path d="M388.521 323.663C388.521 323.663 384.987 306.167 358.636 306.838C336.035 307.407 329.228 314.816 321.563 323.663H357.781L363.835 306.738L365.353 307.149L361.011 323.663H388.521ZM420 338.045V350.99C420 351.958 414.441 350.213 414.441 350.213H406.151C406.151 345.789 399.242 334.588 390.728 334.588C382.221 334.588 375.292 345.789 375.292 350.213H316.987C316.987 345.789 310.075 334.588 301.573 334.588C293.06 334.588 286.142 345.789 286.142 350.213H271.644C271.644 350.213 262.789 324.727 310.747 322.176C317.053 321.83 327.742 302.246 357.494 302.003C395.259 301.701 401.635 323.68 407.304 323.962C415.09 324.361 420 331.395 420 338.045ZM390.728 340.581C384.072 340.581 378.661 346.064 378.661 352.788C378.661 359.52 384.072 365 390.728 365C397.371 365 402.788 359.52 402.788 352.788C402.788 346.064 397.371 340.581 390.728 340.581ZM313.629 352.788C313.629 359.52 308.221 365 301.573 365C294.919 365 289.505 359.52 289.505 352.788C289.505 346.064 294.919 340.581 301.573 340.581C308.221 340.581 313.629 346.064 313.629 352.788Z" fill="#EAEAEA"/>
<defs>
<linearGradient id="paint0_linear_50_136" x1="226.802" y1="348.044" x2="244.015" y2="314.655" gradientUnits="userSpaceOnUse">
<stop stop-color="#8CFFDB"/>
<stop offset="1" stop-color="#43CEA2"/>
</linearGradient>
<linearGradient id="paint1_linear_50_136" x1="206.054" y1="348.044" x2="223.262" y2="314.649" gradientUnits="userSpaceOnUse">
<stop stop-color="#8CFFDB"/>
<stop offset="1" stop-color="#43CEA2"/>
</linearGradient>
<linearGradient id="paint2_linear_50_136" x1="228.215" y1="197.507" x2="249.851" y2="193.613" gradientUnits="userSpaceOnUse">
<stop stop-color="#8CFFDB"/>
<stop offset="1" stop-color="#43CEA2"/>
</linearGradient>
<linearGradient id="paint3_linear_50_136" x1="207.467" y1="197.507" x2="229.112" y2="193.61" gradientUnits="userSpaceOnUse">
<stop stop-color="#8CFFDB"/>
<stop offset="1" stop-color="#43CEA2"/>
</linearGradient>
<linearGradient id="paint4_linear_50_136" x1="186.722" y1="197.507" x2="208.363" y2="193.611" gradientUnits="userSpaceOnUse">
<stop stop-color="#8CFFDB"/>
<stop offset="1" stop-color="#43CEA2"/>
</linearGradient>
<linearGradient id="paint5_linear_50_136" x1="165.976" y1="197.507" x2="187.616" y2="193.612" gradientUnits="userSpaceOnUse">
<stop stop-color="#8CFFDB"/>
<stop offset="1" stop-color="#43CEA2"/>
</linearGradient>
<linearGradient id="paint6_linear_50_136" x1="145.23" y1="197.507" x2="166.865" y2="193.614" gradientUnits="userSpaceOnUse">
<stop stop-color="#8CFFDB"/>
<stop offset="1" stop-color="#43CEA2"/>
</linearGradient>
<linearGradient id="paint7_linear_50_136" x1="124.482" y1="197.507" x2="146.125" y2="193.611" gradientUnits="userSpaceOnUse">
<stop stop-color="#8CFFDB"/>
<stop offset="1" stop-color="#43CEA2"/>
</linearGradient>
<linearGradient id="paint8_linear_50_136" x1="228.215" y1="248.111" x2="249.851" y2="244.219" gradientUnits="userSpaceOnUse">
<stop stop-color="#8CFFDB"/>
<stop offset="1" stop-color="#43CEA2"/>
</linearGradient>
<linearGradient id="paint9_linear_50_136" x1="207.467" y1="248.111" x2="229.113" y2="244.215" gradientUnits="userSpaceOnUse">
<stop stop-color="#8CFFDB"/>
<stop offset="1" stop-color="#43CEA2"/>
</linearGradient>
<linearGradient id="paint10_linear_50_136" x1="186.722" y1="248.111" x2="208.363" y2="244.217" gradientUnits="userSpaceOnUse">
<stop stop-color="#8CFFDB"/>
<stop offset="1" stop-color="#43CEA2"/>
</linearGradient>
<linearGradient id="paint11_linear_50_136" x1="165.976" y1="248.111" x2="187.617" y2="244.217" gradientUnits="userSpaceOnUse">
<stop stop-color="#8CFFDB"/>
<stop offset="1" stop-color="#43CEA2"/>
</linearGradient>
<linearGradient id="paint12_linear_50_136" x1="145.23" y1="248.111" x2="166.866" y2="244.219" gradientUnits="userSpaceOnUse">
<stop stop-color="#8CFFDB"/>
<stop offset="1" stop-color="#43CEA2"/>
</linearGradient>
<linearGradient id="paint13_linear_50_136" x1="124.482" y1="248.111" x2="146.126" y2="244.216" gradientUnits="userSpaceOnUse">
<stop stop-color="#8CFFDB"/>
<stop offset="1" stop-color="#43CEA2"/>
</linearGradient>
<linearGradient id="paint14_linear_50_136" x1="228.737" y1="41.0631" x2="243.354" y2="40.3406" gradientUnits="userSpaceOnUse">
<stop stop-color="#8CFFDB"/>
<stop offset="1" stop-color="#43CEA2"/>
</linearGradient>
<linearGradient id="paint15_linear_50_136" x1="207.989" y1="41.0631" x2="222.613" y2="40.3399" gradientUnits="userSpaceOnUse">
<stop stop-color="#8CFFDB"/>
<stop offset="1" stop-color="#43CEA2"/>
</linearGradient>
<linearGradient id="paint16_linear_50_136" x1="187.244" y1="41.0631" x2="201.865" y2="40.3402" gradientUnits="userSpaceOnUse">
<stop stop-color="#8CFFDB"/>
<stop offset="1" stop-color="#43CEA2"/>
</linearGradient>
<linearGradient id="paint17_linear_50_136" x1="166.497" y1="41.0631" x2="181.118" y2="40.3402" gradientUnits="userSpaceOnUse">
<stop stop-color="#8CFFDB"/>
<stop offset="1" stop-color="#43CEA2"/>
</linearGradient>
<linearGradient id="paint18_linear_50_136" x1="145.752" y1="41.0631" x2="160.369" y2="40.3406" gradientUnits="userSpaceOnUse">
<stop stop-color="#8CFFDB"/>
<stop offset="1" stop-color="#43CEA2"/>
</linearGradient>
<linearGradient id="paint19_linear_50_136" x1="125.004" y1="41.0631" x2="139.627" y2="40.34" gradientUnits="userSpaceOnUse">
<stop stop-color="#8CFFDB"/>
<stop offset="1" stop-color="#43CEA2"/>
</linearGradient>
<linearGradient id="paint20_linear_50_136" x1="104.261" y1="41.0631" x2="118.881" y2="40.3403" gradientUnits="userSpaceOnUse">
<stop stop-color="#8CFFDB"/>
<stop offset="1" stop-color="#43CEA2"/>
</linearGradient>
<linearGradient id="paint21_linear_50_136" x1="83.5143" y1="41.0631" x2="98.1341" y2="40.3403" gradientUnits="userSpaceOnUse">
<stop stop-color="#8CFFDB"/>
<stop offset="1" stop-color="#43CEA2"/>
</linearGradient>
<linearGradient id="paint22_linear_50_136" x1="62.7652" y1="41.0631" x2="77.3864" y2="40.3402" gradientUnits="userSpaceOnUse">
<stop stop-color="#8CFFDB"/>
<stop offset="1" stop-color="#43CEA2"/>
</linearGradient>
<linearGradient id="paint23_linear_50_136" x1="42.0185" y1="41.0631" x2="56.6426" y2="40.3399" gradientUnits="userSpaceOnUse">
<stop stop-color="#8CFFDB"/>
<stop offset="1" stop-color="#43CEA2"/>
</linearGradient>
<linearGradient id="paint24_linear_50_136" x1="21.2757" y1="41.0631" x2="35.8971" y2="40.3402" gradientUnits="userSpaceOnUse">
<stop stop-color="#8CFFDB"/>
<stop offset="1" stop-color="#43CEA2"/>
</linearGradient>
<linearGradient id="paint25_linear_50_136" x1="0.529881" y1="41.0631" x2="15.1473" y2="40.3406" gradientUnits="userSpaceOnUse">
<stop stop-color="#8CFFDB"/>
<stop offset="1" stop-color="#43CEA2"/>
</linearGradient>
<linearGradient id="paint26_linear_50_136" x1="228.737" y1="91.6674" x2="243.354" y2="90.945" gradientUnits="userSpaceOnUse">
<stop stop-color="#8CFFDB"/>
<stop offset="1" stop-color="#43CEA2"/>
</linearGradient>
<linearGradient id="paint27_linear_50_136" x1="207.989" y1="91.6674" x2="222.613" y2="90.9443" gradientUnits="userSpaceOnUse">
<stop stop-color="#8CFFDB"/>
<stop offset="1" stop-color="#43CEA2"/>
</linearGradient>
<linearGradient id="paint28_linear_50_136" x1="187.244" y1="91.6674" x2="201.865" y2="90.9446" gradientUnits="userSpaceOnUse">
<stop stop-color="#8CFFDB"/>
<stop offset="1" stop-color="#43CEA2"/>
</linearGradient>
<linearGradient id="paint29_linear_50_136" x1="166.497" y1="91.6674" x2="181.118" y2="90.9446" gradientUnits="userSpaceOnUse">
<stop stop-color="#8CFFDB"/>
<stop offset="1" stop-color="#43CEA2"/>
</linearGradient>
<linearGradient id="paint30_linear_50_136" x1="145.752" y1="91.6674" x2="160.369" y2="90.945" gradientUnits="userSpaceOnUse">
<stop stop-color="#8CFFDB"/>
<stop offset="1" stop-color="#43CEA2"/>
</linearGradient>
<linearGradient id="paint31_linear_50_136" x1="125.004" y1="91.6674" x2="139.627" y2="90.9445" gradientUnits="userSpaceOnUse">
<stop stop-color="#8CFFDB"/>
<stop offset="1" stop-color="#43CEA2"/>
</linearGradient>
<linearGradient id="paint32_linear_50_136" x1="104.261" y1="91.6674" x2="118.881" y2="90.9448" gradientUnits="userSpaceOnUse">
<stop stop-color="#8CFFDB"/>
<stop offset="1" stop-color="#43CEA2"/>
</linearGradient>
<linearGradient id="paint33_linear_50_136" x1="83.5143" y1="91.6674" x2="98.1341" y2="90.9448" gradientUnits="userSpaceOnUse">
<stop stop-color="#8CFFDB"/>
<stop offset="1" stop-color="#43CEA2"/>
</linearGradient>
<linearGradient id="paint34_linear_50_136" x1="62.7652" y1="91.6674" x2="77.3865" y2="90.9446" gradientUnits="userSpaceOnUse">
<stop stop-color="#8CFFDB"/>
<stop offset="1" stop-color="#43CEA2"/>
</linearGradient>
<linearGradient id="paint35_linear_50_136" x1="42.0185" y1="91.6674" x2="56.6426" y2="90.9443" gradientUnits="userSpaceOnUse">
<stop stop-color="#8CFFDB"/>
<stop offset="1" stop-color="#43CEA2"/>
</linearGradient>
<linearGradient id="paint36_linear_50_136" x1="21.2757" y1="91.6674" x2="35.8971" y2="90.9446" gradientUnits="userSpaceOnUse">
<stop stop-color="#8CFFDB"/>
<stop offset="1" stop-color="#43CEA2"/>
</linearGradient>
<linearGradient id="paint37_linear_50_136" x1="0.529881" y1="91.6674" x2="15.1473" y2="90.945" gradientUnits="userSpaceOnUse">
<stop stop-color="#8CFFDB"/>
<stop offset="1" stop-color="#43CEA2"/>
</linearGradient>
</defs>
</svg>
