<svg width="1439" height="463" viewBox="0 0 1439 463" fill="none" xmlns="http://www.w3.org/2000/svg">
<path d="M1439 241.241V462.493H0V287.587H28.8433L82.099 264.567H112.883L172.458 276.077H204.73L266.785 240.735H301.061L373.159 256.623L408.775 257.119L507.079 212.599L534.382 212.525L624.741 245.693H658.005L792.547 224.836H828.185L891.895 239.532H923.112L980.208 250.926H1012.48L1076.52 234.774H1111.27L1153.32 226.545H1199.15L1283.05 264.071H1309.86L1401.52 241.241H1439Z" fill="#0C3D6F"/>
<path d="M648.931 63.546L665.212 48.446L681.493 33.347L697.775 48.446L714.055 63.546H708.385L708.4 63.547V91.9926H799.646V340.59H654.587V94.8791V91.9926V63.547L654.602 63.546H648.931Z" fill="#0C3D6F"/>
<path d="M682.904 120.666H692.461V111.109H682.904V120.666Z" fill="#E6DC96"/>
<path d="M670.528 120.666H680.085V111.109H670.528V120.666Z" fill="#E6DC96"/>
<path d="M682.904 132.673H692.461V123.116H682.904V132.673Z" fill="#E6DC96"/>
<path d="M670.528 132.673H680.085V123.116H670.528V132.673Z" fill="#E6DC96"/>
<path d="M682.904 158.578H692.461V149.021H682.904V158.578Z" fill="#E6DC96"/>
<path d="M670.528 158.578H680.085V149.021H670.528V158.578Z" fill="#E6DC96"/>
<path d="M682.904 170.587H692.461V161.03H682.904V170.587Z" fill="#E6DC96"/>
<path d="M670.528 170.587H680.085V161.03H670.528V170.587Z" fill="#E6DC96"/>
<path d="M682.904 196.491H692.461V186.934H682.904V196.491Z" fill="#E6DC96"/>
<path d="M670.528 196.491H680.085V186.934H670.528V196.491Z" fill="#E6DC96"/>
<path d="M682.904 208.5H692.461V198.943H682.904V208.5Z" fill="#E6DC96"/>
<path d="M670.528 208.5H680.085V198.943H670.528V208.5Z" fill="#E6DC96"/>
<path d="M736.378 208.5H739.633V111.109H736.378V208.5Z" fill="#E6DC96"/>
<path d="M750.211 208.5H753.467V111.109H750.211V208.5Z" fill="#E6DC96"/>
<path d="M764.047 208.5H767.302V111.109H764.047V208.5Z" fill="#E6DC96"/>
<path d="M777.882 208.5H781.137V111.109H777.882V208.5Z" fill="#E6DC96"/>
<path d="M708.704 208.5H711.959V111.109H708.704V208.5Z" fill="#E6DC96"/>
<path d="M722.54 208.5H725.796V111.109H722.54V208.5Z" fill="#E6DC96"/>
<path d="M1347.5 93.4116C1350.86 84.0455 1359.79 77.3336 1370.32 77.3336H1412.84V287.589H1372.65H1346.06H1301.53V93.4116H1347.5Z" fill="#0C3D6F"/>
<path d="M1391.63 114.874H1399.7V106.803H1391.63V114.874Z" fill="#E6DC96"/>
<path d="M1374.64 114.874H1382.71V106.803H1374.64V114.874Z" fill="#E6DC96"/>
<path d="M1391.63 139.655H1399.7V131.584H1391.63V139.655Z" fill="#E6DC96"/>
<path d="M1374.64 139.655H1382.71V131.584H1374.64V139.655Z" fill="#E6DC96"/>
<path d="M1357.64 139.655H1365.71V131.584H1357.64V139.655Z" fill="#E6DC96"/>
<path d="M1391.63 164.433H1399.7V156.361H1391.63V164.433Z" fill="#E6DC96"/>
<path d="M1374.64 164.433H1382.71V156.361H1374.64V164.433Z" fill="#E6DC96"/>
<path d="M1357.64 164.433H1365.71V156.361H1357.64V164.433Z" fill="#E6DC96"/>
<path d="M1340.65 164.433H1348.72V156.361H1340.65V164.433Z" fill="#E6DC96"/>
<path d="M1391.63 189.212H1399.7V181.14H1391.63V189.212Z" fill="#E6DC96"/>
<path d="M1374.64 189.212H1382.71V181.14H1374.64V189.212Z" fill="#E6DC96"/>
<path d="M1357.64 189.212H1365.71V181.14H1357.64V189.212Z" fill="#E6DC96"/>
<path d="M1340.65 189.212H1348.72V181.14H1340.65V189.212Z" fill="#E6DC96"/>
<path d="M885.094 32.8206C876.456 32.8206 869.454 39.8236 869.454 48.4607V93.1869H848.6V76.2659C848.6 67.6277 841.597 60.6258 832.959 60.6258C824.321 60.6258 817.318 67.6288 817.318 76.2659V93.1869V121.816V248.495H900.735V94.0108V93.1879V48.4618C900.736 39.8235 893.733 32.8206 885.094 32.8206Z" fill="#0C3D6F"/>
<path d="M892.97 111.086H887.341V117.213H892.97V111.086Z" fill="#E6DC96"/>
<path d="M883.171 111.086H877.542V117.213H883.171V111.086Z" fill="#E6DC96"/>
<path d="M868.293 111.086H862.664V117.213H868.293V111.086Z" fill="#E6DC96"/>
<path d="M858.495 111.086H852.866V117.213H858.495V111.086Z" fill="#E6DC96"/>
<path d="M843.616 111.086H837.987V117.213H843.616V111.086Z" fill="#E6DC96"/>
<path d="M833.817 111.086H828.189V117.213H833.817V111.086Z" fill="#E6DC96"/>
<path d="M892.97 120.608H887.341V126.735H892.97V120.608Z" fill="#E6DC96"/>
<path d="M883.171 120.608H877.542V126.735H883.171V120.608Z" fill="#E6DC96"/>
<path d="M868.293 120.608H862.664V126.735H868.293V120.608Z" fill="#E6DC96"/>
<path d="M858.495 120.608H852.866V126.735H858.495V120.608Z" fill="#E6DC96"/>
<path d="M892.97 132.834H887.341V138.962H892.97V132.834Z" fill="#E6DC96"/>
<path d="M883.171 132.834H877.542V138.962H883.171V132.834Z" fill="#E6DC96"/>
<path d="M868.293 132.834H862.664V138.962H868.293V132.834Z" fill="#E6DC96"/>
<path d="M858.495 132.834H852.866V138.962H858.495V132.834Z" fill="#E6DC96"/>
<path d="M892.97 142.355H887.341V148.483H892.97V142.355Z" fill="#E6DC96"/>
<path d="M883.171 142.355H877.542V148.483H883.171V142.355Z" fill="#E6DC96"/>
<path d="M892.97 154.582H887.341V160.709H892.97V154.582Z" fill="#E6DC96"/>
<path d="M883.171 154.582H877.542V160.709H883.171V154.582Z" fill="#E6DC96"/>
<path d="M892.97 164.105H887.341V170.232H892.97V164.105Z" fill="#E6DC96"/>
<path d="M883.171 164.105H877.542V170.232H883.171V164.105Z" fill="#E6DC96"/>
<path d="M868.293 142.355H862.664V148.483H868.293V142.355Z" fill="#E6DC96"/>
<path d="M858.495 142.355H852.866V148.483H858.495V142.355Z" fill="#E6DC96"/>
<path d="M843.616 120.608H837.987V126.735H843.616V120.608Z" fill="#E6DC96"/>
<path d="M833.817 120.608H828.189V126.735H833.817V120.608Z" fill="#E6DC96"/>
<path d="M1189.69 100.232C1189.69 97.162 1191.44 94.5077 1194.01 93.2059V92.3481V72.7655H1215.55V0H1219.46V72.7655H1241V92.3481H1288V267.355H1194.01V167.244C1191.44 165.942 1189.69 163.287 1189.69 160.217C1189.69 157.147 1191.44 154.493 1194.01 153.191V147.249C1191.44 145.947 1189.69 143.292 1189.69 140.222C1189.69 137.152 1191.44 134.498 1194.01 133.196V127.254C1191.44 125.953 1189.69 123.298 1189.69 120.227C1189.69 117.157 1191.44 114.503 1194.01 113.201V107.258C1191.44 105.955 1189.69 103.302 1189.69 100.232Z" fill="#0C3D6F"/>
<path d="M1241.11 125.39H1276.26V121.969H1241.11V125.39Z" fill="#E6DC96"/>
<path d="M1241.11 140.084H1276.26V136.663H1241.11V140.084Z" fill="#E6DC96"/>
<path d="M1241.11 154.78H1276.26V151.359H1241.11V154.78Z" fill="#E6DC96"/>
<path d="M1241.11 169.477H1276.26V166.056H1241.11V169.477Z" fill="#E6DC96"/>
<path d="M1241.11 184.171H1276.26V180.75H1241.11V184.171Z" fill="#E6DC96"/>
<path d="M1241.11 198.867H1276.26V195.446H1241.11V198.867Z" fill="#E6DC96"/>
<path d="M1241.11 213.564H1276.26V210.143H1241.11V213.564Z" fill="#E6DC96"/>
<path d="M1241.11 228.258H1276.26V224.836H1241.11V228.258Z" fill="#E6DC96"/>
<path d="M1241.11 242.954H1276.26V239.532H1241.11V242.954Z" fill="#E6DC96"/>
<path d="M1241.11 257.651H1276.26V254.229H1241.11V257.651Z" fill="#E6DC96"/>
<path d="M952.678 69.3473V108.719H964.068V96.2452L987.722 85.3926V108.719V118.716V278.573H917.636V118.716V108.719V85.4264L952.678 69.3473Z" fill="#0C3D6F"/>
<path d="M966.057 135.517H971.276V122.524H966.057V135.517Z" fill="#E6DC96"/>
<path d="M957.543 127.742H962.762V122.523H957.543V127.742Z" fill="#E6DC96"/>
<path d="M957.543 135.514H962.762V130.294H957.543V135.514Z" fill="#E6DC96"/>
<path d="M942.594 135.517H947.813V122.524H942.594V135.517Z" fill="#E6DC96"/>
<path d="M934.08 127.742H939.3V122.523H934.08V127.742Z" fill="#E6DC96"/>
<path d="M934.08 135.514H939.3V130.294H934.08V135.514Z" fill="#E6DC96"/>
<path d="M966.057 157.757H971.276V144.765H966.057V157.757Z" fill="#E6DC96"/>
<path d="M957.543 149.984H962.762V144.765H957.543V149.984Z" fill="#E6DC96"/>
<path d="M957.543 157.757H962.762V152.538H957.543V157.757Z" fill="#E6DC96"/>
<path d="M942.594 157.757H947.813V144.765H942.594V157.757Z" fill="#E6DC96"/>
<path d="M934.08 149.984H939.3V144.765H934.08V149.984Z" fill="#E6DC96"/>
<path d="M934.08 157.757H939.3V152.538H934.08V157.757Z" fill="#E6DC96"/>
<path d="M966.057 179.996H971.276V167.004H966.057V179.996Z" fill="#E6DC96"/>
<path d="M957.543 172.225H962.762V167.006H957.543V172.225Z" fill="#E6DC96"/>
<path d="M957.543 179.998H962.762V174.779H957.543V179.998Z" fill="#E6DC96"/>
<path d="M942.594 179.996H947.813V167.004H942.594V179.996Z" fill="#E6DC96"/>
<path d="M934.08 172.225H939.3V167.006H934.08V172.225Z" fill="#E6DC96"/>
<path d="M934.08 179.998H939.3V174.779H934.08V179.998Z" fill="#E6DC96"/>
<path d="M966.057 202.239H971.276V189.247H966.057V202.239Z" fill="#E6DC96"/>
<path d="M957.543 194.468H962.762V189.248H957.543V194.468Z" fill="#E6DC96"/>
<path d="M957.543 202.239H962.762V197.02H957.543V202.239Z" fill="#E6DC96"/>
<path d="M942.594 202.239H947.813V189.247H942.594V202.239Z" fill="#E6DC96"/>
<path d="M934.08 194.468H939.3V189.248H934.08V194.468Z" fill="#E6DC96"/>
<path d="M934.08 202.239H939.3V197.02H934.08V202.239Z" fill="#E6DC96"/>
<path d="M1027.59 88.663V82.4882H1036.93L1041.9 42.0475H1043.76L1048.72 82.4882H1058.06V88.663C1071.87 89.9733 1082.57 99.0399 1082.57 110.051V282.598H1003.08V110.051C1003.08 99.0399 1013.78 89.9733 1027.59 88.663Z" fill="#0C3D6F"/>
<path d="M1046.74 118.168H1069.54V113.477H1046.74V118.168Z" fill="#E6DC96"/>
<path d="M1029.69 118.168H1034.38V113.477H1029.69V118.168Z" fill="#E6DC96"/>
<path d="M1017.13 118.168H1021.82V113.477H1017.13V118.168Z" fill="#E6DC96"/>
<path d="M1029.69 135.167H1034.38V130.476H1029.69V135.167Z" fill="#E6DC96"/>
<path d="M1017.13 135.167H1021.82V130.476H1017.13V135.167Z" fill="#E6DC96"/>
<path d="M1029.69 152.169H1034.38V147.479H1029.69V152.169Z" fill="#E6DC96"/>
<path d="M1017.13 152.169H1021.82V147.479H1017.13V152.169Z" fill="#E6DC96"/>
<path d="M1029.69 169.167H1034.38V164.476H1029.69V169.167Z" fill="#E6DC96"/>
<path d="M1017.13 169.167H1021.82V164.476H1017.13V169.167Z" fill="#E6DC96"/>
<path d="M1029.69 186.169H1034.38V181.479H1029.69V186.169Z" fill="#E6DC96"/>
<path d="M1017.13 186.169H1021.82V181.479H1017.13V186.169Z" fill="#E6DC96"/>
<path d="M1029.69 203.169H1034.38V198.479H1029.69V203.169Z" fill="#E6DC96"/>
<path d="M1017.13 203.169H1021.82V198.479H1017.13V203.169Z" fill="#E6DC96"/>
<path d="M1029.69 220.169H1034.38V215.479H1029.69V220.169Z" fill="#E6DC96"/>
<path d="M1017.13 220.169H1021.82V215.479H1017.13V220.169Z" fill="#E6DC96"/>
<path d="M1046.74 135.167H1069.54V130.476H1046.74V135.167Z" fill="#E6DC96"/>
<path d="M1046.74 152.169H1069.54V147.479H1046.74V152.169Z" fill="#E6DC96"/>
<path d="M1046.74 169.167H1069.54V164.476H1046.74V169.167Z" fill="#E6DC96"/>
<path d="M1046.74 186.169H1069.54V181.479H1046.74V186.169Z" fill="#E6DC96"/>
<path d="M1046.74 203.169H1069.54V198.479H1046.74V203.169Z" fill="#E6DC96"/>
<path d="M1046.74 220.169H1069.54V215.479H1046.74V220.169Z" fill="#E6DC96"/>
<path d="M1111.96 50.4757V66.3332V97.603H1121.39V77.5065V77.1352H1147.14V97.603H1161.75V281.607H1105.13V97.603V66.3332V50.4757H1111.96Z" fill="#0C3D6F"/>
<path d="M1147.42 120.178H1153.32V114.273H1147.42V120.178Z" fill="#E6DC96"/>
<path d="M1138.64 120.178H1144.55V114.273H1138.64V120.178Z" fill="#E6DC96"/>
<path d="M1122.09 120.178H1128V114.273H1122.09V120.178Z" fill="#E6DC96"/>
<path d="M1113.31 120.178H1119.22V114.273H1113.31V120.178Z" fill="#E6DC96"/>
<path d="M1147.42 135.394H1153.32V129.489H1147.42V135.394Z" fill="#E6DC96"/>
<path d="M1138.64 135.394H1144.55V129.489H1138.64V135.394Z" fill="#E6DC96"/>
<path d="M1147.42 143.134H1153.32V137.23H1147.42V143.134Z" fill="#E6DC96"/>
<path d="M1138.64 143.134H1144.55V137.23H1138.64V143.134Z" fill="#E6DC96"/>
<path d="M1122.09 135.394H1128V129.489H1122.09V135.394Z" fill="#E6DC96"/>
<path d="M1113.31 135.394H1119.22V129.489H1113.31V135.394Z" fill="#E6DC96"/>
<path d="M1122.09 143.134H1128V137.23H1122.09V143.134Z" fill="#E6DC96"/>
<path d="M1113.31 143.134H1119.22V137.23H1113.31V143.134Z" fill="#E6DC96"/>
<path d="M1147.42 158.35H1153.32V152.445H1147.42V158.35Z" fill="#E6DC96"/>
<path d="M1138.64 158.35H1144.55V152.445H1138.64V158.35Z" fill="#E6DC96"/>
<path d="M1147.42 166.091H1153.32V160.186H1147.42V166.091Z" fill="#E6DC96"/>
<path d="M1138.64 166.091H1144.55V160.186H1138.64V166.091Z" fill="#E6DC96"/>
<path d="M1122.09 158.35H1128V152.445H1122.09V158.35Z" fill="#E6DC96"/>
<path d="M1113.31 158.35H1119.22V152.445H1113.31V158.35Z" fill="#E6DC96"/>
<path d="M1122.09 166.091H1128V160.186H1122.09V166.091Z" fill="#E6DC96"/>
<path d="M1113.31 166.091H1119.22V160.186H1113.31V166.091Z" fill="#E6DC96"/>
<path d="M452.423 147.54V110.21H428.573V138.318V188.222H399.719V283.971H510.875V192.357V188.222V170.14L452.423 147.54Z" fill="#0C3D6F"/>
<path d="M619.28 133.397V73.3468H623.642V64.4037H619.28H542.089H537.726V73.3468H542.089V133.397H528.833V324.833H632.535V133.397H619.28Z" fill="#0C3D6F"/>
<path d="M574.294 114.686C575.261 110.575 572.713 106.459 568.602 105.492C564.491 104.524 560.374 107.073 559.407 111.184C558.44 115.294 560.989 119.411 565.099 120.378C569.21 121.345 573.327 118.797 574.294 114.686Z" fill="#E6DC96"/>
<path d="M603.428 112.936C603.428 117.159 600.005 120.583 595.782 120.583C591.559 120.583 588.135 117.159 588.135 112.936C588.135 108.713 591.559 105.29 595.782 105.29C600.005 105.29 603.428 108.713 603.428 112.936Z" fill="#E6DC96"/>
<path d="M80.9575 109.357V81.2487L24.2984 94.3959V109.357H16.5717V341.891H88.6842V109.357H80.9575Z" fill="#0C3D6F"/>
<path d="M49.0861 122.124H28.8472V125.209H49.0861V122.124Z" fill="#E6DC96"/>
<path d="M76.4086 122.124H56.1697V125.209H76.4086V122.124Z" fill="#E6DC96"/>
<path d="M49.0861 133.833H28.8472V136.917H49.0861V133.833Z" fill="#E6DC96"/>
<path d="M76.4086 133.833H56.1697V136.917H76.4086V133.833Z" fill="#E6DC96"/>
<path d="M49.0861 145.543H28.8472V148.626H49.0861V145.543Z" fill="#E6DC96"/>
<path d="M76.4086 145.543H56.1697V148.626H76.4086V145.543Z" fill="#E6DC96"/>
<path d="M49.0861 157.253H28.8472V160.337H49.0861V157.253Z" fill="#E6DC96"/>
<path d="M76.4086 157.253H56.1697V160.337H76.4086V157.253Z" fill="#E6DC96"/>
<path d="M49.0861 168.962H28.8472V172.046H49.0861V168.962Z" fill="#E6DC96"/>
<path d="M76.4086 168.962H56.1697V172.046H76.4086V168.962Z" fill="#E6DC96"/>
<path d="M49.0861 180.672H28.8472V183.755H49.0861V180.672Z" fill="#E6DC96"/>
<path d="M76.4086 180.672H56.1697V183.755H76.4086V180.672Z" fill="#E6DC96"/>
<path d="M49.0861 192.381H28.8472V195.465H49.0861V192.381Z" fill="#E6DC96"/>
<path d="M76.4086 192.381H56.1697V195.465H76.4086V192.381Z" fill="#E6DC96"/>
<path d="M49.0861 204.09H28.8472V207.174H49.0861V204.09Z" fill="#E6DC96"/>
<path d="M76.4086 204.09H56.1697V207.174H76.4086V204.09Z" fill="#E6DC96"/>
<path d="M49.0861 215.799H28.8472V218.883H49.0861V215.799Z" fill="#E6DC96"/>
<path d="M76.4086 215.799H56.1697V218.883H76.4086V215.799Z" fill="#E6DC96"/>
<path d="M182.135 129.275V101.212H178.727V96.7042H125.383C125.45 96.2179 125.484 95.7189 125.439 95.204L122.297 59.2575C122.248 58.6973 121.902 58.2342 121.445 58.1688C120.916 58.0929 120.439 58.5802 120.38 59.2575L117.238 95.204C117.208 95.5775 117.204 95.9879 117.238 96.3762C117.249 96.4901 117.278 96.5934 117.294 96.7053H107.178V317.958H178.726V233.215H182.134V205.153H178.726V198.567H182.134V170.506H178.726V163.921H182.134V135.859H178.726V129.274L182.135 129.275Z" fill="#0C3D6F"/>
<path d="M130.859 113.254H119.15V124.395H130.859V113.254Z" fill="#E6DC96"/>
<path d="M150.231 113.254H138.521V124.395H150.231V113.254Z" fill="#E6DC96"/>
<path d="M169.603 113.254H157.893V124.395H169.603V113.254Z" fill="#E6DC96"/>
<path d="M130.859 146.678H119.15V157.819H130.859V146.678Z" fill="#E6DC96"/>
<path d="M150.231 146.678H138.521V157.819H150.231V146.678Z" fill="#E6DC96"/>
<path d="M169.603 146.678H157.893V157.819H169.603V146.678Z" fill="#E6DC96"/>
<path d="M130.859 180.102H119.15V191.243H130.859V180.102Z" fill="#E6DC96"/>
<path d="M150.231 180.102H138.521V191.243H150.231V180.102Z" fill="#E6DC96"/>
<path d="M169.603 180.102H157.893V191.243H169.603V180.102Z" fill="#E6DC96"/>
<path d="M130.859 213.526H119.15V224.668H130.859V213.526Z" fill="#E6DC96"/>
<path d="M150.231 213.526H138.521V224.668H150.231V213.526Z" fill="#E6DC96"/>
<path d="M169.603 213.526H157.893V224.668H169.603V213.526Z" fill="#E6DC96"/>
<path d="M256.027 146.585L233.795 104.848H201.428V146.585V151.221V316.088H272.976V146.585H256.027Z" fill="#0C3D6F"/>
<path d="M208.8 163.551V188.704H214.004V163.551H208.8Z" fill="#E6DC96"/>
<path d="M217.86 139.376V144.7H223.064V139.376H217.86Z" fill="#E6DC96"/>
<path d="M226.534 139.377V144.701H231.738V139.377H226.534Z" fill="#E6DC96"/>
<path d="M217.859 126.126V131.449H223.063V126.126H217.859Z" fill="#E6DC96"/>
<path d="M226.533 126.126V131.449H231.737V126.126H226.533Z" fill="#E6DC96"/>
<path d="M235.198 139.377V144.701H240.403V139.377H235.198Z" fill="#E6DC96"/>
<path d="M235.197 126.126V131.449H240.402V126.126H235.197Z" fill="#E6DC96"/>
<path d="M217.858 112.873V118.196H223.062V112.873H217.858Z" fill="#E6DC96"/>
<path d="M208.801 139.376V144.7H214.005V139.376H208.801Z" fill="#E6DC96"/>
<path d="M208.8 126.126V131.449H214.004V126.126H208.8Z" fill="#E6DC96"/>
<path d="M208.8 112.874V118.197H214.004V112.874H208.8Z" fill="#E6DC96"/>
<path d="M226.533 112.875V118.198H231.737V112.875H226.533Z" fill="#E6DC96"/>
<path d="M217.859 163.551V188.704H223.063V163.551H217.859Z" fill="#E6DC96"/>
<path d="M226.533 163.552V188.705H231.737V163.552H226.533Z" fill="#E6DC96"/>
<path d="M235.592 163.551V188.704H240.796V163.551H235.592Z" fill="#E6DC96"/>
<path d="M244.265 163.551V188.704H249.469V163.551H244.265Z" fill="#E6DC96"/>
<path d="M253.324 163.551V188.704H258.528V163.551H253.324Z" fill="#E6DC96"/>
<path d="M336.849 118.234V86.4213H292.384V291.996H380.29V118.234H336.849Z" fill="#0C3D6F"/>
<path d="M352.2 131.922H343.141V134.62H352.2V131.922Z" fill="#E6DC96"/>
<path d="M328.208 131.922H301.06V134.62H328.208V131.922Z" fill="#E6DC96"/>
<path d="M352.2 147.503H343.141V150.201H352.2V147.503Z" fill="#E6DC96"/>
<path d="M328.208 147.503H301.06V150.201H328.208V147.503Z" fill="#E6DC96"/>
<path d="M352.2 163.084H343.141V165.783H352.2V163.084Z" fill="#E6DC96"/>
<path d="M328.208 163.084H301.06V165.783H328.208V163.084Z" fill="#E6DC96"/>
<path d="M352.2 178.664H343.141V181.362H352.2V178.664Z" fill="#E6DC96"/>
<path d="M328.208 178.664H301.06V181.362H328.208V178.664Z" fill="#E6DC96"/>
<path d="M352.2 194.245H343.141V196.944H352.2V194.245Z" fill="#E6DC96"/>
<path d="M328.208 194.245H301.06V196.944H328.208V194.245Z" fill="#E6DC96"/>
<path d="M352.2 209.826H343.141V212.525H352.2V209.826Z" fill="#E6DC96"/>
<path d="M370.32 131.922H361.261V134.62H370.32V131.922Z" fill="#E6DC96"/>
<path d="M370.32 147.503H361.261V150.201H370.32V147.503Z" fill="#E6DC96"/>
<path d="M370.32 163.084H361.261V165.783H370.32V163.084Z" fill="#E6DC96"/>
<path d="M370.32 178.664H361.261V181.362H370.32V178.664Z" fill="#E6DC96"/>
<path d="M370.32 194.245H361.261V196.944H370.32V194.245Z" fill="#E6DC96"/>
<path d="M370.32 209.826H361.261V212.525H370.32V209.826Z" fill="#E6DC96"/>
<path d="M328.208 209.826H301.06V212.525H328.208V209.826Z" fill="#E6DC96"/>
</svg>
