<svg width="94" height="94" viewBox="0 0 94 94" fill="none" xmlns="http://www.w3.org/2000/svg">
<path d="M79.3125 26.4375H77.8438V19.0938C77.8438 17.1461 77.07 15.2782 75.6928 13.9009C74.3156 12.5237 72.4477 11.75 70.5 11.75H23.5C21.5523 11.75 19.6844 12.5237 18.3072 13.9009C16.93 15.2782 16.1563 17.1461 16.1562 19.0938V26.4375H14.6875C13.5189 26.4375 12.3981 26.9017 11.5718 27.7281C10.7455 28.5544 10.2812 29.6751 10.2812 30.8438V41.125C10.2812 42.2936 10.7455 43.4144 11.5718 44.2407C12.3981 45.067 13.5189 45.5312 14.6875 45.5312H16.1562V69.0312C16.1559 70.7242 16.7405 72.3653 17.8111 73.6768C18.8817 74.9882 20.3725 75.8895 22.0312 76.2281V79.3125C22.0312 80.0916 22.3407 80.8387 22.8916 81.3896C23.4425 81.9405 24.1897 82.25 24.9688 82.25H33.7812C34.5603 82.25 35.3075 81.9405 35.8584 81.3896C36.4093 80.8387 36.7188 80.0916 36.7188 79.3125V76.375H57.2812V79.3125C57.2812 80.0916 57.5907 80.8387 58.1416 81.3896C58.6925 81.9405 59.4397 82.25 60.2188 82.25H69.0312C69.8103 82.25 70.5575 81.9405 71.1084 81.3896C71.6593 80.8387 71.9688 80.0916 71.9688 79.3125V76.2281C73.6275 75.8895 75.1183 74.9882 76.1889 73.6768C77.2595 72.3653 77.8441 70.7242 77.8438 69.0312V45.5312H79.3125C80.4811 45.5312 81.6019 45.067 82.4282 44.2407C83.2545 43.4144 83.7188 42.2936 83.7188 41.125V30.8438C83.7188 29.6751 83.2545 28.5544 82.4282 27.7281C81.6019 26.9017 80.4811 26.4375 79.3125 26.4375ZM23.5 52.875C22.3314 52.875 21.2106 52.4108 20.3843 51.5844C19.558 50.7581 19.0938 49.6374 19.0938 48.4688V27.9062C19.0938 27.5167 19.2485 27.1431 19.5239 26.8677C19.7994 26.5922 20.173 26.4375 20.5625 26.4375H45.5312V52.875H23.5ZM48.4688 26.4375H73.4375C73.827 26.4375 74.2006 26.5922 74.4761 26.8677C74.7515 27.1431 74.9062 27.5167 74.9062 27.9062V48.4688C74.9062 49.6374 74.442 50.7581 73.6157 51.5844C72.7894 52.4108 71.6686 52.875 70.5 52.875H48.4688V26.4375ZM23.5 14.6875H70.5C71.6686 14.6875 72.7894 15.1517 73.6157 15.9781C74.442 16.8044 74.9062 17.9251 74.9062 19.0938V23.7644C74.4353 23.5934 73.9386 23.504 73.4375 23.5H20.5625C20.0614 23.504 19.5647 23.5934 19.0938 23.7644V19.0938C19.0938 17.9251 19.558 16.8044 20.3843 15.9781C21.2106 15.1517 22.3314 14.6875 23.5 14.6875ZM14.6875 42.5938C14.298 42.5938 13.9244 42.439 13.6489 42.1636C13.3735 41.8881 13.2188 41.5145 13.2188 41.125V30.8438C13.2188 30.4542 13.3735 30.0806 13.6489 29.8052C13.9244 29.5297 14.298 29.375 14.6875 29.375H16.1562V42.5938H14.6875ZM33.7812 79.3125H24.9688V76.375H33.7812V79.3125ZM60.2188 79.3125V76.375H69.0312V79.3125H60.2188ZM70.5 73.4375H23.5C22.3314 73.4375 21.2106 72.9733 20.3843 72.1469C19.558 71.3206 19.0938 70.1999 19.0938 69.0312V54.3438C20.3609 55.3049 21.9096 55.8211 23.5 55.8125H70.5C72.0904 55.8211 73.6391 55.3049 74.9062 54.3438V69.0312C74.9062 70.1999 74.442 71.3206 73.6157 72.1469C72.7894 72.9733 71.6686 73.4375 70.5 73.4375ZM80.7812 41.125C80.7812 41.5145 80.6265 41.8881 80.3511 42.1636C80.0756 42.439 79.702 42.5938 79.3125 42.5938H77.8438V29.375H79.3125C79.702 29.375 80.0756 29.5297 80.3511 29.8052C80.6265 30.0806 80.7812 30.4542 80.7812 30.8438V41.125Z" fill="#00F260"/>
<path d="M35.25 20.5625H58.75C59.1395 20.5625 59.5131 20.4078 59.7886 20.1323C60.064 19.8569 60.2188 19.4833 60.2188 19.0938C60.2188 18.7042 60.064 18.3306 59.7886 18.0552C59.5131 17.7797 59.1395 17.625 58.75 17.625H35.25C34.8605 17.625 34.4869 17.7797 34.2114 18.0552C33.936 18.3306 33.7812 18.7042 33.7812 19.0938C33.7812 19.4833 33.936 19.8569 34.2114 20.1323C34.4869 20.4078 34.8605 20.5625 35.25 20.5625Z" fill="#00F260"/>
<path d="M33.5903 60.9531L27.3922 59.5724C26.748 59.4295 26.0799 59.433 25.4372 59.5828C24.7946 59.7326 24.1938 60.0248 23.6792 60.4379C23.1646 60.851 22.7494 61.3744 22.4641 61.9694C22.1789 62.5645 22.031 63.216 22.0313 63.8759V66.0937C22.0313 67.2623 22.4955 68.383 23.3218 69.2094C24.1481 70.0357 25.2689 70.4999 26.4375 70.4999H35.25C36.0291 70.4999 36.7762 70.1905 37.3271 69.6396C37.878 69.0887 38.1875 68.3415 38.1875 67.5624V66.6959C38.1894 65.3583 37.7349 64.0601 36.899 63.0159C36.0631 61.9717 34.8959 61.244 33.5903 60.9531ZM26.4375 67.5624C26.048 67.5624 25.6744 67.4077 25.3989 67.1323C25.1235 66.8568 24.9688 66.4832 24.9688 66.0937V63.8759C24.968 63.6565 25.0164 63.4396 25.1105 63.2414C25.2045 63.0431 25.3418 62.8685 25.5122 62.7303C25.6858 62.5926 25.8882 62.496 26.1044 62.4477C26.3206 62.3993 26.545 62.4005 26.7606 62.4512L32.9441 63.8171C33.6094 63.9634 34.2033 64.3364 34.6239 64.8723C35.0446 65.4081 35.2659 66.0736 35.25 66.7546V67.5624H26.4375Z" fill="#00F260"/>
<path d="M66.6078 59.5724L60.4097 60.9531C59.1041 61.244 57.9369 61.9717 57.101 63.0159C56.2651 64.0601 55.8106 65.3583 55.8125 66.6959V67.5624C55.8125 68.3415 56.122 69.0887 56.6729 69.6396C57.2238 70.1905 57.9709 70.4999 58.75 70.4999H67.5625C68.7311 70.4999 69.8519 70.0357 70.6782 69.2094C71.5045 68.383 71.9688 67.2623 71.9688 66.0937V63.8759C71.969 63.216 71.8211 62.5645 71.5359 61.9694C71.2506 61.3744 70.8354 60.851 70.3208 60.4379C69.8062 60.0248 69.2054 59.7326 68.5628 59.5828C67.9201 59.433 67.252 59.4295 66.6078 59.5724ZM69.0313 66.0937C69.0313 66.4832 68.8765 66.8568 68.6011 67.1323C68.3256 67.4077 67.952 67.5624 67.5625 67.5624H58.75V66.6959C58.7341 66.0148 58.9554 65.3494 59.3761 64.8135C59.7968 64.2777 60.3906 63.9047 61.0559 63.7584L67.2394 62.3924C67.455 62.3418 67.6794 62.3406 67.8956 62.3889C68.1118 62.4372 68.3142 62.5338 68.4878 62.6715C68.6582 62.8097 68.7955 62.9844 68.8895 63.1827C68.9836 63.3809 69.032 63.5977 69.0313 63.8171V66.0937Z" fill="#00F260"/>
<path d="M51.4062 66.0938H42.5938C42.2042 66.0938 41.8306 66.2485 41.5552 66.5239C41.2797 66.7994 41.125 67.173 41.125 67.5625C41.125 67.952 41.2797 68.3256 41.5552 68.6011C41.8306 68.8765 42.2042 69.0312 42.5938 69.0312H51.4062C51.7958 69.0312 52.1694 68.8765 52.4448 68.6011C52.7203 68.3256 52.875 67.952 52.875 67.5625C52.875 67.173 52.7203 66.7994 52.4448 66.5239C52.1694 66.2485 51.7958 66.0938 51.4062 66.0938Z" fill="#00F260"/>
<path d="M52.875 60.2188H41.125C40.7355 60.2188 40.3619 60.3735 40.0864 60.6489C39.811 60.9244 39.6562 61.298 39.6562 61.6875C39.6562 62.077 39.811 62.4506 40.0864 62.7261C40.3619 63.0015 40.7355 63.1562 41.125 63.1562H52.875C53.2645 63.1562 53.6381 63.0015 53.9136 62.7261C54.189 62.4506 54.3438 62.077 54.3438 61.6875C54.3438 61.298 54.189 60.9244 53.9136 60.6489C53.6381 60.3735 53.2645 60.2188 52.875 60.2188Z" fill="#00F260"/>
</svg>
