<svg width="155" height="48" viewBox="0 0 155 48" fill="none" xmlns="http://www.w3.org/2000/svg">
<path d="M45.5077 13.2923H43.0154C42.6462 13.2923 42.3692 13.5692 42.3692 13.9385V19.7538C42.3692 20.1231 42.6462 20.4 43.0154 20.4H45.5077C45.8769 20.4 46.1538 20.1231 46.1538 19.7538V13.9385C46.1538 13.6615 45.8769 13.2923 45.5077 13.2923Z" fill="#515151"/>
<path d="M44.7692 15.0461H43.8462V12.6461C43.8462 12.1846 43.4769 11.7231 42.9231 11.7231H39.2308V10.8H42.9231C43.9385 10.8 44.6769 11.6308 44.6769 12.5538V15.0461H44.7692ZM2.49231 13.2923H4.98461C5.35385 13.2923 5.63077 13.5692 5.63077 13.9384V19.7538C5.63077 20.1231 5.35385 20.4 4.98461 20.4H2.49231C2.12308 20.4 1.84615 20.1231 1.84615 19.7538V13.9384C1.84615 13.6615 2.12308 13.2923 2.49231 13.2923Z" fill="#515151"/>
<path d="M3.23077 15.0461H4.15384V12.6461C4.15384 12.1846 4.52307 11.7231 5.07692 11.7231H8.76923V10.8H5.07692C4.06154 10.8 3.32307 11.6308 3.32307 12.5538V15.0461H3.23077ZM9.32307 36.3692V42.5538C9.32307 43.2923 9.87692 43.8461 10.6154 43.8461H14.6769C15.4154 43.8461 15.9692 43.2923 15.9692 42.5538V36.3692H9.32307ZM31.9385 36.3692V42.5538C31.9385 43.2923 32.4923 43.8461 33.2308 43.8461H37.2923C38.0308 43.8461 38.5846 43.2923 38.5846 42.5538V36.3692H31.9385Z" fill="#515151"/>
<path d="M38.6769 4.15387H9.32307C8.03077 4.15387 7.01538 5.16925 7.01538 6.46156V37.2C7.01538 38.4923 8.12307 39.6 9.41538 39.6H38.6769C39.9692 39.6 41.0769 38.4923 41.0769 37.2V6.46156C40.9846 5.16925 39.9692 4.15387 38.6769 4.15387Z" fill="#FFCC66"/>
<path d="M9.50769 11.1693H38.5846V26.6769H9.50769V11.1693Z" fill="white"/>
<path d="M24.5538 12.2769H37.4769V25.6615H24.5538V12.2769ZM10.5231 12.2769H23.4462V25.6615H10.5231V12.2769Z" fill="#54BBFF"/>
<path d="M35.3538 36.3693C37.1382 36.3693 38.5846 34.9228 38.5846 33.1385C38.5846 31.3542 37.1382 29.9077 35.3538 29.9077C33.5695 29.9077 32.1231 31.3542 32.1231 33.1385C32.1231 34.9228 33.5695 36.3693 35.3538 36.3693Z" fill="white"/>
<path d="M35.3538 35.6308C36.7303 35.6308 37.8462 34.515 37.8462 33.1385C37.8462 31.762 36.7303 30.6462 35.3538 30.6462C33.9774 30.6462 32.8615 31.762 32.8615 33.1385C32.8615 34.515 33.9774 35.6308 35.3538 35.6308Z" fill="#ED7161"/>
<path d="M12.6462 36.3693C14.4305 36.3693 15.8769 34.9228 15.8769 33.1385C15.8769 31.3542 14.4305 29.9077 12.6462 29.9077C10.8618 29.9077 9.41538 31.3542 9.41538 33.1385C9.41538 34.9228 10.8618 36.3693 12.6462 36.3693Z" fill="white"/>
<path d="M12.6462 35.6308C14.0226 35.6308 15.1385 34.515 15.1385 33.1385C15.1385 31.762 14.0226 30.6462 12.6462 30.6462C11.2697 30.6462 10.1538 31.762 10.1538 33.1385C10.1538 34.515 11.2697 35.6308 12.6462 35.6308Z" fill="#ED7161"/>
<path d="M28.2462 29.8154H19.6615C19.2923 29.8154 18.9231 30.0923 18.9231 30.5538C18.9231 30.9231 19.2 31.2923 19.6615 31.2923H28.2462C28.6154 31.2923 28.9846 31.0154 28.9846 30.5538C28.9846 30.0923 28.7077 29.8154 28.2462 29.8154ZM28.2462 32.4H19.6615C19.2923 32.4 18.9231 32.6769 18.9231 33.1384C18.9231 33.5077 19.2 33.8769 19.6615 33.8769H28.2462C28.6154 33.8769 28.9846 33.6 28.9846 33.1384C28.9846 32.7692 28.7077 32.4 28.2462 32.4ZM28.2462 35.0769H19.6615C19.2923 35.0769 18.9231 35.3538 18.9231 35.8154C18.9231 36.1846 19.2 36.5538 19.6615 36.5538H28.2462C28.6154 36.5538 28.9846 36.2769 28.9846 35.8154C28.9846 35.4461 28.7077 35.0769 28.2462 35.0769Z" fill="#E7B95D"/>
<path d="M29.7231 6.18463H18.2769C17.2615 6.18463 16.5231 7.0154 16.5231 7.93848C16.5231 8.95386 17.3538 9.69232 18.2769 9.69232H29.6308C30.6462 9.69232 31.3846 8.86155 31.3846 7.93848C31.4769 6.92309 30.6462 6.18463 29.7231 6.18463Z" fill="#515151"/>
<path d="M19.1077 8.58463C19.2 8.58463 19.2923 8.58463 19.3846 8.49233C19.4769 8.49233 19.5692 8.40002 19.6615 8.30771L19.8462 8.49233C19.6615 8.67694 19.3846 8.76925 19.2 8.76925C18.9231 8.76925 18.7385 8.67694 18.5538 8.49233C18.3692 8.30771 18.2769 8.1231 18.2769 7.84617C18.2769 7.56925 18.3692 7.38463 18.5538 7.20002C18.7385 7.0154 18.9231 6.9231 19.2 6.9231C19.4769 6.9231 19.7538 7.0154 19.9385 7.20002L19.7538 7.38463C19.5692 7.47694 19.4769 7.38463 19.3846 7.38463C19.2923 7.38463 19.2 7.29233 19.1077 7.29233C18.9231 7.29233 18.7385 7.38463 18.6462 7.47694C18.5538 7.56925 18.4615 7.75387 18.4615 7.93848C18.4615 8.1231 18.5538 8.30771 18.6462 8.40002C18.8308 8.49233 18.9231 8.58463 19.1077 8.58463ZM20.1231 7.0154H20.4V8.76925H20.1231V7.0154ZM21.6 7.29233V8.76925H21.3231V7.29233H20.7692V7.0154H22.1538V7.29233H21.6ZM23.2615 8.86156H22.9846V8.1231L22.3385 7.0154H22.7077L23.0769 7.84617L23.5385 7.0154H23.9077L23.2615 8.1231V8.86156ZM25.5692 8.86156H24.8308V7.0154H25.8462C25.9385 7.0154 26.0308 7.10771 26.0308 7.10771C26.1231 7.20002 26.1231 7.29233 26.1231 7.38463C26.1231 7.56925 26.1231 7.66156 26.0308 7.66156H25.8462C25.9385 7.66156 26.0308 7.75386 26.1231 7.84617C26.2154 7.93848 26.2154 8.03079 26.2154 8.1231C26.2154 8.2154 26.2154 8.40002 26.1231 8.49233C26.0308 8.76925 25.8462 8.86156 25.5692 8.86156ZM25.1077 7.84617H25.4769C25.6615 7.84617 25.8462 7.75387 25.8462 7.66156C25.8462 7.56925 25.8462 7.47694 25.7538 7.47694C25.6615 7.47694 25.6615 7.38463 25.4769 7.38463H25.1077V7.84617ZM25.1077 8.58463H25.5692C25.6615 8.58463 25.7538 8.58463 25.8462 8.49233C25.9385 8.49233 25.9385 8.40002 25.9385 8.30771C25.9385 8.1231 25.8462 8.03079 25.5692 8.03079H25.1077V8.58463ZM27.0462 8.40002C27.1385 8.49233 27.2308 8.58463 27.4154 8.58463C27.6 8.58463 27.6923 8.49233 27.7846 8.40002C27.8769 8.30771 27.8769 8.2154 27.8769 8.03079V7.0154H28.1538V8.03079C28.1538 8.30771 28.0615 8.49233 27.9692 8.58463C27.7846 8.76925 27.6 8.76925 27.4154 8.76925C27.2308 8.76925 27.0462 8.67694 26.8615 8.58463C26.6769 8.40002 26.6769 8.2154 26.6769 8.03079V7.0154H26.9538V8.03079C26.8615 8.2154 26.9538 8.30771 27.0462 8.40002ZM29.1692 7.29233C29.0769 7.29233 28.9846 7.29233 28.9846 7.38463C28.8923 7.38463 28.8923 7.47694 28.8923 7.56925C28.8923 7.66156 28.8923 7.66156 28.9846 7.75386C29.0769 7.75386 29.1692 7.84617 29.3538 7.84617C29.5385 7.84617 29.6308 7.93848 29.7231 8.03079C29.8154 8.1231 29.9077 8.2154 29.9077 8.40002C29.9077 8.58463 29.8154 8.67694 29.7231 8.76925C29.6308 8.86156 29.4462 8.95386 29.2615 8.95386C28.9846 8.95386 28.7077 8.86156 28.5231 8.67694L28.6154 8.30771C28.8 8.49233 28.9846 8.58463 29.1692 8.58463C29.2615 8.58463 29.3538 8.58463 29.4462 8.49233C29.5385 8.49233 29.5385 8.40002 29.5385 8.30771C29.5385 8.2154 29.5385 8.2154 29.4462 8.1231C29.3538 8.1231 29.2615 8.03079 29.1692 8.03079C29.0769 8.03079 28.8923 7.93848 28.8923 7.93848C28.8 7.93848 28.8 7.84617 28.7077 7.84617C28.6154 7.75386 28.5231 7.66156 28.5231 7.47694C28.5231 7.29233 28.6154 7.20002 28.7077 7.10771C28.8 7.0154 28.9846 7.0154 29.1692 7.0154C29.2615 7.0154 29.3538 7.0154 29.5385 7.10771C29.6308 7.10771 29.7231 7.20002 29.8154 7.29233L29.6308 7.47694C29.5385 7.38463 29.5385 7.38463 29.4462 7.38463C29.3538 7.29233 29.2615 7.29233 29.1692 7.29233Z" fill="white"/>
<path d="M9.32307 4.15387C9.32307 5.7231 38.5846 5.7231 38.5846 4.15387H9.32307ZM38.6769 39.6923C38.6769 38.1231 9.41538 38.1231 9.41538 39.6923H38.6769Z" fill="#E0AE55"/>
<path d="M153.598 26.4769H152.196C151.988 26.4769 151.833 26.6327 151.833 26.8404V30.1115C151.833 30.3192 151.988 30.475 152.196 30.475H153.598C153.806 30.475 153.962 30.3192 153.962 30.1115V26.8404C153.962 26.6846 153.806 26.4769 153.598 26.4769Z" fill="#515151"/>
<path d="M153.183 27.4635H152.663V26.1135C152.663 25.8539 152.456 25.5942 152.144 25.5942H150.067V25.075H152.144C152.715 25.075 153.131 25.5423 153.131 26.0616V27.4635H153.183ZM129.402 26.4769H130.804C131.012 26.4769 131.167 26.6327 131.167 26.8404V30.1116C131.167 30.3192 131.012 30.475 130.804 30.475H129.402C129.194 30.475 129.038 30.3192 129.038 30.1116V26.8404C129.038 26.6846 129.194 26.4769 129.402 26.4769Z" fill="#515151"/>
<path d="M129.817 27.4635H130.337V26.1135C130.337 25.8539 130.544 25.5942 130.856 25.5942H132.933V25.075H130.856C130.285 25.075 129.869 25.5423 129.869 26.0616V27.4635H129.817ZM133.244 39.4577V42.9366C133.244 43.3519 133.556 43.6635 133.971 43.6635H136.256C136.671 43.6635 136.983 43.3519 136.983 42.9366V39.4577H133.244ZM145.965 39.4577V42.9366C145.965 43.3519 146.277 43.6635 146.692 43.6635H148.977C149.392 43.6635 149.704 43.3519 149.704 42.9366V39.4577H145.965Z" fill="#515151"/>
<path d="M149.756 21.3365H133.244C132.517 21.3365 131.946 21.9077 131.946 22.6346V39.925C131.946 40.6519 132.569 41.275 133.296 41.275H149.756C150.483 41.275 151.106 40.6519 151.106 39.925V22.6346C151.054 21.9077 150.483 21.3365 149.756 21.3365Z" fill="#B0842A"/>
<path d="M133.348 25.2827H149.704V34.0058H133.348V25.2827Z" fill="white"/>
<path d="M141.812 25.9058H149.081V33.4346H141.812V25.9058ZM133.919 25.9058H141.188V33.4346H133.919V25.9058Z" fill="#54BBFF"/>
<path d="M147.887 39.4577C148.89 39.4577 149.704 38.644 149.704 37.6404C149.704 36.6367 148.89 35.8231 147.887 35.8231C146.883 35.8231 146.069 36.6367 146.069 37.6404C146.069 38.644 146.883 39.4577 147.887 39.4577Z" fill="white"/>
<path d="M147.887 39.0423C148.661 39.0423 149.288 38.4146 149.288 37.6404C149.288 36.8661 148.661 36.2385 147.887 36.2385C147.112 36.2385 146.485 36.8661 146.485 37.6404C146.485 38.4146 147.112 39.0423 147.887 39.0423Z" fill="#ED7161"/>
<path d="M135.113 39.4577C136.117 39.4577 136.931 38.644 136.931 37.6404C136.931 36.6367 136.117 35.8231 135.113 35.8231C134.11 35.8231 133.296 36.6367 133.296 37.6404C133.296 38.644 134.11 39.4577 135.113 39.4577Z" fill="white"/>
<path d="M135.113 39.0423C135.888 39.0423 136.515 38.4146 136.515 37.6404C136.515 36.8661 135.888 36.2385 135.113 36.2385C134.339 36.2385 133.712 36.8661 133.712 37.6404C133.712 38.4146 134.339 39.0423 135.113 39.0423Z" fill="#ED7161"/>
<path d="M143.888 35.7712H139.06C138.852 35.7712 138.644 35.9269 138.644 36.1866C138.644 36.3943 138.8 36.6019 139.06 36.6019H143.888C144.096 36.6019 144.304 36.4462 144.304 36.1866C144.304 35.9269 144.148 35.7712 143.888 35.7712ZM143.888 37.225H139.06C138.852 37.225 138.644 37.3808 138.644 37.6404C138.644 37.8481 138.8 38.0558 139.06 38.0558H143.888C144.096 38.0558 144.304 37.9 144.304 37.6404C144.304 37.4327 144.148 37.225 143.888 37.225ZM143.888 38.7308H139.06C138.852 38.7308 138.644 38.8866 138.644 39.1462C138.644 39.3539 138.8 39.5616 139.06 39.5616H143.888C144.096 39.5616 144.304 39.4058 144.304 39.1462C144.304 38.9385 144.148 38.7308 143.888 38.7308Z" fill="#6A4D11"/>
<path d="M144.719 22.4788H138.281C137.71 22.4788 137.294 22.9461 137.294 23.4654C137.294 24.0365 137.762 24.4519 138.281 24.4519H144.667C145.238 24.4519 145.654 23.9846 145.654 23.4654C145.706 22.8942 145.238 22.4788 144.719 22.4788Z" fill="#515151"/>
<path d="M138.748 23.8288C138.8 23.8288 138.852 23.8288 138.904 23.7769C138.956 23.7769 139.008 23.725 139.06 23.6731L139.163 23.7769C139.06 23.8808 138.904 23.9327 138.8 23.9327C138.644 23.9327 138.54 23.8808 138.437 23.7769C138.333 23.6731 138.281 23.5692 138.281 23.4135C138.281 23.2577 138.333 23.1538 138.437 23.05C138.54 22.9461 138.644 22.8942 138.8 22.8942C138.956 22.8942 139.112 22.9461 139.215 23.05L139.112 23.1538C139.008 23.2058 138.956 23.1538 138.904 23.1538C138.852 23.1538 138.8 23.1019 138.748 23.1019C138.644 23.1019 138.54 23.1538 138.488 23.2058C138.437 23.2577 138.385 23.3615 138.385 23.4654C138.385 23.5692 138.437 23.6731 138.488 23.725C138.592 23.7769 138.644 23.8288 138.748 23.8288ZM139.319 22.9461H139.475V23.9327H139.319V22.9461ZM140.15 23.1019V23.9327H139.994V23.1019H139.683V22.9461H140.462V23.1019H140.15ZM141.085 23.9846H140.929V23.5692L140.565 22.9461H140.773L140.981 23.4135L141.24 22.9461H141.448L141.085 23.5692V23.9846ZM142.383 23.9846H141.967V22.9461H142.538C142.59 22.9461 142.642 22.9981 142.642 22.9981C142.694 23.05 142.694 23.1019 142.694 23.1538C142.694 23.2577 142.694 23.3096 142.642 23.3096H142.538C142.59 23.3096 142.642 23.3615 142.694 23.4135C142.746 23.4654 142.746 23.5173 142.746 23.5692C142.746 23.6211 142.746 23.725 142.694 23.7769C142.642 23.9327 142.538 23.9846 142.383 23.9846ZM142.123 23.4135H142.331C142.435 23.4135 142.538 23.3615 142.538 23.3096C142.538 23.2577 142.538 23.2058 142.487 23.2058C142.435 23.2058 142.435 23.1538 142.331 23.1538H142.123V23.4135ZM142.123 23.8288H142.383C142.435 23.8288 142.487 23.8288 142.538 23.7769C142.59 23.7769 142.59 23.725 142.59 23.6731C142.59 23.5692 142.538 23.5173 142.383 23.5173H142.123V23.8288ZM143.213 23.725C143.265 23.7769 143.317 23.8288 143.421 23.8288C143.525 23.8288 143.577 23.7769 143.629 23.725C143.681 23.6731 143.681 23.6211 143.681 23.5173V22.9461H143.837V23.5173C143.837 23.6731 143.785 23.7769 143.733 23.8288C143.629 23.9327 143.525 23.9327 143.421 23.9327C143.317 23.9327 143.213 23.8808 143.11 23.8288C143.006 23.725 143.006 23.6211 143.006 23.5173V22.9461H143.162V23.5173C143.11 23.6211 143.162 23.6731 143.213 23.725ZM144.408 23.1019C144.356 23.1019 144.304 23.1019 144.304 23.1538C144.252 23.1538 144.252 23.2058 144.252 23.2577C144.252 23.3096 144.252 23.3096 144.304 23.3615C144.356 23.3615 144.408 23.4135 144.512 23.4135C144.615 23.4135 144.667 23.4654 144.719 23.5173C144.771 23.5692 144.823 23.6211 144.823 23.725C144.823 23.8288 144.771 23.8808 144.719 23.9327C144.667 23.9846 144.563 24.0365 144.46 24.0365C144.304 24.0365 144.148 23.9846 144.044 23.8808L144.096 23.6731C144.2 23.7769 144.304 23.8288 144.408 23.8288C144.46 23.8288 144.512 23.8288 144.563 23.7769C144.615 23.7769 144.615 23.725 144.615 23.6731C144.615 23.6211 144.615 23.6211 144.563 23.5692C144.512 23.5692 144.46 23.5173 144.408 23.5173C144.356 23.5173 144.252 23.4654 144.252 23.4654C144.2 23.4654 144.2 23.4135 144.148 23.4135C144.096 23.3615 144.044 23.3096 144.044 23.2058C144.044 23.1019 144.096 23.05 144.148 22.9981C144.2 22.9461 144.304 22.9461 144.408 22.9461C144.46 22.9461 144.512 22.9461 144.615 22.9981C144.667 22.9981 144.719 23.05 144.771 23.1019L144.667 23.2058C144.615 23.1538 144.615 23.1538 144.563 23.1538C144.512 23.1019 144.46 23.1019 144.408 23.1019Z" fill="white"/>
<path d="M133.244 21.3365C133.244 22.2192 149.704 22.2192 149.704 21.3365H133.244ZM149.756 41.3269C149.756 40.4442 133.296 40.4442 133.296 41.3269H149.756Z" fill="#6A4D11"/>
<path d="M93.5077 13.2923H91.0154C90.6462 13.2923 90.3692 13.5692 90.3692 13.9385V19.7538C90.3692 20.1231 90.6462 20.4 91.0154 20.4H93.5077C93.8769 20.4 94.1538 20.1231 94.1538 19.7538V13.9385C94.1538 13.6615 93.8769 13.2923 93.5077 13.2923Z" fill="#515151"/>
<path d="M92.7692 15.0461H91.8462V12.6461C91.8462 12.1846 91.4769 11.7231 90.9231 11.7231H87.2308V10.8H90.9231C91.9385 10.8 92.6769 11.6308 92.6769 12.5538V15.0461H92.7692ZM50.4923 13.2923H52.9846C53.3538 13.2923 53.6308 13.5692 53.6308 13.9384V19.7538C53.6308 20.1231 53.3538 20.4 52.9846 20.4H50.4923C50.1231 20.4 49.8462 20.1231 49.8462 19.7538V13.9384C49.8462 13.6615 50.1231 13.2923 50.4923 13.2923Z" fill="#515151"/>
<path d="M51.2308 15.0461H52.1538V12.6461C52.1538 12.1846 52.5231 11.7231 53.0769 11.7231H56.7692V10.8H53.0769C52.0615 10.8 51.3231 11.6308 51.3231 12.5538V15.0461H51.2308ZM57.3231 36.3692V42.5538C57.3231 43.2923 57.8769 43.8461 58.6154 43.8461H62.6769C63.4154 43.8461 63.9692 43.2923 63.9692 42.5538V36.3692H57.3231ZM79.9385 36.3692V42.5538C79.9385 43.2923 80.4923 43.8461 81.2308 43.8461H85.2923C86.0308 43.8461 86.5846 43.2923 86.5846 42.5538V36.3692H79.9385Z" fill="#515151"/>
<path d="M86.6769 4.15387H57.3231C56.0308 4.15387 55.0154 5.16925 55.0154 6.46156V37.2C55.0154 38.4923 56.1231 39.6 57.4154 39.6H86.6769C87.9692 39.6 89.0769 38.4923 89.0769 37.2V6.46156C88.9846 5.16925 87.9692 4.15387 86.6769 4.15387Z" fill="#FFCC66"/>
<path d="M57.5077 11.1693H86.5846V26.6769H57.5077V11.1693Z" fill="white"/>
<path d="M72.5538 12.2769H85.4769V25.6615H72.5538V12.2769ZM58.5231 12.2769H71.4462V25.6615H58.5231V12.2769Z" fill="#54BBFF"/>
<path d="M83.3538 36.3693C85.1382 36.3693 86.5846 34.9228 86.5846 33.1385C86.5846 31.3542 85.1382 29.9077 83.3538 29.9077C81.5695 29.9077 80.1231 31.3542 80.1231 33.1385C80.1231 34.9228 81.5695 36.3693 83.3538 36.3693Z" fill="white"/>
<path d="M83.3538 35.6308C84.7303 35.6308 85.8462 34.515 85.8462 33.1385C85.8462 31.762 84.7303 30.6462 83.3538 30.6462C81.9774 30.6462 80.8615 31.762 80.8615 33.1385C80.8615 34.515 81.9774 35.6308 83.3538 35.6308Z" fill="#ED7161"/>
<path d="M60.6462 36.3693C62.4305 36.3693 63.8769 34.9228 63.8769 33.1385C63.8769 31.3542 62.4305 29.9077 60.6462 29.9077C58.8618 29.9077 57.4154 31.3542 57.4154 33.1385C57.4154 34.9228 58.8618 36.3693 60.6462 36.3693Z" fill="white"/>
<path d="M60.6462 35.6308C62.0226 35.6308 63.1385 34.515 63.1385 33.1385C63.1385 31.762 62.0226 30.6462 60.6462 30.6462C59.2697 30.6462 58.1538 31.762 58.1538 33.1385C58.1538 34.515 59.2697 35.6308 60.6462 35.6308Z" fill="#ED7161"/>
<path d="M76.2462 29.8154H67.6615C67.2923 29.8154 66.9231 30.0923 66.9231 30.5538C66.9231 30.9231 67.2 31.2923 67.6615 31.2923H76.2462C76.6154 31.2923 76.9846 31.0154 76.9846 30.5538C76.9846 30.0923 76.7077 29.8154 76.2462 29.8154ZM76.2462 32.4H67.6615C67.2923 32.4 66.9231 32.6769 66.9231 33.1384C66.9231 33.5077 67.2 33.8769 67.6615 33.8769H76.2462C76.6154 33.8769 76.9846 33.6 76.9846 33.1384C76.9846 32.7692 76.7077 32.4 76.2462 32.4ZM76.2462 35.0769H67.6615C67.2923 35.0769 66.9231 35.3538 66.9231 35.8154C66.9231 36.1846 67.2 36.5538 67.6615 36.5538H76.2462C76.6154 36.5538 76.9846 36.2769 76.9846 35.8154C76.9846 35.4461 76.7077 35.0769 76.2462 35.0769Z" fill="#E7B95D"/>
<path d="M77.7231 6.18463H66.2769C65.2615 6.18463 64.5231 7.0154 64.5231 7.93848C64.5231 8.95386 65.3538 9.69232 66.2769 9.69232H77.6308C78.6462 9.69232 79.3846 8.86155 79.3846 7.93848C79.4769 6.92309 78.6462 6.18463 77.7231 6.18463Z" fill="#515151"/>
<path d="M67.1077 8.58463C67.2 8.58463 67.2923 8.58463 67.3846 8.49233C67.4769 8.49233 67.5692 8.40002 67.6615 8.30771L67.8462 8.49233C67.6615 8.67694 67.3846 8.76925 67.2 8.76925C66.9231 8.76925 66.7385 8.67694 66.5538 8.49233C66.3692 8.30771 66.2769 8.1231 66.2769 7.84617C66.2769 7.56925 66.3692 7.38463 66.5538 7.20002C66.7385 7.0154 66.9231 6.9231 67.2 6.9231C67.4769 6.9231 67.7538 7.0154 67.9385 7.20002L67.7538 7.38463C67.5692 7.47694 67.4769 7.38463 67.3846 7.38463C67.2923 7.38463 67.2 7.29233 67.1077 7.29233C66.9231 7.29233 66.7385 7.38463 66.6462 7.47694C66.5538 7.56925 66.4615 7.75387 66.4615 7.93848C66.4615 8.1231 66.5538 8.30771 66.6462 8.40002C66.8308 8.49233 66.9231 8.58463 67.1077 8.58463ZM68.1231 7.0154H68.4V8.76925H68.1231V7.0154ZM69.6 7.29233V8.76925H69.3231V7.29233H68.7692V7.0154H70.1538V7.29233H69.6ZM71.2615 8.86156H70.9846V8.1231L70.3385 7.0154H70.7077L71.0769 7.84617L71.5385 7.0154H71.9077L71.2615 8.1231V8.86156ZM73.5692 8.86156H72.8308V7.0154H73.8462C73.9385 7.0154 74.0308 7.10771 74.0308 7.10771C74.1231 7.20002 74.1231 7.29233 74.1231 7.38463C74.1231 7.56925 74.1231 7.66156 74.0308 7.66156H73.8462C73.9385 7.66156 74.0308 7.75386 74.1231 7.84617C74.2154 7.93848 74.2154 8.03079 74.2154 8.1231C74.2154 8.2154 74.2154 8.40002 74.1231 8.49233C74.0308 8.76925 73.8462 8.86156 73.5692 8.86156ZM73.1077 7.84617H73.4769C73.6615 7.84617 73.8462 7.75387 73.8462 7.66156C73.8462 7.56925 73.8462 7.47694 73.7538 7.47694C73.6615 7.47694 73.6615 7.38463 73.4769 7.38463H73.1077V7.84617ZM73.1077 8.58463H73.5692C73.6615 8.58463 73.7538 8.58463 73.8462 8.49233C73.9385 8.49233 73.9385 8.40002 73.9385 8.30771C73.9385 8.1231 73.8462 8.03079 73.5692 8.03079H73.1077V8.58463ZM75.0462 8.40002C75.1385 8.49233 75.2308 8.58463 75.4154 8.58463C75.6 8.58463 75.6923 8.49233 75.7846 8.40002C75.8769 8.30771 75.8769 8.2154 75.8769 8.03079V7.0154H76.1538V8.03079C76.1538 8.30771 76.0615 8.49233 75.9692 8.58463C75.7846 8.76925 75.6 8.76925 75.4154 8.76925C75.2308 8.76925 75.0462 8.67694 74.8615 8.58463C74.6769 8.40002 74.6769 8.2154 74.6769 8.03079V7.0154H74.9538V8.03079C74.8615 8.2154 74.9538 8.30771 75.0462 8.40002ZM77.1692 7.29233C77.0769 7.29233 76.9846 7.29233 76.9846 7.38463C76.8923 7.38463 76.8923 7.47694 76.8923 7.56925C76.8923 7.66156 76.8923 7.66156 76.9846 7.75386C77.0769 7.75386 77.1692 7.84617 77.3538 7.84617C77.5385 7.84617 77.6308 7.93848 77.7231 8.03079C77.8154 8.1231 77.9077 8.2154 77.9077 8.40002C77.9077 8.58463 77.8154 8.67694 77.7231 8.76925C77.6308 8.86156 77.4462 8.95386 77.2615 8.95386C76.9846 8.95386 76.7077 8.86156 76.5231 8.67694L76.6154 8.30771C76.8 8.49233 76.9846 8.58463 77.1692 8.58463C77.2615 8.58463 77.3538 8.58463 77.4462 8.49233C77.5385 8.49233 77.5385 8.40002 77.5385 8.30771C77.5385 8.2154 77.5385 8.2154 77.4462 8.1231C77.3538 8.1231 77.2615 8.03079 77.1692 8.03079C77.0769 8.03079 76.8923 7.93848 76.8923 7.93848C76.8 7.93848 76.8 7.84617 76.7077 7.84617C76.6154 7.75386 76.5231 7.66156 76.5231 7.47694C76.5231 7.29233 76.6154 7.20002 76.7077 7.10771C76.8 7.0154 76.9846 7.0154 77.1692 7.0154C77.2615 7.0154 77.3538 7.0154 77.5385 7.10771C77.6308 7.10771 77.7231 7.20002 77.8154 7.29233L77.6308 7.47694C77.5385 7.38463 77.5385 7.38463 77.4462 7.38463C77.3538 7.29233 77.2615 7.29233 77.1692 7.29233Z" fill="white"/>
<path d="M57.3231 4.15387C57.3231 5.7231 86.5846 5.7231 86.5846 4.15387H57.3231ZM86.6769 39.6923C86.6769 38.1231 57.4154 38.1231 57.4154 39.6923H86.6769Z" fill="#E0AE55"/>
<path d="M126.598 26.4769H125.196C124.988 26.4769 124.833 26.6327 124.833 26.8404V30.1115C124.833 30.3192 124.988 30.475 125.196 30.475H126.598C126.806 30.475 126.962 30.3192 126.962 30.1115V26.8404C126.962 26.6846 126.806 26.4769 126.598 26.4769Z" fill="#515151"/>
<path d="M126.183 27.4635H125.663V26.1135C125.663 25.8539 125.456 25.5942 125.144 25.5942H123.067V25.075H125.144C125.715 25.075 126.131 25.5423 126.131 26.0616V27.4635H126.183ZM102.402 26.4769H103.804C104.012 26.4769 104.167 26.6327 104.167 26.8404V30.1116C104.167 30.3192 104.012 30.475 103.804 30.475H102.402C102.194 30.475 102.038 30.3192 102.038 30.1116V26.8404C102.038 26.6846 102.194 26.4769 102.402 26.4769Z" fill="#515151"/>
<path d="M102.817 27.4635H103.337V26.1135C103.337 25.8539 103.544 25.5942 103.856 25.5942H105.933V25.075H103.856C103.285 25.075 102.869 25.5423 102.869 26.0616V27.4635H102.817ZM106.244 39.4577V42.9366C106.244 43.3519 106.556 43.6635 106.971 43.6635H109.256C109.671 43.6635 109.983 43.3519 109.983 42.9366V39.4577H106.244ZM118.965 39.4577V42.9366C118.965 43.3519 119.277 43.6635 119.692 43.6635H121.977C122.392 43.6635 122.704 43.3519 122.704 42.9366V39.4577H118.965Z" fill="#515151"/>
<path d="M122.756 21.3365H106.244C105.517 21.3365 104.946 21.9077 104.946 22.6346V39.925C104.946 40.6519 105.569 41.275 106.296 41.275H122.756C123.483 41.275 124.106 40.6519 124.106 39.925V22.6346C124.054 21.9077 123.483 21.3365 122.756 21.3365Z" fill="#B0842A"/>
<path d="M106.348 25.2827H122.704V34.0058H106.348V25.2827Z" fill="white"/>
<path d="M114.812 25.9058H122.081V33.4346H114.812V25.9058ZM106.919 25.9058H114.188V33.4346H106.919V25.9058Z" fill="#54BBFF"/>
<path d="M120.887 39.4577C121.89 39.4577 122.704 38.644 122.704 37.6404C122.704 36.6367 121.89 35.8231 120.887 35.8231C119.883 35.8231 119.069 36.6367 119.069 37.6404C119.069 38.644 119.883 39.4577 120.887 39.4577Z" fill="white"/>
<path d="M120.887 39.0423C121.661 39.0423 122.288 38.4146 122.288 37.6404C122.288 36.8661 121.661 36.2385 120.887 36.2385C120.112 36.2385 119.485 36.8661 119.485 37.6404C119.485 38.4146 120.112 39.0423 120.887 39.0423Z" fill="#ED7161"/>
<path d="M108.113 39.4577C109.117 39.4577 109.931 38.644 109.931 37.6404C109.931 36.6367 109.117 35.8231 108.113 35.8231C107.11 35.8231 106.296 36.6367 106.296 37.6404C106.296 38.644 107.11 39.4577 108.113 39.4577Z" fill="white"/>
<path d="M108.113 39.0423C108.888 39.0423 109.515 38.4146 109.515 37.6404C109.515 36.8661 108.888 36.2385 108.113 36.2385C107.339 36.2385 106.712 36.8661 106.712 37.6404C106.712 38.4146 107.339 39.0423 108.113 39.0423Z" fill="#ED7161"/>
<path d="M116.888 35.7712H112.06C111.852 35.7712 111.644 35.9269 111.644 36.1866C111.644 36.3943 111.8 36.6019 112.06 36.6019H116.888C117.096 36.6019 117.304 36.4462 117.304 36.1866C117.304 35.9269 117.148 35.7712 116.888 35.7712ZM116.888 37.225H112.06C111.852 37.225 111.644 37.3808 111.644 37.6404C111.644 37.8481 111.8 38.0558 112.06 38.0558H116.888C117.096 38.0558 117.304 37.9 117.304 37.6404C117.304 37.4327 117.148 37.225 116.888 37.225ZM116.888 38.7308H112.06C111.852 38.7308 111.644 38.8866 111.644 39.1462C111.644 39.3539 111.8 39.5616 112.06 39.5616H116.888C117.096 39.5616 117.304 39.4058 117.304 39.1462C117.304 38.9385 117.148 38.7308 116.888 38.7308Z" fill="#6A4D11"/>
<path d="M117.719 22.4788H111.281C110.71 22.4788 110.294 22.9461 110.294 23.4654C110.294 24.0365 110.762 24.4519 111.281 24.4519H117.667C118.238 24.4519 118.654 23.9846 118.654 23.4654C118.706 22.8942 118.238 22.4788 117.719 22.4788Z" fill="#515151"/>
<path d="M111.748 23.8288C111.8 23.8288 111.852 23.8288 111.904 23.7769C111.956 23.7769 112.008 23.725 112.06 23.6731L112.163 23.7769C112.06 23.8808 111.904 23.9327 111.8 23.9327C111.644 23.9327 111.54 23.8808 111.437 23.7769C111.333 23.6731 111.281 23.5692 111.281 23.4135C111.281 23.2577 111.333 23.1538 111.437 23.05C111.54 22.9461 111.644 22.8942 111.8 22.8942C111.956 22.8942 112.112 22.9461 112.215 23.05L112.112 23.1538C112.008 23.2058 111.956 23.1538 111.904 23.1538C111.852 23.1538 111.8 23.1019 111.748 23.1019C111.644 23.1019 111.54 23.1538 111.488 23.2058C111.437 23.2577 111.385 23.3615 111.385 23.4654C111.385 23.5692 111.437 23.6731 111.488 23.725C111.592 23.7769 111.644 23.8288 111.748 23.8288ZM112.319 22.9461H112.475V23.9327H112.319V22.9461ZM113.15 23.1019V23.9327H112.994V23.1019H112.683V22.9461H113.462V23.1019H113.15ZM114.085 23.9846H113.929V23.5692L113.565 22.9461H113.773L113.981 23.4135L114.24 22.9461H114.448L114.085 23.5692V23.9846ZM115.383 23.9846H114.967V22.9461H115.538C115.59 22.9461 115.642 22.9981 115.642 22.9981C115.694 23.05 115.694 23.1019 115.694 23.1538C115.694 23.2577 115.694 23.3096 115.642 23.3096H115.538C115.59 23.3096 115.642 23.3615 115.694 23.4135C115.746 23.4654 115.746 23.5173 115.746 23.5692C115.746 23.6211 115.746 23.725 115.694 23.7769C115.642 23.9327 115.538 23.9846 115.383 23.9846ZM115.123 23.4135H115.331C115.435 23.4135 115.538 23.3615 115.538 23.3096C115.538 23.2577 115.538 23.2058 115.487 23.2058C115.435 23.2058 115.435 23.1538 115.331 23.1538H115.123V23.4135ZM115.123 23.8288H115.383C115.435 23.8288 115.487 23.8288 115.538 23.7769C115.59 23.7769 115.59 23.725 115.59 23.6731C115.59 23.5692 115.538 23.5173 115.383 23.5173H115.123V23.8288ZM116.213 23.725C116.265 23.7769 116.317 23.8288 116.421 23.8288C116.525 23.8288 116.577 23.7769 116.629 23.725C116.681 23.6731 116.681 23.6211 116.681 23.5173V22.9461H116.837V23.5173C116.837 23.6731 116.785 23.7769 116.733 23.8288C116.629 23.9327 116.525 23.9327 116.421 23.9327C116.317 23.9327 116.213 23.8808 116.11 23.8288C116.006 23.725 116.006 23.6211 116.006 23.5173V22.9461H116.162V23.5173C116.11 23.6211 116.162 23.6731 116.213 23.725ZM117.408 23.1019C117.356 23.1019 117.304 23.1019 117.304 23.1538C117.252 23.1538 117.252 23.2058 117.252 23.2577C117.252 23.3096 117.252 23.3096 117.304 23.3615C117.356 23.3615 117.408 23.4135 117.512 23.4135C117.615 23.4135 117.667 23.4654 117.719 23.5173C117.771 23.5692 117.823 23.6211 117.823 23.725C117.823 23.8288 117.771 23.8808 117.719 23.9327C117.667 23.9846 117.563 24.0365 117.46 24.0365C117.304 24.0365 117.148 23.9846 117.044 23.8808L117.096 23.6731C117.2 23.7769 117.304 23.8288 117.408 23.8288C117.46 23.8288 117.512 23.8288 117.563 23.7769C117.615 23.7769 117.615 23.725 117.615 23.6731C117.615 23.6211 117.615 23.6211 117.563 23.5692C117.512 23.5692 117.46 23.5173 117.408 23.5173C117.356 23.5173 117.252 23.4654 117.252 23.4654C117.2 23.4654 117.2 23.4135 117.148 23.4135C117.096 23.3615 117.044 23.3096 117.044 23.2058C117.044 23.1019 117.096 23.05 117.148 22.9981C117.2 22.9461 117.304 22.9461 117.408 22.9461C117.46 22.9461 117.512 22.9461 117.615 22.9981C117.667 22.9981 117.719 23.05 117.771 23.1019L117.667 23.2058C117.615 23.1538 117.615 23.1538 117.563 23.1538C117.512 23.1019 117.46 23.1019 117.408 23.1019Z" fill="white"/>
<path d="M106.244 21.3365C106.244 22.2192 122.704 22.2192 122.704 21.3365H106.244ZM122.756 41.3269C122.756 40.4442 106.296 40.4442 106.296 41.3269H122.756Z" fill="#6A4D11"/>
</svg>
