<svg width="67" height="67" viewBox="0 0 67 67" fill="none" xmlns="http://www.w3.org/2000/svg">
<g clip-path="url(#clip0_50_213)">
<path d="M43.7008 67H8.375C7.8197 67 7.28715 66.7794 6.89449 66.3868C6.50184 65.9941 6.28125 65.4616 6.28125 64.9063C6.28125 64.351 6.50184 63.8184 6.89449 63.4257C7.28715 63.0331 7.8197 62.8125 8.375 62.8125H43.7008C44.0972 62.8125 44.273 62.5696 44.3512 62.3658C44.4294 62.162 44.4629 61.8633 44.1698 61.6009L25.6024 44.7979C24.8668 44.1393 24.35 43.2718 24.121 42.3114C23.892 41.351 23.9618 40.3436 24.321 39.4239C24.6722 38.4996 25.2971 37.7045 26.1122 37.1448C26.9273 36.5851 27.8938 36.2874 28.8826 36.2917H53.0417C53.597 36.2917 54.1295 36.5123 54.5222 36.9049C54.9148 37.2976 55.1354 37.8301 55.1354 38.3854C55.1354 38.9407 54.9148 39.4733 54.5222 39.8659C54.1295 40.2586 53.597 40.4792 53.0417 40.4792H28.8826C28.4862 40.4792 28.3103 40.722 28.2321 40.9258C28.154 41.1296 28.1205 41.4283 28.4136 41.6908L46.981 58.4938C48.4913 59.8561 48.9938 61.9666 48.2623 63.8678C47.9112 64.7921 47.2863 65.5872 46.4711 66.1469C45.656 66.7066 44.6895 67.0042 43.7008 67Z" fill="#2196F3"/>
<path d="M53.0417 36.2917C52.5429 36.2924 52.0605 36.114 51.6821 35.7892C51.1657 35.3481 39.0833 24.8877 39.0833 14.1314C39.0833 6.33987 45.3451 0 53.0417 0C60.7383 0 67 6.33987 67 14.1314C67 24.8877 54.9177 35.3481 54.4012 35.7892C54.0228 36.114 53.5404 36.2924 53.0417 36.2917Z" fill="#F44336"/>
<path d="M53.0417 19.5417C49.9625 19.5417 47.4583 17.0375 47.4583 13.9583C47.4583 10.8791 49.9625 8.375 53.0417 8.375C56.1209 8.375 58.625 10.8791 58.625 13.9583C58.625 17.0375 56.1209 19.5417 53.0417 19.5417Z" fill="white"/>
<path d="M8.375 64.2083C7.85235 64.2086 7.34848 64.0135 6.96242 63.6612C6.68046 63.4015 0 57.2264 0 50.7748C0 45.8671 3.75758 41.875 8.375 41.875C12.9924 41.875 16.75 45.8671 16.75 50.7748C16.75 57.2292 10.0695 63.4015 9.78758 63.6612C9.40152 64.0135 8.89765 64.2086 8.375 64.2083Z" fill="#F44336"/>
<path d="M30.8187 11.6781C30.8187 12.7531 30.0125 13.5594 28.9375 13.5594C30.0125 13.5594 30.8187 14.3657 30.8187 15.4406C30.8187 16.5156 30.0125 17.3219 28.9375 17.3219H24.2344C23.1594 17.3219 22.3531 18.1281 22.3531 19.2031V22.8313C22.3531 25.1157 20.4719 26.9969 18.1875 26.9969H17.5156V22.4281C17.5156 21.6219 17.2469 20.8156 16.7094 20.1438L15.2312 18.1281C14.8281 17.5906 14.2906 17.3219 13.7531 17.3219H11.8719V3.8844H14.1562C14.8281 3.8844 15.5 3.61565 15.7687 2.94377C16.0375 2.2719 16.7094 1.86877 17.5156 1.86877H27.0562C28.1312 1.86877 28.9375 2.67502 28.9375 3.75002C28.9375 4.82502 28.1312 5.63127 27.0562 5.63127H28.9375C30.0125 5.63127 30.8187 6.43752 30.8187 7.51252C30.8187 8.58752 30.0125 9.39377 28.9375 9.39377C29.8781 9.66252 30.8187 10.6031 30.8187 11.6781Z" fill="#F0C9AE"/>
<path d="M0.046875 2.13745H7.70625V19.3375H0.046875V2.13745Z" fill="#607D95"/>
<path d="M7.16875 4.82495H0.046875V2.13745H7.70625V4.82495H7.16875Z" fill="#4B6C85"/>
<path d="M4.07812 2.13745H11.7375V19.3375H4.07812V2.13745Z" fill="#EEF2FA"/>
<path d="M9.05 19.3375V7.51245C9.05 6.03433 7.84062 4.82495 6.3625 4.82495H4.07812V2.13745H11.7375V19.3375H9.05Z" fill="#D5E5F2"/>
<path d="M30.8187 11.6781C30.8187 12.7531 30.0125 13.5593 28.9375 13.5593C30.0125 13.5593 30.8187 14.3656 30.8187 15.4406C30.8187 16.5156 30.0125 17.3218 28.9375 17.3218H26.25C27.325 17.3218 28.1312 16.5156 28.1312 15.4406C28.1312 14.3656 27.325 13.5593 26.25 13.5593C27.325 13.5593 28.1312 12.7531 28.1312 11.6781C28.1312 10.6031 27.325 9.79683 26.25 9.79683C27.325 9.79683 28.1312 8.99058 28.1312 7.91558C28.1312 6.84058 27.1906 5.89995 26.25 5.89995H24.3687C25.4437 5.89995 26.25 5.0937 26.25 4.15308H20.2031C19.5312 4.15308 18.8594 4.5562 18.5906 5.0937C18.3219 5.6312 17.65 6.03433 17.1125 6.03433H15.0969C14.2906 6.03433 13.7531 6.57183 13.7531 7.37808V17.5906C13.4844 17.4562 13.2156 17.4562 12.9469 17.4562H11.8719V4.0187H14.425C15.0969 4.0187 15.6344 3.61558 15.9031 3.07808C16.1719 2.54058 16.8437 2.13745 17.5156 2.13745H27.0562C28.1312 2.13745 28.9375 2.9437 28.9375 4.0187V4.15308C28.9375 5.0937 27.9969 5.89995 27.0562 5.89995H28.9375C30.0125 5.89995 30.8187 6.7062 30.8187 7.7812C30.8187 8.8562 30.0125 9.66245 28.9375 9.66245C29.8781 9.66245 30.8187 10.6031 30.8187 11.6781Z" fill="#E2B698"/>
<path d="M24.1 17.3219C23.025 17.3219 22.2188 18.1281 22.2188 19.2031V22.8313C22.2188 25.1157 20.4719 26.8625 18.1875 26.9969V26.4594C19.3969 25.7875 20.3375 24.4438 20.3375 22.8313V19.3375C20.3375 18.2625 21.1437 17.4563 22.2188 17.4563H24.1V17.3219Z" fill="#E2B698"/>
<path d="M11.7375 1.46558H4.07812C3.675 1.46558 3.40625 1.73433 3.40625 2.13745C3.40625 2.54058 3.675 2.80933 4.07812 2.80933H11.0656V18.6656H4.07812C3.675 18.6656 3.40625 18.9343 3.40625 19.3375C3.40625 19.7406 3.675 20.0093 4.07812 20.0093H11.7375C12.1406 20.0093 12.4094 19.7406 12.4094 19.3375V2.13745C12.4094 1.73433 12.0062 1.46558 11.7375 1.46558Z" fill="#004463"/>
<path d="M4.07812 1.46558H0.181244C-0.221881 1.46558 -0.490631 1.73433 -0.490631 2.13745C-0.490631 2.54058 -0.221881 2.80933 0.181244 2.80933H3.40624V18.6656H0.181244C-0.221881 18.6656 -0.490631 18.9343 -0.490631 19.3375C-0.490631 19.7406 -0.221881 20.0093 0.181244 20.0093H3.94374C4.34687 20.0093 4.61562 19.7406 4.61562 19.3375V2.13745C4.74999 1.73433 4.34687 1.46558 4.07812 1.46558Z" fill="#004463"/>
<path d="M7.84062 6.8406C8.36011 6.8406 8.78124 6.41947 8.78124 5.89998C8.78124 5.38048 8.36011 4.95935 7.84062 4.95935C7.32113 4.95935 6.89999 5.38048 6.89999 5.89998C6.89999 6.41947 7.32113 6.8406 7.84062 6.8406Z" fill="#004463"/>
<path d="M28.9375 12.8875H25.175C24.7719 12.8875 24.5031 13.1562 24.5031 13.5593C24.5031 13.9625 24.7719 14.2312 25.175 14.2312H28.9375C29.6094 14.2312 30.1469 14.7687 30.1469 15.4406C30.1469 16.1125 29.6094 16.65 28.9375 16.65H24.1C23.6969 16.65 23.4281 16.9187 23.4281 17.3218C23.4281 17.725 23.6969 17.9937 24.1 17.9937H28.9375C30.4156 17.9937 31.4906 16.7843 31.4906 15.4406C31.4906 14.0968 30.2813 12.8875 28.9375 12.8875Z" fill="#004463"/>
<path d="M28.9375 8.9906H25.175C24.7719 8.9906 24.5031 9.25935 24.5031 9.66248C24.5031 10.0656 24.7719 10.3344 25.175 10.3344H28.9375C29.6094 10.3344 30.1469 10.8719 30.1469 11.5437C30.1469 12.2156 29.6094 12.7531 28.9375 12.7531H25.175C24.7719 12.7531 24.5031 13.0219 24.5031 13.425C24.5031 13.8281 24.7719 14.0969 25.175 14.0969H28.9375C30.4156 14.0969 31.4906 12.8875 31.4906 11.5437C31.4906 10.2 30.2812 8.9906 28.9375 8.9906Z" fill="#004463"/>
<path d="M28.9375 5.22815H25.175C24.7719 5.22815 24.5031 5.4969 24.5031 5.90002C24.5031 6.30315 24.7719 6.5719 25.175 6.5719H28.9375C29.6094 6.5719 30.1469 7.1094 30.1469 7.78127C30.1469 8.45315 29.6094 8.99065 28.9375 8.99065H25.175C24.7719 8.99065 24.5031 9.2594 24.5031 9.66252C24.5031 10.0656 24.7719 10.3344 25.175 10.3344H28.9375C30.4156 10.3344 31.4906 9.12502 31.4906 7.78127C31.4906 6.43752 30.2812 5.22815 28.9375 5.22815Z" fill="#004463"/>
<path d="M26.9219 1.46558H17.3812C16.4406 1.46558 15.5 2.00308 15.0969 2.80933C14.9625 3.07808 14.5594 3.34683 14.0219 3.34683H11.6031C11.2 3.34683 10.9312 3.61558 10.9312 4.0187C10.9312 4.42183 11.2 4.69058 11.6031 4.69058H14.1562C15.0969 4.69058 15.9031 4.15308 16.3062 3.4812C16.575 3.07808 16.9781 2.80933 17.3812 2.80933H26.9219C27.5937 2.80933 28.1312 3.34683 28.1312 4.0187C28.1312 4.69058 27.5937 5.22808 26.9219 5.22808H25.0406C24.6375 5.22808 24.3687 5.49683 24.3687 5.89995C24.3687 6.30308 24.6375 6.57183 25.0406 6.57183H26.9219C28.4 6.57183 29.475 5.36245 29.475 4.0187C29.6094 2.54058 28.4 1.46558 26.9219 1.46558ZM13.6187 16.65H11.7375C11.3344 16.65 11.0656 16.9187 11.0656 17.3218C11.0656 17.725 11.3344 17.9937 11.7375 17.9937H13.6187C14.0219 17.9937 14.425 18.1281 14.5594 18.5312L16.0375 20.5468C16.4406 21.0843 16.7094 21.7562 16.7094 22.4281V26.8625C16.7094 27.2656 16.9781 27.5343 17.3812 27.5343H18.0531C20.7406 27.5343 22.8906 25.3843 22.8906 22.6968V19.2031C22.8906 18.8 22.6219 18.5312 22.2187 18.5312C21.8156 18.5312 21.5469 18.8 21.5469 19.2031V22.6968C21.5469 24.5781 20.0687 26.1906 18.0531 26.1906V22.4281C18.0531 21.4874 17.7844 20.5468 17.1125 19.7406L15.6344 17.725C15.2312 17.0531 14.425 16.65 13.6187 16.65Z" fill="#004463"/>
<path d="M26.9219 16.65H24.1C22.6219 16.65 21.5469 17.8594 21.5469 19.2031V21.2188C21.5469 21.6219 21.8156 21.8906 22.2188 21.8906C22.6219 21.8906 22.8906 21.6219 22.8906 21.2188V19.3375C22.8906 18.6656 23.4281 18.1281 24.1 18.1281H26.9219C27.325 18.1281 27.5938 17.8594 27.5938 17.4563C27.5938 17.0531 27.325 16.65 26.9219 16.65Z" fill="#004463"/>
</g>
<defs>
<clipPath id="clip0_50_213">
<rect width="67" height="67" fill="white"/>
</clipPath>
</defs>
</svg>
