<svg width="94" height="94" viewBox="0 0 94 94" fill="none" xmlns="http://www.w3.org/2000/svg">
<path d="M64.1444 9.24749H56.9519V6.41464C56.9519 2.89093 54.0847 0.0235596 50.5608 0.0235596H43.4387C39.9149 0.0235596 37.0476 2.89074 37.0476 6.41464V9.24749H29.8551C22.2613 9.24749 16.0825 15.4256 16.0825 23.0194V62.1805C16.0825 62.1838 16.0843 62.1864 16.0843 62.1897C16.0889 69.7782 22.2641 75.951 29.8536 75.951H30.5142L17.6366 91.5744C17.1205 92.2001 17.2094 93.1256 17.8358 93.641C18.4591 94.1576 19.3877 94.0669 19.9016 93.4425L23.3656 89.2398H70.6339L74.0979 93.4425C74.6123 94.0678 75.5413 94.157 76.1637 93.641C76.7901 93.1256 76.879 92.2001 76.3629 91.5744L63.4853 75.951H64.1458C71.7354 75.951 77.9106 69.7782 77.9152 62.1897C77.9152 62.1864 77.917 62.1838 77.917 62.1805C77.917 48.4097 77.917 36.7981 77.917 23.0194C77.917 15.4256 71.7382 9.24749 64.1444 9.24749ZM64.1444 19.6317C66.0124 19.6317 67.532 21.1521 67.532 23.0201V41.1245H48.4678V19.6317H64.1444ZM45.5318 41.1243H26.4678V23.02C26.4678 21.1519 27.9874 19.6316 29.8555 19.6316H45.532V41.1243H45.5318ZM74.981 44.0604V60.7125H19.0187V44.0604H74.981ZM39.9838 6.41464C39.9838 4.50931 41.5335 2.95959 43.4388 2.95959H50.561C52.4663 2.95959 54.0161 4.50931 54.0161 6.41464V9.24749H39.984L39.9838 6.41464ZM19.0187 23.0194C19.0187 17.0442 23.8801 12.1835 29.8553 12.1835H64.1444C70.1196 12.1835 74.981 17.0442 74.981 23.0194V41.1245H70.4681V23.0201C70.4681 19.533 67.631 16.6957 64.1444 16.6957H29.8553C26.3689 16.6957 23.5316 19.5328 23.5316 23.0201V41.1245H19.0187V23.0194ZM25.7859 86.3038L29.5294 81.7621H64.4702L68.2137 86.3038H25.7859ZM62.0501 78.826H31.9496L34.3194 75.951H59.6805L62.0501 78.826ZM64.1458 73.0149H29.8538C24.3774 73.0149 19.8371 68.9313 19.1189 63.6493H74.8804C74.1623 68.9313 69.6221 73.0149 64.1458 73.0149Z" fill="#00F260"/>
<path d="M27.8756 57.6145C30.7529 57.6145 33.0924 55.2648 33.0924 52.3767C33.0924 49.4995 30.7527 47.1592 27.8756 47.1592C24.9869 47.1592 22.6371 49.4995 22.6371 52.3767C22.6371 55.2647 24.9868 57.6145 27.8756 57.6145ZM27.8756 50.0952C29.1543 50.0952 30.1564 51.0973 30.1564 52.3767C30.1564 53.6461 29.1329 54.6784 27.8756 54.6784C26.6055 54.6784 25.5732 53.6463 25.5732 52.3767C25.5732 51.1187 26.6053 50.0952 27.8756 50.0952Z" fill="#00F260"/>
<path d="M66.1443 57.6145C69.0215 57.6145 71.3625 55.2648 71.3625 52.3767C71.3625 49.4995 69.0215 47.1592 66.1443 47.1592C63.2571 47.1592 60.9072 49.4995 60.9072 52.3767C60.9072 55.2647 63.2569 57.6145 66.1443 57.6145ZM66.1443 50.0952C67.4245 50.0952 68.4265 51.0973 68.4265 52.3767C68.4265 53.6461 67.403 54.6784 66.1443 54.6784C64.8754 54.6784 63.8433 53.6463 63.8433 52.3767C63.8433 51.1187 64.8754 50.0952 66.1443 50.0952Z" fill="#00F260"/>
<path d="M47.9876 4.63562H46.0121C45.2006 4.63562 44.5441 5.29289 44.5441 6.10364C44.5441 6.91439 45.2006 7.57165 46.0121 7.57165H47.9876C48.7991 7.57165 49.4556 6.91439 49.4556 6.10364C49.4556 5.29289 48.7991 4.63562 47.9876 4.63562Z" fill="#00F260"/>
</svg>
