<svg width="128" height="47" viewBox="0 0 128 47" fill="none" xmlns="http://www.w3.org/2000/svg">
<path fill-rule="evenodd" clip-rule="evenodd" d="M30.0821 14.1305C30.084 14.3514 30.0399 14.5702 29.9525 14.7731C29.8651 14.976 29.7364 15.1585 29.5745 15.3091C29.4107 15.4723 29.2152 15.6003 29 15.6855C28.7849 15.7706 28.5546 15.8109 28.3233 15.804C27.9626 15.8151 27.6039 15.7467 27.2727 15.6037C27.1059 15.5394 26.9624 15.4262 26.8613 15.2789C26.7602 15.1317 26.7061 14.9573 26.7061 14.7787C26.7182 14.624 26.7419 14.4703 26.777 14.3191C26.8129 14.172 26.8366 14.0222 26.8478 13.8712C26.8648 13.7603 26.837 13.6472 26.7707 13.5566C26.7043 13.4661 26.6047 13.4055 26.4937 13.388H26.3638C26.0215 13.388 25.8562 13.7063 25.8562 14.3427C25.8271 14.6137 25.8633 14.8878 25.9619 15.142C26.0604 15.3962 26.2185 15.6232 26.4228 15.804H25.0654C24.7484 15.373 24.6052 14.8388 24.664 14.3073C24.6468 14.09 24.6781 13.8715 24.7557 13.6677C24.8332 13.4639 24.9551 13.2798 25.1126 13.1288C25.4298 12.8622 25.8312 12.7161 26.2458 12.7163C26.4156 12.7046 26.5857 12.7339 26.7418 12.8015C26.8979 12.8692 27.0355 12.9734 27.1429 13.1052L27.5324 13.8123C27.5968 13.931 27.6923 14.0299 27.8088 14.0985C27.9253 14.167 28.0583 14.2025 28.1934 14.2012C28.8663 14.2012 29.2086 13.942 29.2086 13.3998C29.213 13.1947 29.1543 12.9931 29.0403 12.8224C28.9263 12.6517 28.7625 12.52 28.5712 12.4452C28.1975 12.2896 27.7955 12.2133 27.3908 12.2213H24.9001C24.8675 12.2181 24.8346 12.2213 24.8033 12.2308C24.772 12.2403 24.7429 12.2559 24.7176 12.2768C24.6924 12.2976 24.6715 12.3232 24.6563 12.3521C24.641 12.381 24.6316 12.4127 24.6286 12.4452V11.2667H28.7364C28.8403 11.2683 28.9433 11.2481 29.0388 11.2075C29.1344 11.1669 29.2203 11.1068 29.2912 11.031C29.3675 10.9611 29.4272 10.8751 29.466 10.7793C29.5048 10.6835 29.5217 10.5802 29.5155 10.4771C29.5167 10.254 29.4322 10.0389 29.2794 9.87603C29.2042 9.79854 29.1144 9.73675 29.0151 9.69426C28.9158 9.65177 28.809 9.62943 28.701 9.62854C29.0583 9.62865 29.4015 9.76822 29.6571 10.0175C29.9036 10.2648 30.042 10.5995 30.042 10.9485C30.042 11.2974 29.9036 11.6322 29.6571 11.8795C29.515 12.0208 29.3409 12.1259 29.1496 12.1859C29.4544 12.3828 29.6993 12.6595 29.8575 12.9857C30.0157 13.312 30.0811 13.6754 30.0467 14.0362M40.08 17.2536C40.0647 17.6298 39.9034 17.9853 39.6302 18.2449C39.357 18.5044 38.9934 18.6477 38.6163 18.6443C38.2701 18.664 37.9298 18.5483 37.6676 18.3216C37.4053 18.095 37.2418 17.7754 37.2117 17.4304V17.2772C37.1995 17.0864 37.2339 16.8955 37.3121 16.721C37.3902 16.5465 37.5097 16.3936 37.6602 16.2754C37.9479 16.0365 38.3131 15.9108 38.6872 15.9219C38.8128 15.9101 38.9393 15.9101 39.0649 15.9219C39.0649 15.5448 38.9351 15.3562 38.6282 15.3562C38.5302 15.3439 38.431 15.3439 38.3331 15.3562L38.8878 14.4605C39.1257 14.4928 39.3423 14.6144 39.4936 14.8005C39.6449 14.9866 39.7195 15.2232 39.7023 15.4623C39.7138 15.6771 39.6419 15.8882 39.5016 16.0515C39.6119 16.1281 39.7017 16.2304 39.7634 16.3495C39.8251 16.4687 39.8568 16.601 39.8558 16.7351C39.8616 16.8435 39.8447 16.9519 39.8061 17.0534C39.7675 17.1549 39.708 17.2472 39.6315 17.3243C39.5582 17.3995 39.4699 17.4583 39.3722 17.4969C39.2746 17.5355 39.1698 17.553 39.0649 17.5483C38.4865 17.5483 38.2032 17.3243 38.2032 16.8529C38.1934 16.6785 38.2519 16.5071 38.3665 16.3751C38.4811 16.2431 38.6427 16.1609 38.817 16.1458C38.7008 16.1338 38.5834 16.1477 38.4732 16.1864C38.3629 16.2251 38.2627 16.2877 38.1796 16.3697C38.0978 16.4582 38.0348 16.5623 37.9942 16.6757C37.9537 16.7891 37.9364 16.9095 37.9435 17.0297C37.9447 17.1381 37.9696 17.2449 38.0165 17.3426C38.0634 17.4403 38.1312 17.5266 38.215 17.5954C38.3781 17.748 38.5935 17.8323 38.817 17.8311C39.0646 17.8524 39.3134 17.8054 39.5361 17.6953C39.7588 17.5851 39.947 17.4161 40.08 17.2065M39.478 16.6172C39.4725 16.5284 39.4346 16.4447 39.3716 16.3817C39.3086 16.3188 39.2247 16.281 39.1357 16.2754C39.0891 16.274 39.0428 16.2827 39 16.301C38.9572 16.3193 38.9189 16.3468 38.8878 16.3815C38.8287 16.4411 38.7956 16.5216 38.7956 16.6054C38.7956 16.6893 38.8287 16.7698 38.8878 16.8294C38.9189 16.8641 38.9572 16.8915 39 16.9099C39.0428 16.9282 39.0891 16.9369 39.1357 16.9354C39.2247 16.9299 39.3086 16.8921 39.3716 16.8291C39.4346 16.7662 39.4725 16.6825 39.478 16.5936M38.6872 13.3291C38.7456 13.9301 38.6309 14.5352 38.3567 15.0733C38.2466 15.2911 38.0778 15.4739 37.8692 15.6009C37.6606 15.7279 37.4206 15.7942 37.1763 15.7922C36.8842 15.8429 36.5836 15.8007 36.3167 15.6718C36.0499 15.5428 35.8303 15.3335 35.689 15.0733C35.6414 15.178 35.582 15.2768 35.5119 15.368C35.3715 15.5437 35.1912 15.6834 34.9859 15.7756C34.7806 15.8679 34.5563 15.9099 34.3315 15.8983C34.0825 15.9015 33.838 15.8317 33.6282 15.6977C33.4184 15.5636 33.2526 15.3712 33.1511 15.1441C33.0541 15.3694 32.889 15.5589 32.6789 15.6862C32.469 15.8252 32.2226 15.899 31.9707 15.8983C31.758 15.9144 31.5442 15.8884 31.3416 15.8216C31.139 15.7549 30.9516 15.6488 30.7903 15.5094C30.5423 15.1955 30.4075 14.8073 30.4075 14.4075C30.4075 14.0077 30.5423 13.6195 30.7903 13.3056C30.9292 13.1646 31.0974 13.0556 31.2829 12.9864C31.4685 12.9172 31.667 12.8893 31.8645 12.9049C32.0578 12.8924 32.2484 12.9559 32.3957 13.0816C32.4658 13.1352 32.5219 13.2051 32.5589 13.2852C32.5959 13.3653 32.6128 13.4532 32.6081 13.5413C32.6081 13.9537 32.3838 14.1659 31.9235 14.1659C31.4631 14.1659 31.2035 14.0009 31.2035 13.6591C31.1945 13.5451 31.2263 13.4315 31.2933 13.3387C31.3604 13.2459 31.4582 13.1799 31.5694 13.1523C31.1916 13.2466 31.0146 13.4588 31.0146 13.7652C31.0146 14.0716 31.3451 14.3898 31.9943 14.3898C32.2698 14.4031 32.5413 14.3197 32.7616 14.1541C32.8813 14.0786 32.9778 13.9714 33.0403 13.8445C33.1028 13.7177 33.1289 13.576 33.1157 13.4352H33.3282C33.3147 13.5711 33.3358 13.7082 33.3895 13.8339C33.4431 13.9595 33.5276 14.0696 33.6351 14.1541C33.8379 14.3184 34.0942 14.4023 34.3551 14.3898C34.4763 14.3946 34.5972 14.3753 34.7107 14.3327C34.8242 14.2902 34.9281 14.2255 35.0161 14.1423C35.1116 14.0473 35.1853 13.9328 35.2321 13.8067C35.279 13.6805 35.2979 13.5458 35.2876 13.4116C35.2951 13.2578 35.2633 13.1046 35.1952 12.9665C35.127 12.8284 35.0248 12.7098 34.8981 12.622C34.6909 12.4774 34.4426 12.403 34.1899 12.4099H30.7667C30.7357 12.4049 30.7039 12.4061 30.6734 12.4135C30.6428 12.4209 30.614 12.4343 30.5887 12.453C30.5634 12.4717 30.5421 12.4952 30.5261 12.5222C30.51 12.5492 30.4995 12.5791 30.4952 12.6102V11.4317H34.603C34.7068 11.4333 34.8098 11.4131 34.9054 11.3725C35.0009 11.3319 35.0869 11.2718 35.1578 11.196C35.234 11.1261 35.2937 11.0401 35.3325 10.9443C35.3713 10.8485 35.3883 10.7452 35.3821 10.6421C35.3789 10.4176 35.2903 10.2027 35.1342 10.041C35.063 9.9616 34.9756 9.89839 34.8779 9.85568C34.7801 9.81298 34.6743 9.79178 34.5676 9.79353C34.7467 9.79076 34.9246 9.82373 35.0908 9.89052C35.257 9.9573 35.4082 10.0566 35.5355 10.1824C35.782 10.4298 35.9204 10.7645 35.9204 11.1135C35.9204 11.4624 35.782 11.7972 35.5355 12.0445C35.4412 12.1295 35.3383 12.2045 35.2286 12.2684C35.3271 12.3511 35.4143 12.4462 35.4883 12.5513C35.7876 12.9353 35.9497 13.4082 35.9487 13.8948C36.1139 14.1659 36.5152 14.2955 37.129 14.2955C37.2673 14.3123 37.4075 14.2994 37.5403 14.2578C37.6732 14.2162 37.7956 14.1468 37.8995 14.0543C38.0034 13.9617 38.0863 13.8481 38.1427 13.721C38.1992 13.594 38.2278 13.4563 38.2268 13.3173C38.2406 13.1729 38.2204 13.0272 38.1679 12.892C38.1153 12.7567 38.0318 12.6356 37.924 12.5383C37.8162 12.441 37.6871 12.3702 37.547 12.3315C37.407 12.2928 37.2598 12.2874 37.1172 12.3156C36.9717 12.327 36.83 12.3673 36.7003 12.4341C36.5706 12.5009 36.4555 12.5928 36.3618 12.7045V11.5378C36.5944 11.4463 36.844 11.4061 37.0936 11.4199C37.3224 11.4217 37.5477 11.4757 37.7523 11.5779C37.9569 11.68 38.1353 11.8275 38.274 12.0092C38.5709 12.4681 38.7193 13.0071 38.699 13.553" fill="#388F26"/>
<path fill-rule="evenodd" clip-rule="evenodd" d="M9.7203 25.5741V25.6802C10.0154 26.1516 10.7236 26.3991 11.845 26.3991C12.0924 26.4316 12.344 26.4101 12.5822 26.336C12.8205 26.262 13.0398 26.1371 13.225 25.9702C13.4103 25.8032 13.5569 25.598 13.6549 25.3689C13.7529 25.1397 13.7999 24.8921 13.7927 24.643C13.8208 24.3872 13.7877 24.1283 13.696 23.8877C13.6044 23.6471 13.4568 23.4316 13.2656 23.2591C13.0743 23.0865 12.8447 22.9617 12.5957 22.895C12.3467 22.8282 12.0853 22.8215 11.8332 22.8753C11.5709 22.882 11.3134 22.9481 11.0804 23.0685C10.8473 23.189 10.6446 23.3606 10.4876 23.5706V21.3667C10.8959 21.2034 11.335 21.131 11.7742 21.1546C12.1854 21.1541 12.5911 21.2486 12.9596 21.4305C13.3282 21.6125 13.6497 21.877 13.8989 22.2035C14.429 23.014 14.6892 23.9708 14.6426 24.9377C14.6988 25.944 14.4784 26.9466 14.0051 27.8369C13.803 28.2266 13.4959 28.5522 13.1184 28.7771C12.741 29.0019 12.3081 29.1171 11.8686 29.1097C11.3433 29.1677 10.8131 29.0574 10.3548 28.7946C9.89645 28.5319 9.53368 28.1305 9.31897 27.6483C9.22718 27.8359 9.11643 28.0136 8.98845 28.1786C8.74439 28.4881 8.42922 28.7343 8.06964 28.8964C7.71007 29.0584 7.31667 29.1316 6.92276 29.1097C6.48423 29.1127 6.05405 28.99 5.68334 28.7561C5.3151 28.519 5.03032 28.1729 4.86887 27.7661C4.69522 28.1726 4.40322 28.5175 4.03078 28.7561C3.65168 28.9907 3.21376 29.1133 2.76776 29.1097C2.0273 29.1573 1.29787 28.9117 0.737473 28.4261C0.485064 28.1645 0.289712 27.8535 0.163748 27.5127C0.0377849 27.1719 -0.0160551 26.8088 0.00562596 26.4462C-0.0399715 25.7383 0.192962 25.0406 0.654844 24.5016C0.913132 24.2456 1.22471 24.0496 1.56744 23.9274C1.91017 23.8052 2.27564 23.7598 2.63791 23.7945C2.98015 23.7739 3.31751 23.8834 3.58223 24.1009C3.7036 24.2003 3.79993 24.3267 3.86349 24.4699C3.92704 24.6132 3.95604 24.7694 3.94815 24.9259C3.94815 25.6684 3.54682 26.0337 2.76776 26.0337C1.98869 26.0337 1.46932 25.7391 1.46932 25.138C1.45726 24.9338 1.51656 24.7316 1.63711 24.5661C1.75766 24.4007 1.93198 24.282 2.13034 24.2306C1.46932 24.4113 1.13881 24.7766 1.13881 25.3266C1.13881 26.0691 1.7172 26.4462 2.8858 26.4462C3.37618 26.4564 3.85665 26.3076 4.25506 26.0219C4.46449 25.8849 4.63382 25.695 4.74579 25.4714C4.85776 25.2478 4.90837 24.9986 4.89247 24.7491H4.99871C4.97494 24.9909 5.01342 25.2347 5.11052 25.4575C5.20761 25.6802 5.36009 25.8745 5.5535 26.0219C5.91697 26.3054 6.36717 26.4553 6.82833 26.4462C7.06195 26.4649 7.29682 26.4319 7.5162 26.3495C7.73558 26.2672 7.93407 26.1376 8.09752 25.9699C8.26098 25.8022 8.38537 25.6005 8.46183 25.3793C8.5383 25.1582 8.56496 24.9228 8.5399 24.6902C8.5352 24.414 8.46013 24.1436 8.32176 23.9044C8.18339 23.6652 7.98629 23.4652 7.74904 23.3231C7.37101 23.0751 6.92642 22.9477 6.47421 22.9577H0.489589C0.194489 22.9577 0.0292339 23.0874 0.00562596 23.3584V21.1546H6.4624C6.96073 21.1624 7.45761 21.0989 7.9379 20.966C8.17561 20.8779 8.37858 20.7157 8.51677 20.5035C8.65495 20.2912 8.72101 20.0402 8.70516 19.7875C8.72497 19.4666 8.63376 19.1487 8.44681 18.887C8.25986 18.6252 7.98851 18.4355 7.67821 18.3497C7.87403 18.4375 8.03862 18.5824 8.1503 18.7655C8.26198 18.9485 8.3155 19.161 8.30382 19.375C8.30382 19.6876 8.17946 19.9873 7.95809 20.2084C7.73673 20.4294 7.43649 20.5535 7.12343 20.5535C6.81376 20.5522 6.51701 20.4295 6.29715 20.2118C6.0773 19.991 5.9539 19.6923 5.9539 19.3809C5.9539 19.0696 6.0773 18.7709 6.29715 18.55V18.4911C6.56201 18.2621 6.90302 18.1402 7.25327 18.1493C7.56464 18.1382 7.87514 18.1887 8.16687 18.2979C8.4586 18.4071 8.7258 18.5729 8.95304 18.7858C9.19842 19.0098 9.39362 19.2832 9.52584 19.5878C9.65806 19.8925 9.72433 20.2216 9.7203 20.5535C9.72592 20.8664 9.6658 21.177 9.54381 21.4652C9.42183 21.7535 9.24068 22.013 9.01206 22.2271C8.8455 22.3876 8.65906 22.5262 8.45728 22.6395C8.63513 22.7838 8.7938 22.9501 8.92943 23.1345C9.46423 23.8337 9.74331 24.6946 9.7203 25.5741ZM43.2318 23.4174C43.2488 23.7092 43.2029 24.0012 43.0969 24.2736C42.991 24.5461 42.8277 24.7927 42.618 24.9966C42.3961 25.196 42.1369 25.3497 41.8553 25.4488C41.5738 25.5479 41.2753 25.5905 40.9772 25.5741C40.4137 25.6097 39.8587 25.4235 39.4309 25.0555C39.2393 24.8646 39.0931 24.633 39.0032 24.378C38.9133 24.123 38.882 23.8511 38.9115 23.5824C38.9057 23.3129 38.9574 23.0454 39.0633 22.7974C39.1691 22.5495 39.3266 22.327 39.5254 22.1446C39.1557 22.3624 38.8561 22.6811 38.6616 23.0632C38.4671 23.4452 38.386 23.8747 38.4276 24.3013C38.4208 24.6464 38.5085 24.9868 38.6811 25.2858C38.8538 25.5848 39.1049 25.8312 39.4073 25.9984C40.0236 26.3398 40.7215 26.5069 41.4258 26.4816C42.0233 26.4756 42.6029 26.2772 43.0784 25.9159V28.8975C42.301 29.0505 41.5097 29.1216 40.7176 29.1097C40.2211 29.1113 39.7307 29.0008 39.2831 28.7865C38.8354 28.5722 38.4421 28.2597 38.1325 27.8722C37.4674 27.0954 37.102 26.107 37.102 25.085C37.102 24.063 37.4674 23.0746 38.1325 22.2978C38.4743 21.9159 38.8952 21.6127 39.3661 21.4092C39.8369 21.2057 40.3463 21.1068 40.8592 21.1192C41.1634 21.1084 41.4667 21.1593 41.7507 21.2686C42.0347 21.378 42.2936 21.5437 42.5118 21.7556C42.7284 21.9659 42.8983 22.2194 43.0101 22.4997C43.122 22.7799 43.1734 23.0806 43.161 23.382M41.7091 22.8517C41.724 22.7425 41.7173 22.6315 41.6891 22.525C41.661 22.4185 41.6121 22.3186 41.5452 22.231C41.4783 22.1434 41.3947 22.0698 41.2993 22.0146C41.2038 21.9593 41.0984 21.9234 40.989 21.9089C40.9147 21.8972 40.8391 21.8972 40.7648 21.9089C40.6421 21.9084 40.5206 21.9321 40.4072 21.9787C40.2938 22.0252 40.1907 22.0936 40.1037 22.1799C39.9284 22.3595 39.8308 22.6008 39.8323 22.8517C39.8266 22.9755 39.8468 23.0991 39.8915 23.2148C39.9362 23.3304 40.0045 23.4355 40.0919 23.5234C40.2217 23.6488 40.3843 23.7348 40.561 23.7718C40.7376 23.8087 40.9212 23.7949 41.0903 23.732C41.2595 23.6691 41.4074 23.5597 41.5169 23.4165C41.6264 23.2732 41.693 23.1019 41.7091 22.9224V22.8517ZM36.5508 28.5793C36.586 29.196 36.4859 29.8129 36.2576 30.3869C36.0292 30.961 35.6781 31.4783 35.2287 31.9028C34.2441 32.7358 32.9758 33.1579 31.6875 33.0813C28.6421 33.0813 26.9659 31.7614 26.8479 29.0979C26.5061 29.099 26.1684 29.0233 25.8598 28.8764C25.5513 28.7296 25.2798 28.5152 25.0655 28.2493C24.9599 28.1053 24.8764 27.9465 24.8176 27.7779C24.5808 28.2424 24.2039 28.6208 23.74 28.8598C23.2762 29.0987 22.7488 29.1861 22.2325 29.1097C21.7928 29.1182 21.3594 29.0039 20.9813 28.7797C20.7878 28.676 20.619 28.5317 20.4865 28.3568C20.3541 28.1818 20.2611 27.9803 20.214 27.7661C20.0951 28.1822 19.8203 28.5367 19.4468 28.7561C19.0581 28.9886 18.6133 29.1109 18.1601 29.1097C16.2951 29.1097 15.3626 28.2258 15.3626 26.4462C15.3489 26.0365 15.4425 25.6303 15.6341 25.2677C15.7052 25.0844 15.83 24.9269 15.9921 24.8155C16.1542 24.704 16.3462 24.644 16.543 24.643C16.3584 24.6558 16.1739 24.6161 16.011 24.5285C15.848 24.4409 15.7133 24.309 15.6223 24.1481C15.4353 23.8216 15.3376 23.4517 15.339 23.0756C15.3228 22.7669 15.3885 22.4594 15.5294 22.1842C15.6703 21.909 15.8815 21.6758 16.1417 21.5082C16.6725 21.1815 17.2893 21.0214 17.9123 21.0485C18.2886 21.0481 18.6641 21.0836 19.0336 21.1546V23.1817C18.738 23.0259 18.4115 22.9374 18.0775 22.9224C17.3103 22.9224 16.8971 23.1227 16.8971 23.547C16.8971 23.9713 17.2749 24.3602 18.0775 24.3602C18.2522 24.3587 18.4263 24.339 18.5969 24.3013V24.9023C18.3771 24.8459 18.151 24.8181 17.9241 24.8198C17.263 24.8198 16.9325 25.0673 16.9325 25.5741C16.9325 26.0809 17.4637 26.4462 18.5261 26.4462C18.7449 26.4541 18.9629 26.4163 19.1662 26.3351C19.3695 26.2539 19.5535 26.1312 19.7065 25.9748C19.9936 25.6188 20.1405 25.1703 20.1196 24.7138H20.3439C20.3439 25.8923 20.8633 26.4344 21.902 26.4344C22.9408 26.4344 23.4837 26.1398 23.4837 25.5623C23.4837 24.9848 23.1414 24.808 22.4686 24.808C22.2534 24.8064 22.0389 24.8342 21.8312 24.8905V24.2895C22.0503 24.3208 22.271 24.3405 22.4922 24.3484C23.1532 24.3484 23.4837 24.0774 23.4837 23.5352C23.4837 23.111 23.1178 22.9106 22.3624 22.9106H21.5243C21.4051 22.9132 21.2879 22.9407 21.1801 22.9915C21.0723 23.0423 20.9764 23.1151 20.8987 23.2052V21.1546H21.843C22.3297 21.1623 22.8149 21.0988 23.2831 20.966C23.523 20.8799 23.7285 20.7186 23.869 20.5062C24.0094 20.2937 24.0772 20.0416 24.0621 19.7875C24.0819 19.4666 23.9907 19.1487 23.8038 18.887C23.6168 18.6252 23.3455 18.4355 23.0352 18.3497C23.2268 18.4418 23.3872 18.5881 23.4963 18.7704C23.6054 18.9526 23.6585 19.1629 23.649 19.375C23.649 19.6876 23.5246 19.9873 23.3033 20.2084C23.0819 20.4294 22.7817 20.5535 22.4686 20.5535C22.1555 20.5535 21.8553 20.4294 21.6339 20.2084C21.4126 19.9873 21.2882 19.6876 21.2882 19.375C21.2852 19.2066 21.3185 19.0395 21.3857 18.885C21.4529 18.7305 21.5525 18.5922 21.6777 18.4793C21.9426 18.2503 22.2836 18.1284 22.6339 18.1376C22.9452 18.1264 23.2557 18.1769 23.5475 18.2861C23.8392 18.3953 24.1064 18.5612 24.3336 18.774C24.5741 19.0025 24.7636 19.2792 24.8897 19.5858C25.0158 19.8925 25.0757 20.2222 25.0655 20.5535C25.0689 20.8672 25.0066 21.1781 24.8826 21.4663C24.7586 21.7545 24.5756 22.0136 24.3454 22.2271L24.133 22.4156C24.4156 22.6112 24.6099 22.9099 24.674 23.2472C24.738 23.5845 24.6666 23.9335 24.4753 24.2188C24.3303 24.4314 24.1246 24.5956 23.8851 24.6902C24.0817 24.6977 24.2723 24.7603 24.4351 24.8707C24.5979 24.9812 24.7263 25.135 24.8058 25.3148L24.9592 25.0437C24.9592 25.963 25.5967 26.4226 26.8951 26.4226C27.2129 26.4312 27.5293 26.3792 27.8276 26.2694C28.2053 26.128 28.3942 25.9041 28.3942 25.6094C28.3156 25.0644 28.0483 24.564 27.6387 24.1952C27.21 23.8104 26.937 23.2822 26.8715 22.7103C26.8767 22.3046 27.0179 21.9124 27.2725 21.5962C27.5271 21.2801 27.8805 21.0582 28.2762 20.966C29.0354 20.7054 29.8341 20.5778 30.637 20.5889C32.0425 20.4958 33.4477 20.7764 34.7093 21.4021C35.3294 21.8358 35.8218 22.4275 36.1353 23.1156C36.4487 23.8037 36.5718 24.5631 36.4917 25.3148C36.5627 26.2606 36.3132 27.2028 35.7835 27.9901C35.5124 28.356 35.1552 28.6496 34.7434 28.8449C34.3317 29.0401 33.8781 29.1311 33.4227 29.1097C32.6424 29.1452 31.8743 28.9076 31.2508 28.4379C30.955 28.1827 30.7223 27.8627 30.5708 27.5029C30.4192 27.1431 30.353 26.7533 30.3773 26.3637C30.2824 25.7201 30.4464 25.0653 30.8334 24.542C31.2204 24.0187 31.799 23.6695 32.443 23.5706C32.6702 23.5411 32.9003 23.5411 33.1276 23.5706C33.5015 23.5582 33.8683 23.6747 34.1663 23.9006C34.3005 24.015 34.4073 24.1581 34.4788 24.3192C34.5503 24.4804 34.5847 24.6555 34.5795 24.8316C34.5809 24.9974 34.5406 25.161 34.4622 25.3072C34.3838 25.4534 34.2699 25.5776 34.1309 25.6684C33.8345 25.868 33.4852 25.9747 33.1276 25.9748C32.8142 25.9838 32.5054 25.8975 32.2423 25.7273C32.042 25.6027 31.8972 25.4061 31.8379 25.178C31.7785 24.9499 31.8092 24.7078 31.9236 24.5016C32.0441 24.2989 32.2388 24.151 32.4666 24.0891C32.1582 24.1327 31.8702 24.2683 31.6403 24.4781C31.4339 24.6464 31.302 24.8892 31.2733 25.1538C31.2446 25.4184 31.3213 25.6837 31.4868 25.8923C31.6204 26.0491 31.7967 26.1638 31.9944 26.2223C32.3999 26.3981 32.8392 26.4826 33.281 26.4698C34.7802 26.4698 35.5474 25.8923 35.5592 24.7255C35.5592 23.9477 35.0516 23.3702 34.0129 23.0049C33.1811 22.721 32.3068 22.5815 31.4278 22.5924C30.8423 22.5801 30.2579 22.6515 29.6926 22.8045C28.9254 23.0049 28.5122 23.3349 28.5122 23.8063C28.5559 24.0607 28.69 24.2908 28.89 24.4545C29.1566 24.7028 29.3907 24.984 29.5864 25.2912C29.828 25.7763 29.9263 26.3199 29.8697 26.8587C29.8648 27.1761 29.7916 27.4887 29.6552 27.7754C29.5187 28.0621 29.3222 28.3161 29.0788 28.5204C28.5865 28.9324 27.9623 29.154 27.32 29.145H27.084C27.8394 30.5593 29.3739 31.2664 31.6993 31.2664C34.367 31.2664 35.9842 30.3825 36.5508 28.5911" fill="#388F26"/>
<path fill-rule="evenodd" clip-rule="evenodd" d="M102.972 21.3784L102.547 24.313H103.444L103.869 21.3313C103.902 21.2082 103.911 21.0797 103.894 20.9533C103.877 20.8268 103.835 20.7051 103.77 20.5952C103.705 20.4854 103.619 20.3896 103.516 20.3136C103.413 20.2376 103.296 20.1829 103.172 20.1528C103.059 20.1293 102.943 20.1293 102.83 20.1528C102.492 20.1631 102.163 20.2606 101.874 20.4356V20.1999H101.118L100.505 24.313H101.355L101.874 20.8599H102.594C102.924 20.8599 103.113 20.9542 103.019 21.3784" fill="#388F26"/>
<path fill-rule="evenodd" clip-rule="evenodd" d="M107.044 24.3131L107.469 21.3786C107.611 20.6715 107.139 20.2001 106.289 20.2001C105.856 20.2 105.424 20.2474 105.002 20.3415V20.9661H106.182C106.572 20.9661 106.808 21.0604 106.761 21.579V21.9561H105.899C105.547 21.9624 105.209 22.0961 104.949 22.3324C104.688 22.5687 104.523 22.8915 104.483 23.2407C104.434 23.3831 104.423 23.5353 104.449 23.6834C104.475 23.8315 104.538 23.9707 104.632 24.0881C104.726 24.2055 104.848 24.2974 104.987 24.3552C105.126 24.4131 105.277 24.4351 105.427 24.4192C105.803 24.4243 106.172 24.3087 106.477 24.0892V24.3721L107.044 24.3131ZM106.289 23.6532H105.663C105.285 23.6532 105.096 23.5117 105.191 23.0757C105.285 22.6396 105.38 22.51 105.757 22.4628L106.477 22.3214L106.289 23.6532Z" fill="#388F26"/>
<path fill-rule="evenodd" clip-rule="evenodd" d="M111.234 20.4829C111.149 20.3667 111.033 20.275 110.901 20.2171C110.768 20.1592 110.623 20.1371 110.479 20.1529C110.072 20.1755 109.672 20.2713 109.299 20.4358V20.2001H108.543L107.929 24.3131H108.874L109.393 20.8601H110.054C110.385 20.8601 110.526 20.9543 110.479 21.3786L110.054 24.3131H110.904L111.376 21.1429C111.4 21.0501 111.4 20.9529 111.376 20.8601H112.037C112.415 20.8601 112.557 20.9543 112.509 21.3786L112.084 24.3131H112.934L113.418 21.3315C113.452 21.2084 113.46 21.0798 113.443 20.9534C113.426 20.827 113.384 20.7053 113.319 20.5954C113.254 20.4855 113.168 20.3898 113.065 20.3138C112.963 20.2378 112.846 20.1831 112.722 20.1529C112.605 20.1294 112.485 20.1294 112.368 20.1529C111.95 20.1433 111.539 20.2582 111.187 20.4829" fill="#388F26"/>
<path fill-rule="evenodd" clip-rule="evenodd" d="M117.137 20.4828C117.052 20.3617 116.936 20.2667 116.8 20.2084C116.664 20.15 116.515 20.1308 116.369 20.1528C115.962 20.1753 115.562 20.2712 115.189 20.4356V20.1999H114.481L113.867 24.313H114.776L115.295 20.8599H115.956C116.334 20.8599 116.475 20.9542 116.381 21.3784L115.956 24.313H116.865L117.337 21.1427V20.8599H118.045C118.376 20.8599 118.565 20.9542 118.47 21.3784L118.045 24.313H118.943L119.367 21.3313C119.403 21.2098 119.414 21.0824 119.399 20.9567C119.384 20.8309 119.344 20.7094 119.282 20.5994C119.219 20.4895 119.134 20.3932 119.034 20.3165C118.933 20.2397 118.818 20.1841 118.695 20.1528C118.589 20.1352 118.481 20.1352 118.376 20.1528C117.958 20.1432 117.547 20.2581 117.196 20.4828" fill="#388F26"/>
<path fill-rule="evenodd" clip-rule="evenodd" d="M122.484 24.3131L122.909 21.3786C123.05 20.6715 122.578 20.2001 121.728 20.2001C121.299 20.1999 120.872 20.2473 120.453 20.3415V20.9661H121.634C122.011 20.9661 122.248 21.0604 122.2 21.579V21.9561H121.35C120.996 21.9595 120.656 22.092 120.393 22.3286C120.13 22.5651 119.962 22.8895 119.922 23.2407C119.882 23.359 119.867 23.4841 119.877 23.6085C119.887 23.7329 119.923 23.8539 119.981 23.9642C120.04 24.0744 120.12 24.1716 120.218 24.2499C120.315 24.3281 120.427 24.3857 120.548 24.4192C120.657 24.4432 120.769 24.4432 120.878 24.4192C121.252 24.4316 121.619 24.3151 121.917 24.0892V24.3721L122.484 24.3131ZM121.728 23.6532H121.114C120.737 23.6532 120.595 23.5117 120.642 23.0757C120.689 22.6396 120.831 22.51 121.209 22.4629L121.917 22.3214L121.728 23.6532Z" fill="#388F26"/>
<path fill-rule="evenodd" clip-rule="evenodd" d="M106.076 32.9398L106.171 32.4212C106.69 28.8856 105.698 27.0353 103.279 27.0353C100.859 27.0353 99.1236 28.7324 98.557 32.4684C98.2147 34.9197 98.6514 37.6657 101.957 37.6657C102.955 37.6694 103.948 37.5102 104.896 37.1943L105.085 36.0157H102.523C101.107 36.0157 100.398 35.2968 100.776 32.9869L106.076 32.9398ZM104.034 31.4784H100.965C101.296 29.4867 101.815 28.5439 102.995 28.5439C104.176 28.5439 104.317 29.6281 104.081 31.007L104.034 31.4784Z" fill="#388F26"/>
<path fill-rule="evenodd" clip-rule="evenodd" d="M111.423 37.1944L111.612 36.0159H110.621C109.759 36.0159 109.44 35.6741 109.57 34.9199L110.432 29.3926H112.415L112.651 27.884H110.573L110.951 25.527H109.771L108.685 27.884H107.127L106.891 29.3926H108.165L107.316 34.967C107.079 36.6287 107.929 37.6658 109.346 37.6658C110.052 37.6522 110.747 37.4917 111.388 37.1944" fill="#388F26"/>
<path fill-rule="evenodd" clip-rule="evenodd" d="M118.659 28.8268L118.943 27.0826H118.423C117.514 27.1027 116.641 27.4405 115.956 28.0372V27.1886H114.067L112.509 37.5361H114.776L115.956 28.8268H118.659Z" fill="#388F26"/>
<path fill-rule="evenodd" clip-rule="evenodd" d="M127.075 32.3741C127.689 28.0724 125.895 27.0353 123.676 27.0353C121.457 27.0353 119.273 28.0724 118.659 32.3741C118.045 36.6757 119.84 37.6657 122.059 37.6657C124.278 37.6657 126.414 36.6757 127.075 32.3741ZM124.715 32.3741C124.337 35.1083 123.865 36.1572 122.354 36.1572C120.843 36.1572 120.595 35.1083 121.02 32.3741C121.445 29.6399 121.775 28.591 123.487 28.591C125.199 28.591 125.187 29.7695 124.762 32.3741" fill="#388F26"/>
<path fill-rule="evenodd" clip-rule="evenodd" d="M92.2536 27.884C92.0367 27.5943 91.7496 27.3644 91.4192 27.216C91.0888 27.0675 90.7261 27.0054 90.365 27.0354C89.3715 27.0816 88.4021 27.3558 87.5321 27.8368V27.224H85.5372L83.9791 37.5244H86.1982L87.4848 28.8739H89.1374C90.0817 28.8739 90.4594 29.1097 90.3178 30.2057L89.2318 37.5244H91.4038L92.5842 29.5339C92.6078 29.3146 92.6078 29.0933 92.5842 28.8739H94.3312C95.2755 28.8739 95.6532 29.1097 95.5115 30.2057L94.4256 37.5244H96.6447L97.8251 30.0171C97.9964 29.417 97.9224 28.7736 97.6192 28.2279C97.3161 27.6822 96.8086 27.2788 96.208 27.1062C95.8904 27.0121 95.5561 26.988 95.2283 27.0354C94.1914 27.0592 93.1786 27.3516 92.2891 27.884" fill="#388F26"/>
<path fill-rule="evenodd" clip-rule="evenodd" d="M51.8015 15.3562C51.9764 15.4786 52.1123 15.6487 52.1927 15.8463C52.2732 16.0438 52.2948 16.2604 52.255 16.4699C52.2153 16.6794 52.1157 16.873 51.9685 17.0275C51.8212 17.1819 51.6324 17.2906 51.4247 17.3406C51.2171 17.3905 50.9994 17.3796 50.7978 17.309C50.5962 17.2385 50.4193 17.1113 50.2884 16.9429C50.1574 16.7744 50.0779 16.5718 50.0594 16.3593C50.041 16.1469 50.0843 15.9336 50.1843 15.7451C50.3479 15.4803 50.6097 15.2908 50.9126 15.218C51.2156 15.1451 51.5351 15.1948 51.8015 15.3562Z" fill="#388F26"/>
<path fill-rule="evenodd" clip-rule="evenodd" d="M74.2172 30.0524C74.3583 30.1261 74.483 30.2275 74.5838 30.3505C74.6846 30.4736 74.7594 30.6157 74.8038 30.7683C74.8481 30.921 74.8611 31.081 74.8419 31.2388C74.8227 31.3966 74.7717 31.5489 74.692 31.6865C74.6124 31.8241 74.5056 31.9442 74.3783 32.0396C74.2509 32.1349 74.1055 32.2036 73.9509 32.2414C73.7963 32.2792 73.6356 32.2854 73.4785 32.2596C73.3214 32.2338 73.1712 32.1766 73.0368 32.0913C72.7668 31.9358 72.5694 31.68 72.4876 31.3798C72.4057 31.0795 72.4462 30.7591 72.6001 30.4885C72.7578 30.2209 73.0148 30.0263 73.3154 29.9468C73.616 29.8674 73.9358 29.9096 74.2054 30.0642" fill="#388F26"/>
<path fill-rule="evenodd" clip-rule="evenodd" d="M51.6598 38.2668C51.831 38.0065 52.0984 37.8245 52.4036 37.7604C52.7089 37.6964 53.0271 37.7556 53.2887 37.925C53.4954 38.1595 53.6094 38.4612 53.6094 38.7735C53.6094 39.0859 53.4954 39.3876 53.2887 39.6221C53.1178 39.8759 52.8548 40.0534 52.5553 40.1172C52.2557 40.1809 51.9431 40.126 51.6834 39.9639C51.4659 39.7323 51.3449 39.4268 51.3449 39.1094C51.3449 38.792 51.4659 38.4865 51.6834 38.255" fill="#388F26"/>
<path fill-rule="evenodd" clip-rule="evenodd" d="M71.6203 6.82359C71.793 6.57174 72.0569 6.39661 72.3563 6.33507C72.6557 6.27352 72.9674 6.33035 73.2257 6.4936C73.4455 6.71441 73.5689 7.01312 73.5689 7.32447C73.5689 7.63582 73.4455 7.93452 73.2257 8.15533C73.0764 8.40009 72.8362 8.57592 72.5575 8.64437C72.2788 8.71283 71.9843 8.66836 71.7384 8.52067L71.6203 8.43818C71.404 8.21787 71.2829 7.92169 71.2829 7.61321C71.2829 7.30472 71.404 7.00854 71.6203 6.78824" fill="#388F26"/>
<path fill-rule="evenodd" clip-rule="evenodd" d="M61.9647 23.3231C62.0426 23.1895 62.1485 23.0744 62.2751 22.9855C62.4017 22.8967 62.5461 22.8362 62.6983 22.8082C62.8505 22.7802 63.007 22.7854 63.157 22.8234C63.307 22.8614 63.4471 22.9313 63.5675 23.0284C63.6879 23.1254 63.7859 23.2473 63.8548 23.3857C63.9237 23.5241 63.9618 23.6757 63.9665 23.8302C63.9712 23.9846 63.9425 24.1383 63.8822 24.2806C63.8219 24.4229 63.7315 24.5506 63.6173 24.6548C63.4443 24.9099 63.1783 25.0872 62.8761 25.1489C62.5738 25.2106 62.2594 25.1517 62.0001 24.9848C61.7958 24.7491 61.6833 24.4479 61.6833 24.1362C61.6833 23.8246 61.7958 23.5233 62.0001 23.2877" fill="#388F26"/>
<path fill-rule="evenodd" clip-rule="evenodd" d="M48.9567 18.3851C48.273 17.9084 47.7798 17.2061 47.5639 16.4019C47.3479 15.5978 47.4232 14.7434 47.7763 13.9892C47.9755 13.2811 48.4431 12.6783 49.0799 12.3087C49.7168 11.9391 50.4728 11.8317 51.1876 12.0092C49.1456 10.4064 46.6431 10.4536 45.6516 13.0935C44.8961 15.1677 45.6516 17.2537 49.0039 18.3851" fill="#A1218C"/>
<path fill-rule="evenodd" clip-rule="evenodd" d="M52.2146 9.74634C56.5112 11.1606 58.4117 15.5565 59.1199 17.6307C58.3172 17.9135 57.5146 18.1021 57.5146 18.1021C56.8218 14.7671 54.9381 11.7973 52.2146 9.74634Z" fill="#A1218C"/>
<path fill-rule="evenodd" clip-rule="evenodd" d="M74.5005 2.46313C73.8395 1.00175 72.3758 1.19031 71.101 2.10957C70.0622 2.91097 66.5564 6.03407 65.5649 15.4387C65.2571 18.417 65.4003 21.4245 65.9898 24.3602C66.7453 24.2659 67.8313 24.2188 67.8313 24.2188C67.5817 22.3599 67.4908 20.4832 67.5598 18.609C72.1987 16.2519 75.9878 13.176 78.0181 9.31038C80.5205 4.4902 78.9152 0.565694 75.6573 0C78.1597 2.35706 77.3099 6.61155 74.6067 10.2532C72.7535 12.7707 70.3831 14.8641 67.6542 16.3933C67.8926 13.0659 68.7744 9.81614 70.2511 6.82369C71.1954 4.84376 72.9424 2.85204 74.5005 2.42777" fill="#A1218C"/>
<path fill-rule="evenodd" clip-rule="evenodd" d="M47.8707 20.6006C52.5923 22.2152 58.5651 20.6949 63.0624 18.7621V20.5534C61.882 20.9306 61.2092 21.1663 59.9816 21.4963C60.3708 23.7768 60.466 26.0978 60.2649 28.4025C62.6923 27.4143 65.2629 26.8214 67.8785 26.6464C70.5321 26.3851 73.2006 26.9667 75.5038 28.3082C73.3214 27.6071 71.0042 27.4295 68.7402 27.7896C69.4973 30.1964 70.9413 32.3303 72.8952 33.9298C69.7317 33.0694 67.8312 29.5338 67.1702 27.9782C64.7631 28.4822 62.4166 29.2407 60.1705 30.241C59.8599 34.6455 58.5996 38.9311 56.4758 42.8041C53.8317 47.1057 50.3259 48.0485 47.6819 45.8683C50.0427 46.3986 52.8402 45.0197 55.0593 40.7299C56.7932 37.0217 57.8295 33.0269 58.1166 28.9446C58.3762 26.5946 58.3762 24.2233 58.1166 21.8734C52.8638 22.9105 49.8538 21.8734 47.7999 20.5888" fill="#A1218C"/>
<path fill-rule="evenodd" clip-rule="evenodd" d="M55.0594 33.1167C55.2483 32.1739 55.3427 31.5611 55.4843 30.5711C52.4463 32.1459 49.8343 34.4303 47.8708 37.2298C45.9349 40.1643 45.8877 43.7471 48.8623 43.6056C48.0596 42.1443 48.8623 39.2569 51.2231 36.5345C52.357 35.2506 53.641 34.1071 55.0476 33.1285" fill="#A1218C"/>
<path fill-rule="evenodd" clip-rule="evenodd" d="M76.5898 26.0809C78.9506 27.448 80.8393 30.4296 79.0923 33.5881C78.4255 34.8036 77.3438 35.7399 76.0441 36.2265C74.7443 36.7131 73.3128 36.7178 72.0099 36.2398C74.8428 38.1254 79.2929 38.3611 81.4531 34.2127C83.0584 31.0425 80.5914 27.3537 76.7315 26.0809" fill="#A1218C"/>
</svg>
