<svg width="137" height="58" viewBox="0 0 137 58" fill="none" xmlns="http://www.w3.org/2000/svg">
<path d="M109.066 49.3406V53.2446C109.066 53.5139 109.268 53.7158 109.537 53.7158H111.153C111.422 53.7158 111.624 53.5139 111.624 53.2446V49.3406H109.066Z" fill="#324956"/>
<path d="M111.624 49.3406H109.066V51.5618H111.624V49.3406Z" fill="#243942"/>
<path d="M127.375 49.3406V53.2446C127.375 53.5139 127.576 53.7158 127.846 53.7158H129.461C129.73 53.7158 129.932 53.5139 129.932 53.2446V49.3406H127.375Z" fill="#324956"/>
<path d="M129.932 49.3406H127.375V51.5618H129.932V49.3406Z" fill="#243942"/>
<path d="M132.221 19.8584C131.952 18.4449 130.605 17.166 129.259 17.0313C122.73 16.2236 116.134 16.2236 109.672 17.0313C108.326 17.166 106.979 18.5122 106.71 19.8584C104.96 29.5512 104.96 39.042 106.71 48.4655C107.047 49.7444 108.393 50.8214 109.739 50.8214C116.268 50.8214 122.797 50.8214 129.327 50.8214C130.673 50.8214 132.019 49.7444 132.288 48.3982C134.038 38.9747 134.038 29.5512 132.221 19.8584Z" fill="#5AC8AE"/>
<path d="M109.537 17.7044C116.201 16.8967 122.865 16.8967 129.528 17.7044C130.605 17.8391 131.75 18.7814 132.221 19.9257V19.8584C131.952 18.4449 130.605 17.166 129.259 17.0313C122.73 16.2236 116.134 16.2236 109.672 17.0313C108.326 17.166 106.979 18.5122 106.71 19.8584V19.9257C107.249 18.7814 108.393 17.8391 109.537 17.7044Z" fill="#73D8BE"/>
<path d="M131.413 21.1373C131.279 20.3969 130.673 19.7238 130 19.7238C122.999 19.118 115.999 19.118 108.999 19.7238C108.326 19.7911 107.72 20.3969 107.585 21.1373C106.912 25.6471 106.575 30.1569 106.508 34.5995C106.508 35.4745 107.181 36.1476 107.922 36.0803C115.595 35.3399 123.336 35.3399 131.009 36.0803C131.817 36.1476 132.423 35.4745 132.423 34.5995C132.423 30.1569 132.086 25.6471 131.413 21.1373Z" fill="#349B7D"/>
<path d="M131.144 21.6084C131.009 20.9353 130.471 20.3968 129.73 20.3295C122.932 19.8583 116.066 19.8583 109.268 20.3295C108.595 20.3968 107.989 20.9353 107.854 21.6084C107.181 25.5797 106.845 29.5511 106.777 33.4551C106.777 34.2628 107.383 34.8013 108.191 34.734C115.73 34.1282 123.269 34.1282 130.74 34.734C131.481 34.8013 132.154 34.2628 132.154 33.4551C132.154 29.5511 131.817 25.5797 131.144 21.6084Z" fill="#DBDFE0"/>
<path d="M117.413 52.1676V56.4082C117.413 56.8794 117.749 57.2159 118.22 57.2159H120.845C121.317 57.2159 121.653 56.8794 121.653 56.4082V52.1676H117.413Z" fill="#445C6C"/>
<path d="M117.413 53.7158C118.018 53.8504 118.759 53.9177 119.499 53.9177C120.307 53.9177 120.98 53.8504 121.586 53.7158V52.1676H117.345V53.7158H117.413Z" fill="#324956"/>
<path d="M125.221 50.1483C124.615 47.6578 122.797 41.4652 119.499 41.4652C116.268 41.4652 114.384 47.6578 113.778 50.1483C113.643 50.6868 114.047 51.158 114.518 51.158C114.518 51.158 116.336 52.5715 119.499 52.5715C122.932 52.5715 124.48 51.158 124.48 51.158C124.951 51.158 125.355 50.6868 125.221 50.1483Z" fill="#46B295"/>
<path d="M119.499 42.8787C121.098 42.8787 122.394 41.5829 122.394 39.9843C122.394 38.3858 121.098 37.09 119.499 37.09C117.901 37.09 116.605 38.3858 116.605 39.9843C116.605 41.5829 117.901 42.8787 119.499 42.8787Z" fill="#46B295"/>
<path d="M119.499 42.071C120.652 42.071 121.586 41.1368 121.586 39.9843C121.586 38.8319 120.652 37.8977 119.499 37.8977C118.347 37.8977 117.413 38.8319 117.413 39.9843C117.413 41.1368 118.347 42.071 119.499 42.071Z" fill="white"/>
<path d="M108.056 40.6575C107.316 40.6575 106.643 40.0517 106.643 39.244C106.643 38.5036 107.249 37.8304 108.056 37.8304H109.806C110.547 37.8304 111.22 38.4362 111.22 39.244C111.22 39.9844 110.614 40.6575 109.806 40.6575H108.056Z" fill="#46B295"/>
<path d="M109.806 38.5708H108.056C107.652 38.5708 107.383 38.9074 107.383 39.2439C107.383 39.5805 107.72 39.917 108.056 39.917H109.806C110.21 39.917 110.479 39.5805 110.479 39.2439C110.479 38.9074 110.143 38.5708 109.806 38.5708Z" fill="#FBD984"/>
<path d="M129.192 40.6575C128.451 40.6575 127.778 40.0517 127.778 39.244C127.778 38.5036 128.384 37.8304 129.192 37.8304H130.942C131.682 37.8304 132.356 38.4362 132.356 39.244C132.356 39.9844 131.75 40.6575 130.942 40.6575H129.192Z" fill="#46B295"/>
<path d="M130.942 38.5708H129.192C128.788 38.5708 128.519 38.9074 128.519 39.2439C128.519 39.5805 128.855 39.917 129.192 39.917H130.942C131.346 39.917 131.615 39.5805 131.615 39.2439C131.615 38.9074 131.346 38.5708 130.942 38.5708Z" fill="#FBD984"/>
<path d="M104.422 29.5511H102.604C102.268 29.5511 101.998 29.8204 101.998 30.1569V33.4552C101.998 33.7917 102.268 34.061 102.604 34.061H104.422C104.758 34.061 105.027 33.7917 105.027 33.4552V30.1569C105.027 29.8204 104.758 29.5511 104.422 29.5511Z" fill="#DBDFE0"/>
<path d="M106.979 36.1477L103.546 33.0514L103.412 33.3206L106.104 37.0227C106.441 37.4939 107.114 37.292 107.249 36.8208C107.249 36.4842 107.181 36.2823 106.979 36.1477Z" fill="#324956"/>
<path d="M103.547 33.4552C103.695 33.4552 103.816 33.3347 103.816 33.186C103.816 33.0373 103.695 32.9167 103.547 32.9167C103.398 32.9167 103.277 33.0373 103.277 33.186C103.277 33.3347 103.398 33.4552 103.547 33.4552Z" fill="#324956"/>
<path d="M134.577 29.5511H136.394C136.731 29.5511 137 29.8204 137 30.1569V33.4552C137 33.7917 136.731 34.061 136.394 34.061H134.577C134.24 34.061 133.971 33.7917 133.971 33.4552V30.1569C133.971 29.8204 134.24 29.5511 134.577 29.5511Z" fill="#DBDFE0"/>
<path d="M132.019 36.1477L135.452 33.0514L135.586 33.3206L132.894 37.0227C132.557 37.4939 131.884 37.292 131.75 36.8208C131.75 36.4842 131.817 36.2823 132.019 36.1477Z" fill="#324956"/>
<path d="M135.452 33.4552C135.601 33.4552 135.721 33.3347 135.721 33.186C135.721 33.0373 135.601 32.9167 135.452 32.9167C135.303 32.9167 135.183 33.0373 135.183 33.186C135.183 33.3347 135.303 33.4552 135.452 33.4552Z" fill="#324956"/>
<path d="M5.6378 8.36301C4.75807 11.0038 2.99783 15.404 2.99783 26.8459V40.0481H12.8092C12.6389 39.7934 12.5202 39.5012 12.485 39.1786L9.49189 12.2452C9.34892 10.9553 9.92395 9.7373 10.9185 9.01226V4.84253C10.9185 4.84253 6.51831 5.72226 5.6378 8.36301Z" fill="#F95555"/>
<path d="M14.4523 40.9271H2.11732V26.8451C2.11732 15.9837 3.68849 11.3647 4.62682 8.60443L4.80339 8.08409C5.83313 4.99488 10.5459 4.01905 10.7459 3.97921L11.799 3.76904V9.45994L11.4373 9.72402C10.6724 10.2803 10.2622 11.2092 10.3677 12.1476L13.3601 39.0817C13.378 39.245 13.439 39.4067 13.5413 39.5606L14.4523 40.9271ZM3.87757 39.1676H11.5975L8.61686 12.3421C8.4606 10.9334 8.99969 9.53651 10.038 8.59506V5.99415C8.71999 6.43401 6.91755 7.30671 6.47222 8.64115L6.29331 9.17086C5.38936 11.828 3.87678 16.2751 3.87678 26.8451L3.87757 39.1676Z" fill="black"/>
<path d="M42.6036 8.36301C41.7239 5.72226 37.3229 4.84253 37.3229 4.84253V9.01226C38.3175 9.73651 38.8925 10.9553 38.7496 12.2452L35.7572 39.1778C35.7213 39.4997 35.6025 39.7926 35.433 40.0473H45.2444V26.8451C45.2436 15.404 43.4834 11.0038 42.6036 8.36301Z" fill="#F95555"/>
<path d="M46.1241 40.9271H33.7892L34.7001 39.559C34.8025 39.4051 34.8634 39.2442 34.8814 39.0793L37.8745 12.1468C37.9792 11.2084 37.569 10.2795 36.8041 9.72243L36.4424 9.45835V3.76746L37.4956 3.97762C37.6956 4.01747 42.4083 4.9933 43.4381 8.08251L43.6138 8.60284C44.5522 11.3631 46.1241 15.9821 46.1241 26.8436V40.9271ZM36.6432 39.1676H44.3631V26.8451C44.3631 16.2751 42.8505 11.828 41.9474 9.17084L41.7684 8.64113C41.3231 7.30669 39.5207 6.43399 38.2019 5.99413V8.59503C39.241 9.53648 39.7801 10.9334 39.623 12.3421L36.6432 39.1676Z" fill="black"/>
<path d="M37.3229 4.51436C37.3229 3.6737 36.733 2.95257 35.908 2.7885C33.3915 2.28691 28.0318 1.32202 24.1207 1.32202C20.2096 1.32202 14.85 2.28769 12.3326 2.7885C11.5076 2.95257 10.9185 3.67448 10.9185 4.51436V9.01223C11.2732 8.75363 11.6779 8.5544 12.1272 8.44268C15.2398 7.66608 20.2112 6.60352 24.1207 6.60352C28.0295 6.60352 33.0008 7.66608 36.1135 8.44268C36.5627 8.55518 36.9674 8.75363 37.3229 9.01223V4.51436Z" fill="white"/>
<path d="M38.2027 10.7428L36.8042 9.72322C36.5252 9.52009 36.2205 9.37633 35.901 9.29586C32.586 8.46926 27.8514 7.48249 24.1207 7.48249C20.3893 7.48249 15.6555 8.46847 12.3405 9.29586C12.0209 9.37555 11.7162 9.51931 11.4373 9.72322L10.0388 10.7428V4.51438C10.0388 3.25885 10.931 2.16974 12.1608 1.92441C14.9469 1.37048 20.2041 0.441528 24.1207 0.441528C28.0373 0.441528 33.2946 1.37048 36.0807 1.92441C37.3112 2.16974 38.2027 3.25885 38.2027 4.51438V10.7428ZM24.1207 5.72225C28.0303 5.72225 32.9165 6.73714 36.3268 7.58875C36.3651 7.59812 36.4041 7.60828 36.4416 7.61922V4.51438C36.4416 4.09561 36.1447 3.73309 35.7361 3.65184C33.0149 3.11041 27.8865 2.20177 24.1207 2.20177C20.3541 2.20177 15.2266 3.10962 12.5045 3.65106C12.0952 3.73231 11.799 4.09561 11.799 4.5136V7.61843C11.8365 7.6075 11.8756 7.59812 11.9139 7.58796C15.325 6.73714 20.2112 5.72225 24.1207 5.72225Z" fill="black"/>
<path d="M12.485 39.1777C12.5952 40.1739 13.4374 40.927 14.439 40.927H24.1207H33.8016C34.804 40.927 35.6455 40.1739 35.7564 39.1777L36.7354 30.3656H11.5053L12.485 39.1777Z" fill="#F95555"/>
<path d="M33.8024 41.8075H14.439C12.9866 41.8075 11.7701 40.7192 11.61 39.2754L10.5224 29.4858H37.719L36.6315 39.2754C36.4705 40.7192 35.2549 41.8075 33.8024 41.8075ZM13.3601 39.08C13.421 39.6316 13.8851 40.0473 14.4398 40.0473H33.8032C34.3572 40.0473 34.822 39.6316 34.883 39.08L35.7533 31.2453H12.4889L13.3601 39.08Z" fill="black"/>
<path d="M36.1135 8.44267C33.0008 7.66607 28.0295 6.60352 24.1207 6.60352C20.212 6.60352 15.2398 7.66607 12.1272 8.44267C10.4193 8.86925 9.29736 10.4959 9.49112 12.2452L11.5045 30.3664H36.7346L38.748 12.2452C38.9433 10.4951 37.8214 8.86847 36.1135 8.44267Z" fill="#7F7F7F"/>
<path d="M37.5237 31.246H10.7177L8.61684 12.342C8.37542 10.1614 9.79267 8.11838 11.9139 7.58866C15.3242 6.73706 20.2104 5.72217 24.1207 5.72217C28.0303 5.72217 32.9164 6.73706 36.3268 7.58866C38.448 8.11838 39.8652 10.1614 39.6238 12.342L37.5237 31.246ZM12.2944 29.4858H35.9478L37.8753 12.1475C38.0206 10.8388 37.1721 9.61376 35.9017 9.29578C32.586 8.46917 27.8514 7.48241 24.1207 7.48241C20.3893 7.48241 15.6555 8.46839 12.3405 9.29578C11.0701 9.61298 10.2216 10.8388 10.3669 12.1475L12.2944 29.4858Z" fill="black"/>
<path d="M2.99783 43.5678L6.51831 48.8486H14.439V40.9271C13.7616 40.9271 13.1639 40.5779 12.8092 40.0474H2.99783V43.5678Z" fill="#7F7F7F"/>
<path d="M15.3195 49.7283H6.0472L2.11732 43.8343V39.1669H13.2788L13.5397 39.5583C13.7444 39.8646 14.0804 40.0474 14.439 40.0474H15.3195V49.7283ZM6.98943 47.9689H13.5593V41.667C13.1186 41.5217 12.7163 41.2693 12.3905 40.9279H3.87757V43.3022L6.98943 47.9689Z" fill="black"/>
<path d="M35.4322 40.0474C35.0775 40.5786 34.4798 40.9271 33.8016 40.9271V48.8486H41.7231L45.2436 43.5678V40.0474H35.4322Z" fill="#7F7F7F"/>
<path d="M42.1942 49.7283H32.9219V40.0474H33.8016C34.1603 40.0474 34.4962 39.8646 34.7009 39.5583L34.9619 39.1669H46.1233V43.8343L42.1942 49.7283ZM34.6822 47.9689H41.252L44.3639 43.3022V40.9279H35.851C35.5252 41.2693 35.1228 41.5217 34.6822 41.667V47.9689Z" fill="black"/>
<path d="M30.7972 47.7137L29.1497 48.3314L32.408 57.0207L34.0555 56.403L30.7972 47.7137Z" fill="black"/>
<path d="M17.4439 47.7196L14.1856 56.4089L15.8331 57.0267L19.0914 48.3374L17.4439 47.7196Z" fill="black"/>
<path d="M33.8024 40.9271H14.439V48.8486H33.8024V40.9271Z" fill="#4C4C4C"/>
<path d="M34.6821 49.7283H13.5592V40.0474H34.6821V49.7283ZM15.3195 47.9688H32.9219V41.8076H15.3195V47.9688Z" fill="black"/>
<path d="M30.2819 45.3281H17.9594L14.439 40.9271H33.8024L30.2819 45.3281Z" fill="#7F7F7F"/>
<path d="M30.7046 46.2078H17.5368L12.6077 40.0474H35.6338L30.7046 46.2078ZM18.3829 44.4484H29.8593L31.9711 41.8076H16.2711L18.3829 44.4484Z" fill="black"/>
<path d="M15.3195 31.2461V33.8869C15.3195 34.3728 14.9258 34.7666 14.439 34.7666H12.5592C10.9584 34.7666 9.04814 32.9907 7.7262 31.4993C6.96757 30.643 7.60979 29.3343 8.78328 29.346C10.8857 29.3679 13.7202 29.7164 15.3195 31.2461Z" fill="#FCD351"/>
<path d="M14.439 35.6463H12.5585C11.0099 35.6463 9.16219 34.447 7.06834 32.0821C6.49332 31.4344 6.35737 30.5461 6.71442 29.7648C7.08084 28.9616 7.86604 28.4647 8.76686 28.4647C8.77624 28.4647 8.78483 28.4647 8.79343 28.4647C11.0506 28.4882 14.1195 28.8796 15.9281 30.6086L16.2 30.8687V33.8853C16.2 34.8572 15.4102 35.6463 14.439 35.6463ZM8.76764 30.2265C8.46216 30.2265 8.34497 30.4328 8.31528 30.4961C8.26918 30.5984 8.24184 30.7539 8.38481 30.9148C10.0583 32.8032 11.5787 33.8861 12.5585 33.8861H14.439V31.6477C13.2929 30.7547 11.3029 30.2523 8.77389 30.2265C8.77155 30.2265 8.76999 30.2265 8.76764 30.2265Z" fill="black"/>
<path d="M14.0093 42.6881H11.7998H9.58878C9.35127 42.6881 9.15907 42.4959 9.15907 42.2584V39.5973C9.15907 39.3598 9.35127 39.1676 9.58878 39.1676H14.0101C14.2476 39.1676 14.4398 39.3598 14.4398 39.5973V42.2584C14.439 42.4951 14.2468 42.6881 14.0093 42.6881Z" fill="#4C4C4C"/>
<path d="M13.5593 43.5678H10.0388C9.06845 43.5678 8.27856 42.7787 8.27856 41.8076V40.0474C8.27856 39.077 9.06845 38.2871 10.0388 38.2871H13.5593C14.5296 38.2871 15.3195 39.0762 15.3195 40.0474V41.8076C15.3195 42.7787 14.5296 43.5678 13.5593 43.5678ZM10.0388 40.0474V41.8076H13.5601L13.5593 40.0474H10.0388Z" fill="black"/>
<path d="M26.7818 44.4483H22.3394C22.1613 44.4483 21.9964 44.3944 21.8589 44.3015C21.7855 44.2515 21.7206 44.1913 21.6659 44.1225C21.5495 43.9757 21.48 43.7905 21.48 43.5889V41.7873C21.48 41.313 21.8644 40.9279 22.3394 40.9279H26.781C27.2561 40.9279 27.6404 41.313 27.6404 41.7873V43.5889C27.6412 44.0632 27.2568 44.4483 26.7818 44.4483Z" fill="#7F7F7F"/>
<path d="M25.8809 45.3281H23.2402C21.7847 45.3281 20.6002 44.1437 20.6002 42.6881C20.6002 41.2318 21.7847 40.0474 23.2402 40.0474H25.8809C27.3365 40.0474 28.5217 41.2318 28.5217 42.6881C28.5217 44.1437 27.3365 45.3281 25.8809 45.3281ZM23.2402 41.8076C22.755 41.8076 22.3605 42.2029 22.3605 42.6881C22.3605 43.1733 22.755 43.5678 23.2402 43.5678H25.8809C26.1841 43.5678 26.4513 43.4147 26.6091 43.1811C26.7052 43.0405 26.7607 42.8702 26.7607 42.6881C26.7607 42.2029 26.3661 41.8076 25.8809 41.8076H23.2402Z" fill="black"/>
<path d="M26.7615 44.4484H22.3605V48.8494H26.7615V44.4484Z" fill="#7F7F7F"/>
<path d="M27.6412 49.7282H21.48V43.5677H27.6404L27.6412 49.7282ZM23.2402 47.9687H25.881V45.328H23.2402V47.9687Z" fill="black"/>
<path d="M8.27857 55.8895L14.2429 49.0728C14.3195 48.9853 14.2578 48.8478 14.1414 48.8478H10.0388L1.23761 55.8895H8.27857Z" fill="#4C4C4C"/>
<path d="M8.36056 57.1317L7.03627 55.9731L12.499 49.729H10.3474L1.09927 57.127L0 55.752L9.72937 47.968H14.1405C14.5374 47.968 14.9007 48.2016 15.0648 48.5634C15.2289 48.9251 15.1671 49.3525 14.9062 49.6517L8.36056 57.1317Z" fill="black"/>
<path d="M32.9219 31.2461V33.8869C32.9219 34.3728 33.3157 34.7666 33.8016 34.7666H35.6814C37.2823 34.7666 39.1917 32.9907 40.5145 31.4993C41.2731 30.643 40.6301 29.3343 39.4574 29.346C37.3565 29.3679 34.5212 29.7164 32.9219 31.2461Z" fill="#FCD351"/>
<path d="M35.683 35.6464H33.8024C32.8321 35.6464 32.0422 34.8573 32.0422 33.8861V30.8696L32.3141 30.6094C34.1228 28.8804 37.1924 28.489 39.4488 28.4656C39.4574 28.4656 39.4668 28.4656 39.4754 28.4656C40.3762 28.4656 41.1614 28.9617 41.5278 29.7656C41.8848 30.5461 41.7489 31.4345 41.1731 32.0829C39.0785 34.4479 37.2315 35.6464 35.683 35.6464ZM33.8024 31.6478V33.8861H35.683C36.6627 33.8861 38.1831 32.8025 39.8566 30.9149C39.9996 30.754 39.9723 30.5977 39.9262 30.4954C39.8957 30.4313 39.7558 30.2407 39.4675 30.2258C36.9385 30.2524 34.9486 30.7547 33.8024 31.6478Z" fill="black"/>
<path d="M34.2321 42.6881H36.4424H38.6534C38.8909 42.6881 39.0831 42.4959 39.0831 42.2584V39.5973C39.0831 39.3598 38.8909 39.1676 38.6534 39.1676H34.2321C33.9946 39.1676 33.8024 39.3598 33.8024 39.5973V42.2584C33.8024 42.4951 33.9946 42.6881 34.2321 42.6881Z" fill="#4C4C4C"/>
<path d="M38.2026 43.5678H34.6822C33.7118 43.5678 32.9219 42.7787 32.9219 41.8076V40.0474C32.9219 39.077 33.7118 38.2871 34.6822 38.2871H38.2026C39.173 38.2871 39.9629 39.0762 39.9629 40.0474V41.8076C39.9629 42.7787 39.173 43.5678 38.2026 43.5678ZM34.6822 40.0474V41.8076H38.2026V40.0474H34.6822Z" fill="black"/>
<path d="M39.9629 55.8895L33.9985 49.0728C33.922 48.9853 33.9845 48.8478 34.1001 48.8478H38.2026L47.0038 55.8887L39.9629 55.8895Z" fill="#4C4C4C"/>
<path d="M39.8801 57.1317L33.336 49.6532C33.0735 49.3532 33.0118 48.925 33.1758 48.5641C33.3399 48.2024 33.7024 47.9688 34.0993 47.9688H38.5105L48.2398 55.7527L47.1406 57.1278L37.8932 49.7298H35.7408L41.2036 55.9738L39.8801 57.1317Z" fill="black"/>
<path d="M14.5296 11.4866C13.6546 11.6882 13.0632 12.5085 13.1624 13.4007L14.3077 23.7137C14.5062 25.4966 16.0125 26.8451 17.8071 26.8451H30.4398C32.2328 26.8451 33.7392 25.4974 33.9384 23.7153L35.0884 13.4039C35.1884 12.5116 34.5962 11.6905 33.7212 11.4889C29.8765 10.6045 18.3665 10.6045 14.5296 11.4866Z" fill="#9BF2FF"/>
<path d="M30.4398 27.7256H17.8079C15.5625 27.7256 13.6812 26.0427 13.4343 23.8113L12.2889 13.4983C12.1405 12.1655 13.0186 10.9318 14.3328 10.6295C18.2658 9.7255 29.9827 9.7255 33.9212 10.6318C35.2353 10.9342 36.1135 12.1678 35.965 13.5022L34.815 23.8137C34.5658 26.0435 32.6852 27.7256 30.4398 27.7256ZM14.7273 12.3444C14.2843 12.4459 13.9874 12.8585 14.0374 13.303L15.1836 23.6168C15.332 24.9559 16.4594 25.9653 17.8071 25.9653H30.439C31.7859 25.9653 32.9149 24.9567 33.0633 23.6176L34.2134 13.3061C34.2634 12.8608 33.9673 12.4483 33.5251 12.3467C29.8327 11.4975 18.4142 11.4959 14.7273 12.3444Z" fill="black"/>
<path d="M29.4014 33.0063H18.84V34.7666H29.4014V33.0063Z" fill="black"/>
<path d="M25.881 36.5269H22.3605V38.2871H25.881V36.5269Z" fill="black"/>
<path d="M15.3195 5.72217H13.5592V8.36292H15.3195V5.72217Z" fill="black"/>
<path d="M34.6822 5.72217H32.9219V8.36292H34.6822V5.72217Z" fill="black"/>
<path d="M31.1617 4.84253H29.4015V7.48328H31.1617V4.84253Z" fill="black"/>
<path d="M18.84 4.84253H17.0798V7.48328H18.84V4.84253Z" fill="black"/>
<g clip-path="url(#clip0_50_264)">
<path d="M97.7561 22.6027H96.0806C95.7721 22.6027 95.5221 22.8527 95.5221 23.1612V28.9323C95.5221 29.2408 95.7721 29.4908 96.0806 29.4908H97.7561C98.0645 29.4908 98.3146 29.2408 98.3146 28.9323V23.1612C98.3146 22.8527 98.0645 22.6027 97.7561 22.6027Z" fill="#BCD44C"/>
<path d="M97.7561 22.6027H96.3598C96.5079 22.6027 96.65 22.6615 96.7547 22.7662C96.8595 22.871 96.9183 23.013 96.9183 23.1612V28.9323C96.9183 29.0804 96.8595 29.2225 96.7547 29.3272C96.65 29.432 96.5079 29.4908 96.3598 29.4908H97.7561C97.9042 29.4908 98.0462 29.432 98.151 29.3272C98.2557 29.2225 98.3146 29.0804 98.3146 28.9323V23.1612C98.3146 23.013 98.2557 22.871 98.151 22.7662C98.0462 22.6615 97.9042 22.6027 97.7561 22.6027Z" fill="#AECE44"/>
<path d="M52.6108 29.4908H54.2863C54.5947 29.4908 54.8448 29.2408 54.8448 28.9323V23.1612C54.8448 22.8527 54.5947 22.6027 54.2863 22.6027H52.6108C52.3023 22.6027 52.0523 22.8527 52.0523 23.1612V28.9323C52.0523 29.2408 52.3023 29.4908 52.6108 29.4908Z" fill="#BCD44C"/>
<path d="M54.2863 22.6027H52.89C53.0382 22.6027 53.1802 22.6615 53.2849 22.7662C53.3897 22.871 53.4485 23.013 53.4485 23.1612V28.9323C53.4485 29.0804 53.3897 29.2225 53.2849 29.3272C53.1802 29.432 53.0382 29.4908 52.89 29.4908H54.2863C54.4344 29.4908 54.5765 29.432 54.6812 29.3272C54.7859 29.2225 54.8448 29.0804 54.8448 28.9323V23.1612C54.8448 23.013 54.7859 22.871 54.6812 22.7662C54.5765 22.6615 54.4344 22.6027 54.2863 22.6027Z" fill="#AECE44"/>
<path d="M89.5182 9.7572H60.8486C59.3064 9.7572 58.0561 11.0074 58.0561 12.5497V46.8974C58.0561 48.4396 59.3064 49.6898 60.8486 49.6898H89.5182C91.0605 49.6898 92.3107 48.4396 92.3107 46.8974V12.5497C92.3107 11.0074 91.0605 9.7572 89.5182 9.7572Z" fill="#BCD44C"/>
<path d="M89.5182 9.7572H85.3295C86.0701 9.7572 86.7804 10.0514 87.3041 10.5751C87.8278 11.0988 88.122 11.8091 88.122 12.5497V46.8974C88.122 47.638 87.8278 48.3482 87.3041 48.8719C86.7804 49.3956 86.0701 49.6898 85.3295 49.6898H89.5182C90.2588 49.6898 90.9691 49.3956 91.4928 48.8719C92.0165 48.3482 92.3107 47.638 92.3107 46.8974V12.5497C92.3107 11.8091 92.0165 11.0988 91.4928 10.5751C90.9691 10.0514 90.2588 9.7572 89.5182 9.7572Z" fill="#AECE44"/>
<path d="M92.3107 17.0177V33.3072H58.0561V17.0177H92.3107Z" fill="#83C9EE"/>
<path d="M88.122 17.0177H92.3107V33.3072H88.122V17.0177Z" fill="#52BBE9"/>
<path d="M75.8816 17.0177V33.3072C75.8816 33.4924 75.808 33.67 75.6771 33.8009C75.5462 33.9318 75.3686 34.0054 75.1834 34.0054C74.9983 34.0054 74.8207 33.9318 74.6898 33.8009C74.5589 33.67 74.4853 33.4924 74.4853 33.3072V17.0177H75.8816Z" fill="#A8D9F5"/>
<path d="M89.5182 38.8922H60.8486C60.108 38.8922 59.3977 38.598 58.874 38.0743C58.3503 37.5506 58.0561 36.8404 58.0561 36.0997V33.3073H92.3107V36.0997C92.3107 36.8404 92.0165 37.5506 91.4928 38.0743C90.9691 38.598 90.2588 38.8922 89.5182 38.8922Z" fill="#AECE44"/>
<path d="M86.9119 46.8973C88.3513 46.8973 89.5182 45.7305 89.5182 44.291C89.5182 42.8516 88.3513 41.6847 86.9119 41.6847C85.4725 41.6847 84.3056 42.8516 84.3056 44.291C84.3056 45.7305 85.4725 46.8973 86.9119 46.8973Z" fill="#FDDD5A"/>
<path d="M86.9119 41.6847C86.6759 41.6847 86.4411 41.7168 86.2138 41.78C86.7625 41.9326 87.2462 42.2607 87.5908 42.7141C87.9354 43.1676 88.1219 43.7215 88.1219 44.291C88.1219 44.8606 87.9354 45.4144 87.5908 45.8679C87.2462 46.3214 86.7625 46.6495 86.2138 46.802C86.5722 46.9017 86.9478 46.9235 87.3154 46.866C87.683 46.8084 88.034 46.6728 88.3448 46.4683C88.6556 46.2638 88.919 45.9951 89.1173 45.6803C89.3157 45.3656 89.4443 45.012 89.4946 44.6433C89.5449 44.2747 89.5157 43.8996 89.4089 43.5431C89.3021 43.1867 89.1203 42.8573 88.8756 42.577C88.631 42.2968 88.3291 42.0721 87.9904 41.9182C87.6517 41.7643 87.2839 41.6847 86.9119 41.6847Z" fill="#FED030"/>
<path d="M63.455 46.8973C64.8944 46.8973 66.0613 45.7305 66.0613 44.291C66.0613 42.8516 64.8944 41.6847 63.455 41.6847C62.0155 41.6847 60.8486 42.8516 60.8486 44.291C60.8486 45.7305 62.0155 46.8973 63.455 46.8973Z" fill="#FDDD5A"/>
<path d="M63.455 41.6847C63.219 41.6847 62.9842 41.7168 62.7568 41.78C63.3056 41.9326 63.7892 42.2607 64.1338 42.7141C64.4784 43.1676 64.665 43.7215 64.665 44.291C64.665 44.8606 64.4784 45.4144 64.1338 45.8679C63.7892 46.3214 63.3056 46.6495 62.7568 46.802C63.1153 46.9017 63.4909 46.9235 63.8585 46.866C64.2261 46.8084 64.577 46.6728 64.8879 46.4683C65.1987 46.2638 65.4621 45.9951 65.6604 45.6803C65.8587 45.3656 65.9874 45.012 66.0376 44.6433C66.0879 44.2747 66.0587 43.8996 65.952 43.5431C65.8452 43.1867 65.6634 42.8573 65.4187 42.577C65.174 42.2968 64.8722 42.0721 64.5335 41.9182C64.1948 41.7643 63.827 41.6847 63.455 41.6847Z" fill="#FED030"/>
<path d="M60.9417 49.6898H67.0852V54.6232C67.0852 54.9935 66.9381 55.3487 66.6762 55.6105C66.4144 55.8724 66.0593 56.0195 65.6889 56.0195H62.338C61.9677 56.0195 61.6125 55.8724 61.3507 55.6105C61.0888 55.3487 60.9417 54.9935 60.9417 54.6232V49.6898Z" fill="#787681"/>
<path d="M64.2927 49.6898V54.6232C64.2927 54.9935 64.1456 55.3487 63.8837 55.6105C63.6219 55.8724 63.2668 56.0195 62.8965 56.0195H65.6889C66.0593 56.0195 66.4144 55.8724 66.6762 55.6105C66.9381 55.3487 67.0852 54.9935 67.0852 54.6232V49.6898H64.2927Z" fill="#57565C"/>
<path d="M83.2816 49.6898H89.4251V54.6232C89.4251 54.9935 89.278 55.3487 89.0162 55.6105C88.7543 55.8724 88.3992 56.0195 88.0289 56.0195H84.6779C84.3076 56.0195 83.9524 55.8724 83.6906 55.6105C83.4288 55.3487 83.2816 54.9935 83.2816 54.6232V49.6898Z" fill="#787681"/>
<path d="M86.6326 49.6898V54.6232C86.6326 54.9935 86.4855 55.3487 86.2237 55.6105C85.9618 55.8724 85.6067 56.0195 85.2364 56.0195H88.0289C88.3992 56.0195 88.7543 55.8724 89.0162 55.6105C89.278 55.3487 89.4251 54.9935 89.4251 54.6232V49.6898H86.6326Z" fill="#57565C"/>
<path d="M98.3146 56.7177H52.0523C51.8671 56.7177 51.6896 56.6441 51.5586 56.5132C51.4277 56.3823 51.3542 56.2047 51.3542 56.0195C51.3542 55.8344 51.4277 55.6568 51.5586 55.5259C51.6896 55.395 51.8671 55.3214 52.0523 55.3214H98.3146C98.4997 55.3214 98.6773 55.395 98.8082 55.5259C98.9391 55.6568 99.0127 55.8344 99.0127 56.0195C99.0127 56.2047 98.9391 56.3823 98.8082 56.5132C98.6773 56.6441 98.4997 56.7177 98.3146 56.7177Z" fill="#787681"/>
<path d="M80.1168 41.6847H70.25C69.4789 41.6847 68.8538 42.3098 68.8538 43.0809V45.5011C68.8538 46.2722 69.4789 46.8973 70.25 46.8973H80.1168C80.888 46.8973 81.5131 46.2722 81.5131 45.5011V43.0809C81.5131 42.3098 80.888 41.6847 80.1168 41.6847Z" fill="white"/>
<path d="M80.1168 41.6847H75.9281C76.2984 41.6847 76.6535 41.8318 76.9154 42.0936C77.1772 42.3555 77.3243 42.7106 77.3243 43.0809V45.5011C77.3243 45.8714 77.1772 46.2265 76.9154 46.4884C76.6535 46.7502 76.2984 46.8973 75.9281 46.8973H80.1168C80.4871 46.8973 80.8423 46.7502 81.1041 46.4884C81.366 46.2265 81.5131 45.8714 81.5131 45.5011V43.0809C81.5131 42.7106 81.366 42.3555 81.1041 42.0936C80.8423 41.8318 80.4871 41.6847 80.1168 41.6847Z" fill="#E1E1E3"/>
<path d="M88.122 12.6893C87.9839 12.6893 87.8489 12.7303 87.7341 12.807C87.6193 12.8837 87.5298 12.9927 87.477 13.1203C87.4241 13.2479 87.4103 13.3882 87.4373 13.5236C87.4642 13.6591 87.5307 13.7835 87.6283 13.8811C87.726 13.9787 87.8504 14.0452 87.9858 14.0722C88.1212 14.0991 88.2616 14.0853 88.3891 14.0324C88.5167 13.9796 88.6257 13.8901 88.7024 13.7753C88.7792 13.6605 88.8201 13.5255 88.8201 13.3874C88.8201 13.2023 88.7465 13.0247 88.6156 12.8938C88.4847 12.7629 88.3071 12.6893 88.122 12.6893ZM96.0806 21.9045C95.7474 21.9049 95.428 22.0374 95.1924 22.273C94.9568 22.5086 94.8243 22.828 94.824 23.1612V28.9323C94.8243 29.2655 94.9568 29.5849 95.1924 29.8205C95.428 30.0561 95.7474 30.1886 96.0806 30.1889H97.7561C98.0892 30.1886 98.4086 30.0561 98.6442 29.8205C98.8798 29.5849 99.0123 29.2655 99.0127 28.9323V23.1612C99.0123 22.828 98.8798 22.5086 98.6442 22.273C98.4086 22.0374 98.0892 21.9049 97.7561 21.9045H97.6164V20.4618C97.616 20.1039 97.4737 19.7609 97.2207 19.5078C96.9676 19.2548 96.6246 19.1125 96.2667 19.1121H93.0088V12.5497C93.0078 11.6242 92.6397 10.737 91.9853 10.0826C91.3309 9.42821 90.4437 9.06012 89.5182 9.05908H60.8486C59.9232 9.06012 59.0359 9.42821 58.3815 10.0826C57.7271 10.737 57.359 11.6242 57.358 12.5497V19.1121H54.1001C53.7423 19.1125 53.3992 19.2548 53.1462 19.5078C52.8932 19.7609 52.7508 20.1039 52.7504 20.4618V21.9045H52.6108C52.2776 21.9049 51.9582 22.0374 51.7226 22.273C51.487 22.5086 51.3545 22.828 51.3542 23.1612V28.9323C51.3545 29.2655 51.487 29.5849 51.7226 29.8205C51.9582 30.0561 52.2776 30.1886 52.6108 30.1889H54.2863C54.6194 30.1886 54.9388 30.0561 55.1744 29.8205C55.41 29.5849 55.5425 29.2655 55.5429 28.9323V23.1612C55.5425 22.828 55.41 22.5086 55.1744 22.273C54.9388 22.0374 54.6194 21.9049 54.2863 21.9045H54.1466V20.5083H57.358V46.8974C57.3591 47.7178 57.6488 48.5117 58.1764 49.1401C58.7039 49.7685 59.4357 50.1913 60.2436 50.3344V54.6232C60.2435 54.8611 60.2841 55.0972 60.3637 55.3214H52.0523C51.8671 55.3214 51.6896 55.3949 51.5586 55.5258C51.4277 55.6568 51.3542 55.8343 51.3542 56.0195C51.3542 56.2046 51.4277 56.3822 51.5586 56.5131C51.6896 56.6441 51.8671 56.7176 52.0523 56.7176H98.3146C98.4997 56.7176 98.6773 56.6441 98.8082 56.5131C98.9391 56.3822 99.0127 56.2046 99.0127 56.0195C99.0127 55.8343 98.9391 55.6568 98.8082 55.5258C98.6773 55.3949 98.4997 55.3214 98.3146 55.3214H90.0032C90.0827 55.0972 90.1234 54.8611 90.1233 54.6232V50.3344C90.9311 50.1913 91.6629 49.7685 92.1905 49.1401C92.718 48.5117 93.0077 47.7178 93.0088 46.8974V20.5083H96.2202V21.9045H96.0806ZM54.1466 28.7927H52.7504V23.3008H54.1466V28.7927ZM58.7543 17.7158H74.4853V32.6091H58.7543V17.7158ZM66.3871 54.6232C66.3869 54.8083 66.3133 54.9858 66.1824 55.1167C66.0515 55.2476 65.874 55.3212 65.689 55.3214H62.338C62.1529 55.3212 61.9754 55.2476 61.8445 55.1167C61.7136 54.9858 61.64 54.8083 61.6398 54.6232V50.388H66.3871V54.6232ZM67.6632 55.3214C67.7428 55.0972 67.7834 54.8611 67.7833 54.6232V50.388H82.5835V54.6232C82.5834 54.8611 82.624 55.0972 82.7036 55.3214H67.6632ZM88.727 54.6232C88.7268 54.8083 88.6532 54.9858 88.5223 55.1167C88.3914 55.2476 88.214 55.3212 88.0289 55.3214H84.6779C84.4928 55.3212 84.3153 55.2476 84.1845 55.1167C84.0536 54.9858 83.98 54.8083 83.9798 54.6232V50.388H88.727V54.6232ZM91.6126 46.8974C91.6119 47.4526 91.3911 47.985 90.9985 48.3776C90.6058 48.7702 90.0735 48.9911 89.5182 48.9917H60.8486C60.2934 48.9911 59.761 48.7702 59.3684 48.3776C58.9758 47.985 58.7549 47.4526 58.7543 46.8974V38.8903C59.3576 39.3454 60.0929 39.5911 60.8486 39.5903H89.5182C90.2739 39.5911 91.0092 39.3454 91.6126 38.8903V46.8974ZM91.6126 36.0997C91.6119 36.655 91.3911 37.1873 90.9985 37.58C90.6058 37.9726 90.0735 38.1934 89.5182 38.1941H60.8486C60.2934 38.1934 59.761 37.9726 59.3684 37.58C58.9758 37.1873 58.7549 36.655 58.7543 36.0997V34.0053H91.6126V36.0997ZM91.6126 32.6091H75.8815V17.7158H91.6126V32.6091ZM91.6126 16.3196H58.7543V12.5497C58.7549 11.9944 58.9758 11.4621 59.3684 11.0695C59.761 10.6768 60.2934 10.456 60.8486 10.4553H89.5182C90.0735 10.456 90.6058 10.6768 90.9985 11.0695C91.3911 11.4621 91.6119 11.9944 91.6126 12.5497V16.3196ZM97.6164 23.3008V28.7927H96.2202V23.3008H97.6164ZM80.1168 40.9866H70.25C69.6948 40.9872 69.1624 41.2081 68.7698 41.6007C68.3772 41.9933 68.1563 42.5257 68.1557 43.0809V45.5011C68.1563 46.0564 68.3772 46.5887 68.7698 46.9813C69.1624 47.374 69.6948 47.5948 70.25 47.5955H80.1168C80.6721 47.5948 81.2044 47.374 81.5971 46.9813C81.9897 46.5887 82.2106 46.0564 82.2112 45.5011V43.0809C82.2106 42.5257 81.9897 41.9933 81.5971 41.6007C81.2044 41.2081 80.6721 40.9872 80.1168 40.9866ZM80.815 45.5011C80.8148 45.6862 80.7411 45.8637 80.6103 45.9945C80.4794 46.1254 80.3019 46.199 80.1168 46.1992H70.25C70.0649 46.199 69.8875 46.1254 69.7566 45.9945C69.6257 45.8637 69.5521 45.6862 69.5519 45.5011V43.0809C69.5521 42.8959 69.6257 42.7184 69.7566 42.5875C69.8875 42.4566 70.0649 42.383 70.25 42.3828H80.1168C80.3019 42.383 80.4794 42.4566 80.6103 42.5875C80.7411 42.7184 80.8148 42.8959 80.815 43.0809V45.5011ZM63.455 40.9866C62.8014 40.9866 62.1625 41.1804 61.6191 41.5435C61.0757 41.9066 60.6521 42.4227 60.402 43.0265C60.1519 43.6303 60.0865 44.2947 60.214 44.9357C60.3415 45.5767 60.6562 46.1655 61.1184 46.6276C61.5805 47.0898 62.1693 47.4045 62.8103 47.532C63.4513 47.6595 64.1157 47.594 64.7195 47.3439C65.3233 47.0938 65.8394 46.6703 66.2025 46.1269C66.5656 45.5835 66.7594 44.9446 66.7594 44.291C66.7584 43.4149 66.41 42.575 65.7905 41.9555C65.171 41.336 64.331 40.9876 63.455 40.9866ZM63.455 46.1992C63.0775 46.1992 62.7086 46.0873 62.3948 45.8776C62.081 45.668 61.8364 45.3699 61.692 45.0213C61.5476 44.6726 61.5098 44.2889 61.5834 43.9188C61.657 43.5486 61.8388 43.2086 62.1057 42.9417C62.3725 42.6749 62.7125 42.4931 63.0827 42.4195C63.4528 42.3459 63.8365 42.3836 64.1852 42.5281C64.5339 42.6725 64.8319 42.9171 65.0416 43.2309C65.2512 43.5447 65.3632 43.9136 65.3632 44.291C65.3626 44.7969 65.1614 45.282 64.8036 45.6397C64.4459 45.9974 63.9609 46.1987 63.455 46.1992ZM86.9119 40.9866C86.2583 40.9866 85.6194 41.1804 85.076 41.5435C84.5326 41.9066 84.1091 42.4227 83.859 43.0265C83.6089 43.6303 83.5434 44.2947 83.6709 44.9357C83.7984 45.5767 84.1132 46.1655 84.5753 46.6276C85.0374 47.0898 85.6262 47.4045 86.2672 47.532C86.9082 47.6595 87.5726 47.594 88.1764 47.3439C88.7803 47.0938 89.2963 46.6703 89.6594 46.1269C90.0225 45.5835 90.2163 44.9446 90.2163 44.291C90.2154 43.4149 89.8669 42.575 89.2474 41.9555C88.6279 41.336 87.788 40.9876 86.9119 40.9866ZM86.9119 46.1992C86.5345 46.1992 86.1656 46.0873 85.8517 45.8776C85.5379 45.668 85.2934 45.3699 85.1489 45.0213C85.0045 44.6726 84.9667 44.2889 85.0404 43.9188C85.114 43.5486 85.2957 43.2086 85.5626 42.9417C85.8295 42.6749 86.1695 42.4931 86.5396 42.4195C86.9098 42.3459 87.2934 42.3836 87.6421 42.5281C87.9908 42.6725 88.2888 42.9171 88.4985 43.2309C88.7082 43.5447 88.8201 43.9136 88.8201 44.291C88.8195 44.7969 88.6183 45.282 88.2606 45.6397C87.9028 45.9974 87.4178 46.1987 86.9119 46.1992ZM62.1958 12.6893C62.0577 12.6893 61.9228 12.7303 61.808 12.807C61.6932 12.8837 61.6037 12.9927 61.5508 13.1203C61.498 13.2479 61.4842 13.3882 61.5111 13.5236C61.538 13.6591 61.6045 13.7835 61.7022 13.8811C61.7998 13.9787 61.9242 14.0452 62.0596 14.0722C62.195 14.0991 62.3354 14.0853 62.463 14.0324C62.5905 13.9796 62.6996 13.8901 62.7763 13.7753C62.853 13.6605 62.8939 13.5255 62.8939 13.3874C62.8939 13.2023 62.8204 13.0247 62.6895 12.8938C62.5585 12.7629 62.381 12.6893 62.1958 12.6893ZM84.3056 12.6893H66.0613C65.8761 12.6893 65.6986 12.7629 65.5676 12.8938C65.4367 13.0247 65.3632 13.2023 65.3632 13.3874C65.3632 13.5726 65.4367 13.7502 65.5676 13.8811C65.6986 14.012 65.8761 14.0856 66.0613 14.0856H84.3056C84.4907 14.0856 84.6683 14.012 84.7992 13.8811C84.9301 13.7502 85.0037 13.5726 85.0037 13.3874C85.0037 13.2023 84.9301 13.0247 84.7992 12.8938C84.6683 12.7629 84.4907 12.6893 84.3056 12.6893Z" fill="#3C3B41"/>
</g>
<defs>
<clipPath id="clip0_50_264">
<rect width="47.6585" height="47.6585" fill="white" transform="translate(51.3542 9.05908)"/>
</clipPath>
</defs>
</svg>
