<svg width="60" height="60" viewBox="0 0 60 60" fill="none" xmlns="http://www.w3.org/2000/svg">
<g clip-path="url(#clip0_50_234)">
<path d="M27.2379 33.1035L26.3276 30.3724C26.046 29.535 25.2662 28.9667 24.3828 28.9552L8.74139 28.9759C7.84536 28.9706 7.04776 29.5427 6.76553 30.3931L4.13794 38.2759H20.6897L27.2379 33.1035Z" fill="#3197D6"/>
<path d="M32.7621 33.1035L33.6724 30.3724C33.954 29.535 34.7338 28.9667 35.6173 28.9552L51.2586 28.9759C52.1547 28.9706 52.9523 29.5427 53.2345 30.3931L55.8621 38.2759H39.3104L32.7621 33.1035Z" fill="#3197D6"/>
<path d="M55.8621 38.2863H35.9586C40.8876 36.8914 45.0185 33.517 47.369 28.9656H51.2793C52.1628 28.9771 52.9426 29.5453 53.2241 30.3828L55.8621 38.2863Z" fill="#1D80BD"/>
<path d="M28.9655 38.2863H9.06207C13.991 36.8914 18.1219 33.517 20.4724 28.9656H24.3828C25.2662 28.9771 26.046 29.5453 26.3276 30.3828L28.9655 38.2863Z" fill="#1D80BD"/>
<path d="M18.6207 50.6897H1.03448C0.463154 50.6897 0 50.2265 0 49.6552V42.4138C0 40.1285 1.85261 38.2759 4.13793 38.2759H18.9621L18.6207 50.6897Z" fill="#C23923"/>
<path d="M6.2069 46.5517C7.34956 46.5517 8.27587 45.6254 8.27587 44.4828C8.27587 43.3401 7.34956 42.4138 6.2069 42.4138C5.06425 42.4138 4.13794 43.3401 4.13794 44.4828C4.13794 45.6254 5.06425 46.5517 6.2069 46.5517Z" fill="#F1C200"/>
<path d="M17.5862 43.4482H12.4138C11.8425 43.4482 11.3793 42.9851 11.3793 42.4138C11.3793 41.8424 11.8425 41.3793 12.4138 41.3793H17.5862C18.1576 41.3793 18.6207 41.8424 18.6207 42.4138C18.6207 42.9851 18.1576 43.4482 17.5862 43.4482Z" fill="#34495F"/>
<path d="M13.4483 47.5862H12.4138C11.8425 47.5862 11.3793 47.123 11.3793 46.5517C11.3793 45.9804 11.8425 45.5172 12.4138 45.5172H13.4483C14.0196 45.5172 14.4828 45.9804 14.4828 46.5517C14.4828 47.123 14.0196 47.5862 13.4483 47.5862Z" fill="#34495F"/>
<path d="M2.06897 50.6897H8.27587V54.8276C8.27587 55.399 7.81271 55.8621 7.24138 55.8621H3.10345C2.53212 55.8621 2.06897 55.399 2.06897 54.8276V50.6897Z" fill="#34495F"/>
<path d="M41.0379 38.2759H55.8621C58.1474 38.2759 60 40.1285 60 42.4138V49.6552C60 50.2265 59.5369 50.6897 58.9655 50.6897H41.3793L41.0379 38.2759Z" fill="#C23923"/>
<path d="M53.7931 46.5517C54.9357 46.5517 55.8621 45.6254 55.8621 44.4828C55.8621 43.3401 54.9357 42.4138 53.7931 42.4138C52.6504 42.4138 51.7241 43.3401 51.7241 44.4828C51.7241 45.6254 52.6504 46.5517 53.7931 46.5517Z" fill="#F1C200"/>
<path d="M47.5862 43.4482H42.4138C41.8425 43.4482 41.3793 42.9851 41.3793 42.4138C41.3793 41.8424 41.8425 41.3793 42.4138 41.3793H47.5862C48.1575 41.3793 48.6207 41.8424 48.6207 42.4138C48.6207 42.9851 48.1575 43.4482 47.5862 43.4482Z" fill="#34495F"/>
<path d="M47.5862 47.5862H46.5517C45.9804 47.5862 45.5172 47.123 45.5172 46.5517C45.5172 45.9804 45.9804 45.5172 46.5517 45.5172H47.5862C48.1575 45.5172 48.6207 45.9804 48.6207 46.5517C48.6207 47.123 48.1575 47.5862 47.5862 47.5862Z" fill="#34495F"/>
<path d="M56.8965 55.8621H52.7586C52.1873 55.8621 51.7241 55.3989 51.7241 54.8276V50.6896H57.931V54.8276C57.931 55.3989 57.4679 55.8621 56.8965 55.8621Z" fill="#34495F"/>
<path d="M45.148 21.3806L31.8104 0.986848C31.4138 0.371614 30.732 -0.00012207 30 -0.00012207C29.2681 -0.00012207 28.5862 0.371614 28.1897 0.986848L14.8521 21.3806C14.4033 22.0559 14.3585 22.9223 14.7354 23.6402C15.1122 24.3582 15.8507 24.8134 16.6614 24.8275H43.3386C44.1494 24.8134 44.8878 24.3582 45.2647 23.6402C45.6415 22.9223 45.5968 22.0559 45.148 21.3806Z" fill="#F1C200"/>
<path d="M30 20.6897C30.5713 20.6897 31.0345 20.2265 31.0345 19.6552C31.0345 19.0839 30.5713 18.6207 30 18.6207C29.4287 18.6207 28.9655 19.0839 28.9655 19.6552C28.9655 20.2265 29.4287 20.6897 30 20.6897Z" fill="#EBEFF0"/>
<path d="M30 16.5517C29.4287 16.5517 28.9655 16.0886 28.9655 15.5173V7.24139C28.9655 6.67006 29.4287 6.20691 30 6.20691C30.5713 6.20691 31.0345 6.67006 31.0345 7.24139V15.5173C31.0345 16.0886 30.5713 16.5517 30 16.5517Z" fill="#EBEFF0"/>
<path d="M17.5862 42.4138H42.4138C44.6991 42.4138 46.5518 44.2664 46.5518 46.5517V53.7931C46.5518 54.3645 46.0886 54.8276 45.5173 54.8276H14.4828C13.9115 54.8276 13.4483 54.3645 13.4483 53.7931V46.5517C13.4483 44.2664 15.3009 42.4138 17.5862 42.4138Z" fill="#E84B34"/>
<path d="M42.4138 42.4138H17.5862L20.2138 34.5311C20.496 33.6806 21.2936 33.1085 22.1896 33.1138L33.9207 33.0931H37.831C38.7145 33.1046 39.4943 33.6729 39.7758 34.5104L42.4138 42.4138Z" fill="#62B8CD"/>
<path d="M19.6551 50.6897C20.7978 50.6897 21.7241 49.7634 21.7241 48.6207C21.7241 47.4781 20.7978 46.5518 19.6551 46.5518C18.5125 46.5518 17.5862 47.4781 17.5862 48.6207C17.5862 49.7634 18.5125 50.6897 19.6551 50.6897Z" fill="#F1C200"/>
<path d="M40.3448 50.6897C41.4875 50.6897 42.4138 49.7634 42.4138 48.6207C42.4138 47.4781 41.4875 46.5518 40.3448 46.5518C39.2022 46.5518 38.2759 47.4781 38.2759 48.6207C38.2759 49.7634 39.2022 50.6897 40.3448 50.6897Z" fill="#F1C200"/>
<path d="M34.1379 47.5862H25.8621C25.2907 47.5862 24.8276 47.123 24.8276 46.5517C24.8276 45.9804 25.2907 45.5172 25.8621 45.5172H34.1379C34.7092 45.5172 35.1724 45.9804 35.1724 46.5517C35.1724 47.123 34.7092 47.5862 34.1379 47.5862Z" fill="#3D5C6D"/>
<path d="M34.1379 51.7241H25.8621C25.2907 51.7241 24.8276 51.261 24.8276 50.6896C24.8276 50.1183 25.2907 49.6552 25.8621 49.6552H34.1379C34.7092 49.6552 35.1724 50.1183 35.1724 50.6896C35.1724 51.261 34.7092 51.7241 34.1379 51.7241Z" fill="#3D5C6D"/>
<path d="M15.5172 54.8275H21.7241V58.9654C21.7241 59.5368 21.261 59.9999 20.6896 59.9999H16.5517C15.9804 59.9999 15.5172 59.5368 15.5172 58.9654V54.8275Z" fill="#3D5C6D"/>
<path d="M38.2758 54.8275H44.4827V58.9654C44.4827 59.5368 44.0196 59.9999 43.4483 59.9999H39.3103C38.739 59.9999 38.2758 59.5368 38.2758 58.9654V54.8275Z" fill="#3D5C6D"/>
<path d="M42.4138 42.4138H22.5103C27.4393 41.0189 31.5702 37.6445 33.9207 33.0931H37.831C38.7145 33.1046 39.4943 33.6729 39.7758 34.5104L42.4138 42.4138Z" fill="#1EA7CE"/>
</g>
<defs>
<clipPath id="clip0_50_234">
<rect width="60" height="60" fill="white"/>
</clipPath>
</defs>
</svg>
