<svg width="30" height="30" viewBox="0 0 30 30" fill="none" xmlns="http://www.w3.org/2000/svg">
<rect width="30" height="30" rx="6" fill="#999999"/>
<g clip-path="url(#clip0_50_804)">
<path d="M15.0028 10.8916C12.7341 10.8916 10.8975 12.7303 10.8975 14.9969C10.8975 17.2656 12.7361 19.1023 15.0028 19.1023C17.2715 19.1023 19.1081 17.2636 19.1081 14.9969C19.1081 12.7283 17.2695 10.8916 15.0028 10.8916ZM15.0028 17.6616C13.5301 17.6616 12.3381 16.4689 12.3381 14.9969C12.3381 13.5249 13.5308 12.3323 15.0028 12.3323C16.4748 12.3323 17.6675 13.5249 17.6675 14.9969C17.6681 16.4689 16.4755 17.6616 15.0028 17.6616Z" fill="white"/>
<path d="M18.2988 7.05123C16.8268 6.98257 13.1808 6.9859 11.7075 7.05123C10.4128 7.1119 9.27082 7.42457 8.35015 8.34523C6.81148 9.8839 7.00815 11.9572 7.00815 14.9979C7.00815 18.1099 6.83482 20.1352 8.35015 21.6506C9.89482 23.1946 11.9982 22.9926 15.0028 22.9926C18.0855 22.9926 19.1495 22.9946 20.2395 22.5726C21.7215 21.9972 22.8402 20.6726 22.9495 18.2932C23.0188 16.8206 23.0148 13.1752 22.9495 11.7019C22.8175 8.89323 21.3102 7.1899 18.2988 7.05123ZM20.6288 20.6326C19.6202 21.6412 18.2208 21.5512 14.9835 21.5512C11.6502 21.5512 10.3135 21.6006 9.33815 20.6226C8.21482 19.5046 8.41815 17.7092 8.41815 14.9872C8.41815 11.3039 8.04015 8.65123 11.7368 8.4619C12.5862 8.4319 12.8362 8.4219 14.9742 8.4219L15.0042 8.4419C18.5568 8.4419 21.3442 8.0699 21.5115 11.7659C21.5495 12.6092 21.5582 12.8626 21.5582 14.9972C21.5575 18.2919 21.6202 19.6366 20.6288 20.6326Z" fill="white"/>
<path d="M19.2707 11.6894C19.8005 11.6894 20.23 11.2599 20.23 10.7301C20.23 10.2003 19.8005 9.77075 19.2707 9.77075C18.7408 9.77075 18.3113 10.2003 18.3113 10.7301C18.3113 11.2599 18.7408 11.6894 19.2707 11.6894Z" fill="white"/>
</g>
<defs>
<clipPath id="clip0_50_804">
<rect width="16" height="16" fill="white" transform="translate(7 7)"/>
</clipPath>
</defs>
</svg>
