<svg width="30" height="30" viewBox="0 0 30 30" fill="none" xmlns="http://www.w3.org/2000/svg">
<rect width="30" height="30" rx="6" fill="#999999"/>
<g clip-path="url(#clip0_50_803)">
<path d="M22.9958 23.0005V22.9998H22.9998V17.1318C22.9998 14.2611 22.3818 12.0498 19.0258 12.0498C17.4125 12.0498 16.3298 12.9351 15.8878 13.7745H15.8412V12.3178H12.6592V22.9998H15.9725V17.7105C15.9725 16.3178 16.2365 14.9711 17.9612 14.9711C19.6605 14.9711 19.6858 16.5605 19.6858 17.7998V23.0005H22.9958Z" fill="white"/>
<path d="M7.26367 12.3184H10.581V23.0004H7.26367V12.3184Z" fill="white"/>
<path d="M8.92133 7C7.86067 7 7 7.86067 7 8.92133C7 9.982 7.86067 10.8607 8.92133 10.8607C9.982 10.8607 10.8427 9.982 10.8427 8.92133C10.842 7.86067 9.98133 7 8.92133 7V7Z" fill="white"/>
</g>
<defs>
<clipPath id="clip0_50_803">
<rect width="16" height="16" fill="white" transform="translate(7 7)"/>
</clipPath>
</defs>
</svg>
