<svg width="30" height="30" viewBox="0 0 30 30" fill="none" xmlns="http://www.w3.org/2000/svg">
<rect width="30" height="30" rx="6" fill="#999999"/>
<g clip-path="url(#clip0_50_801)">
<path d="M21.368 12.166C21.368 12.0213 21.3627 11.8807 21.356 11.742C22.0067 11.28 22.554 10.7033 23 10.0393V10.0387C22.4047 10.2993 21.7713 10.4727 21.11 10.5567C21.79 10.1507 22.3093 9.51267 22.5533 8.744C21.9193 9.122 21.2193 9.38867 20.4733 9.538C19.8713 8.89667 19.0133 8.5 18.0773 8.5C16.2613 8.5 14.7993 9.974 14.7993 11.7807C14.7993 12.0407 14.8213 12.2907 14.8753 12.5287C12.1487 12.3953 9.73533 11.0887 8.114 9.09733C7.83133 9.58867 7.66467 10.1507 7.66467 10.7553C7.66467 11.8913 8.24933 12.898 9.122 13.4813C8.59467 13.4713 8.078 13.318 7.64 13.0773V13.1133C7.64 14.7073 8.77667 16.0313 10.268 16.3367C9.76667 16.474 9.14933 16.4687 8.78733 16.3887C9.212 17.6873 10.4187 18.6427 11.852 18.674C10.736 19.5467 9.31867 20.0727 7.78467 20.0727C7.516 20.0727 7.258 20.0607 7 20.028C8.45333 20.9647 10.1747 21.5 12.032 21.5C18.068 21.5 21.368 16.5 21.368 12.166Z" fill="white"/>
</g>
<defs>
<clipPath id="clip0_50_801">
<rect width="16" height="16" fill="white" transform="translate(7 7)"/>
</clipPath>
</defs>
</svg>
