<svg width="30" height="30" viewBox="0 0 30 30" fill="none" xmlns="http://www.w3.org/2000/svg">
<rect width="30" height="30" rx="6" fill="#999999"/>
<path d="M19.677 9.33911H10.323C8.48775 9.33911 7 10.8269 7 12.6621V17.3381C7 19.1734 8.48775 20.6611 10.323 20.6611H19.677C21.5122 20.6611 23 19.1734 23 17.3381V12.6621C23 10.8269 21.5122 9.33911 19.677 9.33911ZM17.4297 15.2276L13.0545 17.3143C12.9379 17.3699 12.8033 17.2849 12.8033 17.1558V12.852C12.8033 12.721 12.9415 12.6361 13.0583 12.6953L17.4335 14.9124C17.5636 14.9783 17.5613 15.1649 17.4297 15.2276Z" fill="white"/>
</svg>
